<mxfile>
    <diagram id="omwH62tyB3dfZbzcItN9" name="Page-1">
        <mxGraphModel dx="1170" dy="1783" grid="1" gridSize="10" guides="1" tooltips="1" connect="1" arrows="1" fold="1" page="1" pageScale="1" pageWidth="827" pageHeight="1169" math="0" shadow="0">
            <root>
                <mxCell id="0"/>
                <mxCell id="1" parent="0"/>
                <mxCell id="32" value="&lt;b&gt;Google &lt;/b&gt;Cloud Platform" style="fillColor=#F6F6F6;strokeColor=none;shadow=0;gradientColor=none;fontSize=14;align=left;spacing=10;fontColor=#717171;9E9E9E;verticalAlign=top;spacingTop=-4;fontStyle=0;spacingLeft=40;html=1;" parent="1" vertex="1">
                    <mxGeometry x="80" y="140" width="680" height="290" as="geometry"/>
                </mxCell>
                <mxCell id="33" value="" style="shape=mxgraph.gcp2.google_cloud_platform;fillColor=#F6F6F6;strokeColor=none;shadow=0;gradientColor=none;" parent="32" vertex="1">
                    <mxGeometry width="23" height="20" relative="1" as="geometry">
                        <mxPoint x="20" y="10" as="offset"/>
                    </mxGeometry>
                </mxCell>
                <mxCell id="28" value="" style="points=[[0,0,0],[0.25,0,0],[0.5,0,0],[0.75,0,0],[1,0,0],[1,0.25,0],[1,0.5,0],[1,0.75,0],[1,1,0],[0.75,1,0],[0.5,1,0],[0.25,1,0],[0,1,0],[0,0.75,0],[0,0.5,0],[0,0.25,0]];rounded=1;absoluteArcSize=1;arcSize=2;html=1;strokeColor=none;gradientColor=none;shadow=0;dashed=0;fontSize=12;fontColor=#9E9E9E;align=left;verticalAlign=top;spacing=10;spacingTop=-4;fillColor=#FFF8E1;" parent="1" vertex="1">
                    <mxGeometry x="340" y="-140" width="420" height="280" as="geometry"/>
                </mxCell>
                <mxCell id="IRnxoloWImqPQGitQmUK-3" value="" style="strokeColor=#dddddd;shadow=1;strokeWidth=1;rounded=1;absoluteArcSize=1;arcSize=2;" parent="1" vertex="1">
                    <mxGeometry x="120" y="200" width="130" height="60" as="geometry"/>
                </mxCell>
                <mxCell id="IRnxoloWImqPQGitQmUK-4" value="&lt;font color=&quot;#000000&quot;&gt;REST API&lt;/font&gt;&lt;br&gt;App Engine" style="dashed=0;connectable=0;html=1;fillColor=#5184F3;strokeColor=none;shape=mxgraph.gcp2.hexIcon;prIcon=app_engine;part=1;labelPosition=right;verticalLabelPosition=middle;align=left;verticalAlign=middle;spacingLeft=5;fontColor=#999999;fontSize=12;" parent="IRnxoloWImqPQGitQmUK-3" vertex="1">
                    <mxGeometry y="0.5" width="44" height="39" relative="1" as="geometry">
                        <mxPoint x="5" y="-19.5" as="offset"/>
                    </mxGeometry>
                </mxCell>
                <mxCell id="IRnxoloWImqPQGitQmUK-9" value="" style="strokeColor=#dddddd;shadow=1;strokeWidth=1;rounded=1;absoluteArcSize=1;arcSize=2;" parent="1" vertex="1">
                    <mxGeometry x="390" y="200" width="150" height="60" as="geometry"/>
                </mxCell>
                <mxCell id="IRnxoloWImqPQGitQmUK-10" value="&lt;font color=&quot;#000000&quot;&gt;Data import&lt;/font&gt;&lt;br&gt;Cloud Functions" style="dashed=0;connectable=0;html=1;fillColor=#5184F3;strokeColor=none;shape=mxgraph.gcp2.hexIcon;prIcon=cloud_functions;part=1;labelPosition=right;verticalLabelPosition=middle;align=left;verticalAlign=middle;spacingLeft=5;fontColor=#999999;fontSize=12;" parent="IRnxoloWImqPQGitQmUK-9" vertex="1">
                    <mxGeometry y="0.5" width="44" height="39" relative="1" as="geometry">
                        <mxPoint x="5" y="-19.5" as="offset"/>
                    </mxGeometry>
                </mxCell>
                <mxCell id="IRnxoloWImqPQGitQmUK-11" value="Cloud Scheduler" style="html=1;fillColor=#5184F3;strokeColor=none;verticalAlign=top;labelPosition=center;verticalLabelPosition=bottom;align=center;fontSize=11;fontStyle=1;fontColor=#999999;shape=mxgraph.gcp2.cloud_scheduler" parent="1" vertex="1">
                    <mxGeometry x="529" y="340" width="30" height="34.5" as="geometry"/>
                </mxCell>
                <mxCell id="IRnxoloWImqPQGitQmUK-13" value="" style="edgeStyle=orthogonalEdgeStyle;fontSize=12;html=1;endArrow=blockThin;endFill=1;rounded=0;strokeWidth=2;endSize=4;startSize=4;dashed=0;strokeColor=#4284F3;entryX=1;entryY=0.75;entryDx=0;entryDy=0;exitX=0;exitY=0.75;exitDx=0;exitDy=0;" parent="1" source="IRnxoloWImqPQGitQmUK-9" target="IRnxoloWImqPQGitQmUK-3" edge="1">
                    <mxGeometry width="100" relative="1" as="geometry">
                        <mxPoint x="140" y="270" as="sourcePoint"/>
                        <mxPoint x="240" y="270" as="targetPoint"/>
                    </mxGeometry>
                </mxCell>
                <mxCell id="IRnxoloWImqPQGitQmUK-14" value="" style="edgeStyle=orthogonalEdgeStyle;fontSize=12;html=1;endArrow=blockThin;endFill=1;rounded=0;strokeWidth=2;endSize=4;startSize=4;dashed=1;dashPattern=1 3;strokeColor=#4284F3;exitX=1;exitY=0.25;exitDx=0;exitDy=0;entryX=0;entryY=0.25;entryDx=0;entryDy=0;" parent="1" source="IRnxoloWImqPQGitQmUK-3" target="IRnxoloWImqPQGitQmUK-9" edge="1">
                    <mxGeometry width="100" relative="1" as="geometry">
                        <mxPoint x="280" y="200" as="sourcePoint"/>
                        <mxPoint x="380" y="200" as="targetPoint"/>
                    </mxGeometry>
                </mxCell>
                <mxCell id="IRnxoloWImqPQGitQmUK-16" value="" style="edgeStyle=orthogonalEdgeStyle;fontSize=12;html=1;endArrow=blockThin;endFill=1;rounded=0;strokeWidth=2;endSize=4;startSize=4;dashed=1;dashPattern=1 3;strokeColor=#4284F3;exitX=0.5;exitY=0;exitDx=0;exitDy=0;entryX=0.5;entryY=1;entryDx=0;entryDy=0;" parent="1" source="IRnxoloWImqPQGitQmUK-9" target="8" edge="1">
                    <mxGeometry width="100" relative="1" as="geometry">
                        <mxPoint x="450" y="150" as="sourcePoint"/>
                        <mxPoint x="550" y="150" as="targetPoint"/>
                    </mxGeometry>
                </mxCell>
                <mxCell id="IRnxoloWImqPQGitQmUK-17" value="" style="edgeStyle=orthogonalEdgeStyle;fontSize=12;html=1;endArrow=blockThin;endFill=1;rounded=0;strokeWidth=2;endSize=4;startSize=4;dashed=0;strokeColor=#4284F3;entryX=0.5;entryY=1;entryDx=0;entryDy=0;exitX=0.533;exitY=0;exitDx=0;exitDy=0;exitPerimeter=0;" parent="1" source="IRnxoloWImqPQGitQmUK-11" target="16" edge="1">
                    <mxGeometry width="100" relative="1" as="geometry">
                        <mxPoint x="380" y="330" as="sourcePoint"/>
                        <mxPoint x="480" y="330" as="targetPoint"/>
                        <Array as="points">
                            <mxPoint x="545" y="310"/>
                            <mxPoint x="645" y="310"/>
                        </Array>
                    </mxGeometry>
                </mxCell>
                <mxCell id="14" value="" style="strokeColor=#dddddd;shadow=1;strokeWidth=1;rounded=1;absoluteArcSize=1;arcSize=2;" parent="1" vertex="1">
                    <mxGeometry x="560" y="200" width="150" height="60" as="geometry"/>
                </mxCell>
                <mxCell id="15" value="&lt;font color=&quot;#000000&quot;&gt;Data import&lt;/font&gt;&lt;br&gt;Cloud Functions" style="dashed=0;connectable=0;html=1;fillColor=#5184F3;strokeColor=none;shape=mxgraph.gcp2.hexIcon;prIcon=cloud_functions;part=1;labelPosition=right;verticalLabelPosition=middle;align=left;verticalAlign=middle;spacingLeft=5;fontColor=#999999;fontSize=12;" parent="14" vertex="1">
                    <mxGeometry y="0.5" width="44" height="39" relative="1" as="geometry">
                        <mxPoint x="5" y="-19.5" as="offset"/>
                    </mxGeometry>
                </mxCell>
                <mxCell id="16" value="" style="strokeColor=#dddddd;shadow=1;strokeWidth=1;rounded=1;absoluteArcSize=1;arcSize=2;" parent="1" vertex="1">
                    <mxGeometry x="570" y="210" width="150" height="60" as="geometry"/>
                </mxCell>
                <mxCell id="17" value="&lt;font color=&quot;#000000&quot;&gt;Raw import&lt;/font&gt;&lt;br&gt;Cloud Functions" style="dashed=0;connectable=0;html=1;fillColor=#5184F3;strokeColor=none;shape=mxgraph.gcp2.hexIcon;prIcon=cloud_functions;part=1;labelPosition=right;verticalLabelPosition=middle;align=left;verticalAlign=middle;spacingLeft=5;fontColor=#999999;fontSize=12;" parent="16" vertex="1">
                    <mxGeometry y="0.5" width="44" height="39" relative="1" as="geometry">
                        <mxPoint x="5" y="-19.5" as="offset"/>
                    </mxGeometry>
                </mxCell>
                <mxCell id="19" value="" style="group" parent="1" vertex="1" connectable="0">
                    <mxGeometry x="560" y="40" width="940" height="117.11000000000001" as="geometry"/>
                </mxCell>
                <mxCell id="3" value="" style="strokeColor=#dddddd;shadow=1;strokeWidth=1;rounded=1;absoluteArcSize=1;arcSize=2;" parent="19" vertex="1">
                    <mxGeometry width="150" height="60" as="geometry"/>
                </mxCell>
                <mxCell id="5" value="" style="outlineConnect=0;fontColor=#ffffff;strokeColor=#001DBC;dashed=0;verticalLabelPosition=bottom;verticalAlign=top;align=center;html=1;fontSize=12;fontStyle=0;aspect=fixed;pointerEvents=1;shape=mxgraph.aws4.data_lake_resource_icon;fillColor=#4284F3;" parent="19" vertex="1">
                    <mxGeometry x="10" y="11" width="38" height="38" as="geometry"/>
                </mxCell>
                <mxCell id="6" value="&lt;font color=&quot;#999999&quot; face=&quot;helvetica&quot;&gt;Table&lt;/font&gt;" style="text;whiteSpace=wrap;html=1;" parent="19" vertex="1">
                    <mxGeometry x="51" y="22.5" width="110" height="30" as="geometry"/>
                </mxCell>
                <mxCell id="7" value="&lt;font color=&quot;#000000&quot; style=&quot;font-family: &amp;#34;helvetica&amp;#34; ; font-size: 12px ; font-style: normal ; font-weight: 400 ; letter-spacing: normal ; text-align: left ; text-indent: 0px ; text-transform: none ; word-spacing: 0px&quot;&gt;Data Lake&lt;/font&gt;" style="text;whiteSpace=wrap;html=1;" parent="19" vertex="1">
                    <mxGeometry x="51" y="7.5" width="90" height="15" as="geometry"/>
                </mxCell>
                <mxCell id="21" value="" style="group" parent="1" vertex="1" connectable="0">
                    <mxGeometry x="390" y="40" width="161" height="60" as="geometry"/>
                </mxCell>
                <mxCell id="8" value="" style="strokeColor=#dddddd;shadow=1;strokeWidth=1;rounded=1;absoluteArcSize=1;arcSize=2;" parent="21" vertex="1">
                    <mxGeometry width="150" height="60" as="geometry"/>
                </mxCell>
                <mxCell id="10" value="&lt;font color=&quot;#999999&quot; face=&quot;helvetica&quot;&gt;Table&lt;/font&gt;" style="text;whiteSpace=wrap;html=1;" parent="21" vertex="1">
                    <mxGeometry x="51" y="22.5" width="110" height="30" as="geometry"/>
                </mxCell>
                <mxCell id="11" value="&lt;font color=&quot;#000000&quot; style=&quot;font-family: &amp;#34;helvetica&amp;#34; ; font-size: 12px ; font-style: normal ; font-weight: 400 ; letter-spacing: normal ; text-align: left ; text-indent: 0px ; text-transform: none ; word-spacing: 0px&quot;&gt;Archive&lt;/font&gt;" style="text;whiteSpace=wrap;html=1;" parent="21" vertex="1">
                    <mxGeometry x="51" y="7.5" width="90" height="15" as="geometry"/>
                </mxCell>
                <mxCell id="12" value="" style="html=1;verticalLabelPosition=bottom;align=center;labelBackgroundColor=#ffffff;verticalAlign=top;strokeWidth=2;shadow=0;dashed=0;shape=mxgraph.ios7.icons.data;fillColor=none;strokeColor=#4284F3;aspect=fixed;" parent="21" vertex="1">
                    <mxGeometry x="11" y="10" width="27" height="35.1" as="geometry"/>
                </mxCell>
                <mxCell id="26" value="" style="edgeStyle=orthogonalEdgeStyle;fontSize=12;html=1;endArrow=blockThin;endFill=1;rounded=0;strokeWidth=2;endSize=4;startSize=4;dashed=0;strokeColor=#4284F3;exitX=0.533;exitY=0.034;exitDx=0;exitDy=0;exitPerimeter=0;entryX=0.5;entryY=1;entryDx=0;entryDy=0;" parent="1" source="IRnxoloWImqPQGitQmUK-11" target="IRnxoloWImqPQGitQmUK-9" edge="1">
                    <mxGeometry width="100" relative="1" as="geometry">
                        <mxPoint x="490" y="330" as="sourcePoint"/>
                        <mxPoint x="590" y="330" as="targetPoint"/>
                        <Array as="points">
                            <mxPoint x="545" y="310"/>
                            <mxPoint x="465" y="310"/>
                        </Array>
                    </mxGeometry>
                </mxCell>
                <mxCell id="27" value="" style="edgeStyle=orthogonalEdgeStyle;fontSize=12;html=1;endArrow=blockThin;endFill=1;rounded=0;strokeWidth=2;endSize=4;startSize=4;dashed=1;dashPattern=1 3;strokeColor=#4284F3;entryX=0.5;entryY=1;entryDx=0;entryDy=0;exitX=0.5;exitY=0;exitDx=0;exitDy=0;" parent="1" source="14" target="3" edge="1">
                    <mxGeometry width="100" relative="1" as="geometry">
                        <mxPoint x="570" y="150" as="sourcePoint"/>
                        <mxPoint x="670" y="150" as="targetPoint"/>
                    </mxGeometry>
                </mxCell>
                <mxCell id="29" value="" style="shape=image;verticalLabelPosition=bottom;labelBackgroundColor=#ffffff;verticalAlign=top;aspect=fixed;imageAspect=0;image=data:image/png,iVBORw0KGgoAAAANSUhEUgAAAtgAAADwCAYAAAA6sxN3AAAAAXNSR0IArs4c6QAAQABJREFUeAHt3QdgHMWhN/CZvVNzwcY2wabE9AAGXFRSXiiSXOgxPAw8QuhgSbYpgcCDFEQCvIRQTGyrQEIgEPjAIaEbF8mAIYB1rsRgMCW02IANbrKkKzvff046W5JVbuf2qv4H8t3t7rTf3e3Ozs7MCsEHBShAAQpQgAIUoAAFKEABClCAAhSgAAUoQAEKUIACFKAABShAAQpQgAIUoAAFKEABClCAAhSgAAUoQAEKUIACFKAABShAAQpQgAIUoAAFKEABClCAAhSgAAUoQAEKUIACFKAABShAAQpQgAIUoAAFKEABClCAAhSgAAUoQAEKUIACFKAABShAAQpQgAIUoAAFKEABClCAAhSgAAUoQAEKUIACFKAABShAAQpQgAIUoAAFKEABClCAAhSgAAUoQAEKUIACFKAABShAAQpQgAIUoAAFKEABClCAAhSgAAUoQAEKUIACFKAABShAAQpQgAIUoAAFKEABClCAAhSgAAUoQAEKUIACFKAABShAAQpQgAIUoAAFKEABClCAAhSgAAUoQAEKUIACFKAABShAAQpQgAIUoAAFKEABClCAAhSgAAUoQAEKUIACFKAABShAAQpQgAIUoAAFKEABClCAAhSgAAUoQAEKUIACFKAABShAAQpQgAIUoAAFKEABClCAAhSgAAUoQAEKUIACFKAABShAAQpQgAIUoAAFKEABClCAAhSgAAUoQAEKUIACFKAABShAAQpQgAIUoAAFKEABClCAAhSgAAUoQAEKUIACFKAABShAAQpQgAIUoAAFKEABClCAAhSgAAUoQAEKUIACFKAABShAAQpQgAIUoAAFKEABClCAAhSgAAUoQAEKUIACFKAABShAAQpQgAIUoAAFKEABClCAAhSgAAUoQAEKUIACFKAABShAAQpQgAIUoAAFKEABClCAAhSgAAUoQAEKUIACFKAABShAAQpQgAIUoAAFKEABClCAAhSgAAUoQAEKUIACFKAABShAAQpQgAIUoAAFKEABClCAAhSgAAUoQAEKUIACFKAABShAAQpQgAIUoAAFKEABClCAAhSgAAUoQAEKUIACFKAABShAAQpQgAIUoAAFKEABClCAAhSgAAUoQAEKUIACFKAABdJHoKykYdbU0oaz0ifH6ZVTpZQsK1laVzHe98P0yjlzSwEKUIACFKAABShgImChAniIsNVcVLTfLJ+w9HiTSBimZwGlREkoZC+B8YJppcu/3/PWXEsBClCAAhSgAAUokM4CViTzqGgX2UHx0tSShmemFa8cFVnOZ/cEYDwhaAf/iYr2C/grci9mxkQBClCAAhSgAAUokCoCOyvYOzOk1GlB6V9VXtzwx7KSlfvuXM4Xrgmgon0S/t5E15Fny4uX5bsWMSOiAAUoQAEKUIACFEi6wO4VbJ0lJTy2UJcK5V9XVtxw2w3jfYOSntMMzAC6jpxqi5APxk9VTFgxJgOLyCJRgAIUoAAFKECBPifQdQW7jUEJkaeEummLbX8wtXTpVZVT1mT3OaEEFBjGPwoFg8vRPefJ6eN9RycgSSZBAQpQgAIUoAAFKBAngR4r2JE00dI6VNhi5vqNjWvLShvORfcGGVnHZ7cEYKrUmYGQWoWuI49PLV1+pFsxMx4KUIACFKAABShAgcQJRFXBbpedA5WtHisv8TWUlSwrabecL10TUBInNGdLFXoLAyEfnT7Rd7hrUTMiClCAAhSgAAUoQIG4CzitYIczhC4N+UqF6vRsGOWly46Jey77YAK4SqCnUPyfYFCtQdeRh6dOWHFoH2RgkSlAAQpQgAIUoEDaCRhVsCOlRAUQs2HYK8qKlz5YMXHp/pHlfHZPQFe00XXkfBEKvKOdZ5T4DnYvdsZEAQpQgAIUoAAFKOC2QEwVbJ2ZcEurEBeGAuI9zIbxu6snrxjsdiYZn4YWHgw6vTCg7LXhKRRPXHEAXShAAQpQgAIUoAAFUk8g5gp2uyLlouvI9c1bgh+WlfqunXHSupx26/jSJQFUsr16CkXVEnxvanFD7VXjfd92KWpGQwEKUIACFKAABSjggoCbFexwdlDJ3lPZ9p2Bls3vlpcuPR8t3JxxxIUPavcoVBaata9ottU6zDpSNeOkVfvtvg2XUIACFKAABShAAQokWsD1CnakAKhYj7Rt8TAGQi6vKPFNjCzns8sCSmVj1pHyQIv/fVjPmj5h+T4up8DoKEABClCAAhSgAAUcCMStgt0uD2NCyp6P/tkLy8Y3jG23nC9dFMAJTQ7+pgeCwQ8w68g9FSevGe5i9IyKAhSgAAUoQAEKUCBKgURUsMNZQdeR8SoklmEmjEfKOEAvyo/HaLNcjDy92m5q/BBdR+4sm7jqW0axMBAFKEABClCAAhSggJFAwirYrbnDTVSE+LHyB99Fd4a7r5m0ZohRrhmoV4Hwbe6VuFYF/R/q2V2uPc03rNdA3IACFKAABShAAQpQIGaBBFew2/Ib7jesrtkR2PEh7gp5Q+VFH+XGXBJG0LWAUv317C6N29VH5aW+26+buKp/1xtyKQUoQAEKUIACFKCAGwLJqWBHcq7UIFvZv13/8VfrKqasGRBZzGf3BVDJHmDb9o1NwcB33I+dMVKAAhSgAAUoQAEKRASSW8GO5EKI/eTXFufN3uXBVxSgAAUoQAEKUIACaSqQKhXsNOVjtilAAQpQgAIUoAAFKNBRgBXsjh58RwEKUIACFKAABShAgZgEWMGOiY+BKUABClCAAhSgAAUo0FGAFeyOHnxHAQpQgAIUoAAFKECBmARYwY6Jj4EpQAEKUIACFKAABSjQUYAV7I4efEcBClCAAhSgAAUoQIGYBFjBjomPgSlAAQpQgAIUoAAFKNBRgBXsjh58RwEKUIACFKAABShAgZgEWMGOiY+BKUABClCAAhSgAAUo0FGAFeyOHnxHAQpQgAIUoAAFKECBmARYwY6Jj4EpQAEKUIACFKAABSjQUYAV7I4efEcBClCAAhSgAAUoQIGYBFjBjomPgSlAAQpQgAIUoAAFKNBRgBXsjh58RwEKUIACFKAABShAgZgEWMGOiY+BKUABClCAAhSgAAUo0FGAFeyOHnxHAQpQgAIUoAAFKECBmARYwY6Jj4EpQAEKUIACFKAABSjQUYAV7I4efEcBClCAAhSgAAUoQIGYBFjBjomPgSlAAQpQgAIUoAAFKNBRgBXsjh58RwEKUIACFKAABShAgZgEvFIIqWKKgoF7ErjlFgFiPiiQ+QLXTVzVvymgDgiKwEiPpQbatuwvLZEnlGxRUjYpaW/Pkp7Pg9LzSfX8Y76SMjN3PTeM9w3aKlShUOI7KPueStiDhZR7CqXwWiopFFaLrXix1VJyK9Z9I4X9dj9vzqo7F4xuzPxvCktIgeQJVFYq78Z/rt4/GAweiH3SEGGLftgX9ceBGlUhu8UWslkKq1lKsRG/z0/2Om7s55WVMpi8HDPldBWQZcVLX8S3alKyC+C1Bg6bU3fEpmTnw+30lVKyrKTBdjte0/i80sqfU1+w3DR8OoSrPM3Xb0OjfadJXqvrCqfFo+I3tbRhglTqDOd5kq/X1Bc+7Dxc/ENMK1k+MqRCpTguleA08gSlxL5RpyplIyqa+nu4VAjPa8P7q/mVzxbsiDp8Cm14zZRP85q//uJsZdvFqEB/F1n7Dkwcn1jje6f3E++iIr5cSutNmZs3t+qFURvcKmpZyVL9m+jnVnzJiMfr8T4we+E4n0naFSevGW43N/7KaVicHG6vrSu83mm47rYvK112qlChk7tb33m5lJ7Hquvyl3ReHo/3+iR5e7Dl907ixnd+SW194WNOwiRy2+kTVx0YCgZKbaF+gCr097HfOQR1Hm/UeZAihHbIz7H/fgcnw2/jl73GK7KWzKkb817UccS4Ydn4hv8WtsK+NnUfSnpn19aNezueOaycsiZ7wzb/PiIU3FfZYoRU1p74PIegnjUEbRe6ASMPO94cfM7ZSqgcfF4BvEejhdouhBV+xraNlrS+wQnUu9lesXbm/IL18cpz9F+yeOWA8VLAZYEt/rxc/IbKTaLFFYfpCOf6RR3LFmNQe3KcJzTy5iE/KVPBLi9ddqxSoQtwwCkJquBBO42diinVH0GORXj8ha7dsF00TS1pmG8p8efqxYXP7Iw3hV9MK115WEgFypo2brgIO/M9W7PqFGJXAbHj1132jtB/Stk/Fs2N90wtXrrQEtbDew8QT8V6AoJz/Uvx1R68K8X0exUIhXRF06iCLfzNe+Ik0PlvUCjd8ONaBVvaqtDRvkDZZ1VMXJpftaDo03h/YionkKcCzoxQgdHf25SqYF89yTeiOSAuxMnqWYFAS357N8e/UCU8+N18G+G+jfgm6aNDUPgF9lefoHK3AL/PuScMza87e65ERTw+DxUSP0DMjr+78clN17F6pNL77Zgr2PoKw/olKw7DceFIacsjUHE+AuaHKan2W79xx7fwWexsvFA499n5eYZfYE/cPnv4we96j19d28NG7VyvaPILgYaHrTierUWFey0W/dNreZ7FSfx/ItvG8swKdix6UYTVraH4If4dP8wzo9icm1AgJQUqSn3Ftq1+ZduhE1ozuGu35UaGERu6kqjJ2O1NRqVyJY5ov5lTX/iPeFxNiDW/M05avlegJTgzaAf+p/3OPtZ4dwsfPrCLE21hn7i+UW7BVZD7srOz/zBr3ujPdtuWCzJWAFWEvUIB8Xe0Lp/ALkQ9f8wVE1aMsUPBnzb51bn4bWb1vHWMa1W40n1ZSNiX1W/0fYXj/ANe4ameUz/u4xhj7tPB1y/xFaO1foFGCFePI4ea8HPkjXtEqIPvgZSK8FyEWC8I2KFq9DpowOtncJ3j6ZoFhf8yTQ0NRu0q+KaxMFyPArh89t8eyyqRQhp/UD0mwJUUiJNA+fiG8TjDfyVk2/XY2Z0Qp2Q6RzsGTUFPlpX6VpWX+KagRSNlBmNjx/sTVK7fwc74POw6d7akdC6A6++VGoSDzs8CzS0flRU33GYSPzLr/tHJJCNJCmNZ+NTS91GwLej/e+0VvrhWGpt36AtL6fcoK1m5L36bfwkFg8txJegn+KrH1amzkD4JQgPBDUEVWod8zJpW+s7QztvwfboIoK1c6Qq3ulUF1Fv4PBdMn7C8wCT3Fna6iTtImOQwQ8JU1RUsLhlWMAYtcjNQ0f4mQ4rFYmSowFWlb+2NHcvzdkgtRLXk2KQUU6mjcSnviQ2v+F7X3TGSkoe2RJ+YojzweBQ73b/AI2kHT9R+9MD0zSYWCNun9/UYdJve5Vdq4or31aP6u2jy+UcTJrcfhkak2aOsxFeuROC9top1kvOvspCP6UG1/dE0Y2R2uxHA5zkhEAw24ArFkxXjl+kufFE/UqZlKOocp/GGuo8WBqzN9lgDDsWuvhqHOzTU8UGB1BIoH+87pcVufgs7lqgHYsWzBMhHUVAFVqA1+7J4ptNd3LpCU7/J9zDygS4hSX5gn+Hxev6a5Fww+SQJ4Dt4Fr6Lf8ZzXCqS6dSCrQcXl5c2PITxClVoPU6pwbuWkP9I0leEycZLAN18Q3boLXznpkWbBLuIRCvl4nZ6tpSa+qIKS3rGoTX7JRejZlQUiEkArbTTla2eCV/yjCkmlwPjAIrW7PtRyf59vCoX3eW4rUKT/Mo1MoiJDReZDsBBjSwtL/9397k4XZ7mXUR2Fhff/59gsPE9Oxf0wRd6ZpCmTRtew7iQC1Ku+FL6c7Pynki5fDFDsQtgXAy+c7PRmn1PNF0XU6aLiJXdhB5y4b4vuv9L2vzF8olh6qXVNYsLizFlzNnoOvJxLHExLAViFSgv9d2O394s/KXslS1Usq9DC8Ij8bxM3t6xrGTZRfBAn87UeGB+3r+Y5qSvdxExdUvFcGi1vaqstMG1mU0iZUyHLiJl45dNCgRbfPhdjo3kO8WeX7hn/qivUyxPzI6bAkpdja6L/9BXUXqK1oudbkq0avibg1+i9aynvKbgOhnAPOLVWbneW2fNG/eVaQar6wvm4oN6DmfkN+BS1/X4QHr80EzTYTgKdCeAluFf2LZ9Y3frU2m5HmBYt8nXggPspfGcZeSaSWuG7PDv+H2qlB3dyrbmDt3b+NKzbsFOiZ19qoCmeT4w09hvMaf22zV1+c+5VZTWLiLb3IrO9Xj0/QRUyH4WESd0EKOTguDmWo842Z7bpqcAjj+n79i04Xbk/pruSpAyLdjdZTC1l2NAgxBX4uTgA11B0Tc4Mc3vPXP3b0L/7Mocj3U4DqS8vGQKyXCOBfQgIbQM/8ZxwGQGUOriitJld8QzC83+HYhfDYtnGk7ixj0g5+r9hJMw7bfFviou/Xbbp8HXiRTQV3rtR8qLG77jVqqp3IJdXrwsH7di+jt+kylbucZPbHNW1mDXTnjc+lwZT3wEsEO9smK874fdxc4+2N3JOFs+UFdQ1m9X72Nnd4WeKN1Z8F1b37uo4BP0zz7H8ooTUNFetWsNX1HAfQFcNdLTEd3rfszxj1F3Fwnf4SwOSV17mm+YLdVF7kaNHtRS7sBO2ei2yxizYdw9RJdDt2C7Wx7GlnQBTN+IueOfmnHSOszlG/sjVQc56mnvbBF6CmNDBsReyvjFgNte/G3WvENb4pcCY04lARw7LVz5faC7riJ6yifs9flwR0CNwM6uFn1zfoq+mzfW1OcbX86tXlj0MvqZ5i/etOxyJexbkzk1mDs2fTsW9GqWAl+OVHrcMN43aHPI/n/Ik2stQrobA4ZQvIP9ir7F9wZpya8xaHIIXg/HfmY46nhH4vVA/LnzCIn7rxrva9Anpu5E2BrL9h3qR6iOGk+Hph3QfeUp/G4X4T53/0Kr1gd/eOGQbZEuLXqH3NK4dZBq2jFISetIoezvYU/8fWxfiBzkdlGWj2bXjV0yB7Cmj77egp320/R1+8GrwwMtm/UsN5Mj369uN+1lhW7B3r69l42SsDqktj+AZPdzNWkMRsTPaS32SRsRr/7bJKW12VZqAO7QOBS/xSGYhGAvvc/CbyeqbpvSw+4hrn5GBpHhM9uOoy2OQ9gH69ukS6W7QuNGZqIf3uvjkHEDaFfZQTqHNn29YQbW7XZF1dWEukq8Ly7Djg6X7EJ/n1qy9HXcYOb6qkUFr5o4tN16tab8lNWPq6aWW3A9EPN9uvvlMMkXw2SGwBZb3YqSHBhzaVpbZZ/Gwf0Jb/ageT214FRe9FHuF59uOhG/kbPxXUYlNrbptdCitWezLXQL/Bkxl6N9BHYs8ck5WTmDb4IDbsG76zELe/fIo62rh+7uoU9E3sVf+GT8+tPXDtzWuP1MnJScj4NEiW4h0WH07dJjrTzpePjITAF8T07HIOWbULrbMq2EaKy6XKnQ6a6US4o1+Bm+KCzPwuF5aknlswU7eotX39xn5Tp5jLDs76Ey9UNYn4IwuzcSSPlJ1YKCV6rb/c57i5vr3RNAxfrp4SOHnVv54IHN3cWqB8e/tKVhHzvoOVQI+1hUuotxHDoOJ1ExfWr4XpyDNFnB7g4+LsuV+H4oZC/BndeetjzWjVWL8t8xSaf6+WO+QbgrpxWvrA0Kv65MlJrEwzDJE0DfQfwGU+ehp7kKBP1XxJ4j+bzHq8qrFhR9Gk1cbTu/p7AtLmuv2s/fgu8z5heNJmy326DlblqJb9yc+oLl3W7jYAUut+egRXC8yQeGluv7MZZiuoPkOmx6xzOH6xFmD+m/shNXHCD9wSvxvbkELSExdQ/RiQzMyt5vxyB90TK2h72psRY2uJNl9I9cK294YIjVGH2Irrf81qgjm0V91+v6+lKcbN5SPmHpq/rqZ6ZYoHFpT3tHix5IFtsDFWtLyZuq6wufcRrR1PsKAgizrO1vjm4k2PDZxlNwRfKctkaCbB0nWr0fTb2TYHm3Z1i/m3X+4v04QRzZVBXvRHqKX4pAT5VrHbSt0VIfq/Sf3pPcMnXCikNlMHgtPkscDw0r2kqNm1HiO3hWfcEHiHPngy3YOyni9wI7vh9hgvJTccvpP3s93ptN57Gds3jMGuQSt65edgbO6O/C6wPjl2vGnMkCwaD/FlRswwcGw3JuQ6tqWfXigkcNw4tZ80Z/hrD/jZkQTlW2/Wfs3IwHFAaFqkRcrrRyBQOb90UrVY7jculLznk5NzgO102AmhfH/hurforuJD+PZXBjJPo7F4yOuYKr48LMSbrC4eiR5bG33zv36NjTn+so2Q4b63mwQ5l8ay90aVIh+eiMk5aPiWVWqw5oSX5j48ptLPsFnE3iKpGcPvy4ggcrK9HM4cKjrRL3JKJ68upJvhHNATENeSxT0vuwC9G7GgX6hPur5o5KSKefpFauY1CrXTh2HYKXTS1u0Cdfusvk7lcnoogfO8Up2Oy37TcNX35sv4Cv4ySgd35KXBYIhdahRfu2WAal6L7dI0budSTOln+BQVOxH7TiVGRGm5oCZRMbjkLOfmyaO92/2PJ4JsZSuW6fdniaMctzPA6E69svd/RaqdMqSpcWOgrTzca41LhPN6t6WazeaLva1Mt2zla7Ubl2liK3TlcBnBju428JPYJn1C3T+6GvcOESfplpKfR+yiO9J+JeEw+4VbnunJeZ8wvW44rVL7Jy9ty3tm7c253X8336CNQuLnzBY4nLjXOs1KTOYVnB7iwS7/foc4oW7Zv8zZs/mFq69KrKKWuMWhH1WTR+2Ldl52Traf2MWxHjXVzGn4ICQXEbDsBmv30pt3i81sTqRflvuFkyfXDyZFvoCyd0q7bRw1YSrV2xP+yQWQUbFfMvY0+dMcRLIHMHOXYSU2piW3/sTivS622wJXAVWobNBmBL8TWuFpfOqR/3SiJK3dO4k0SkzzTcEaiqK3oc9SnTTmi7DcI1O8i6U5Y+Hgsuh9ti5vqNjWvLi33nmbY46MvsmNbvx9Irf4jWbFf6oPbxDyajiz99wvICfNeMu1Jg51M2Z0HBm/FAqpqf/770SNw10WxiI5TrJD1Xbqx5U1bIrKuKEiNiTZvh4yeQKbdKj0ZI98fGFJYnRLNtKm6jB/ti9qwrTPPmkaICXTF9puEZru8KYCaZv5iUHteMdtv/cx5sE0l3wxxoC/uvZaU+X/n4hvGmUdcsLHxtxHEFhVJ6rkBL2lem8TBcZgsEg/bFpiXENef5NXWFuo9a3B41iwpfQr/BP5kmYEv7fNOwkXAeTNcVee3kGTvYsWUTV33LSRhuS4G4COgpJkPqsYqT12BqzOgfqTIP9pZt2zDOSOwRfc53bYlGgOd0S+SuJXxFgegFLNtrdmKmVP+KKWsGtE+Jd3Jsr5HM1xiFaofUwqklDfMrJqwYY5IV3c8M/bPvH+SRh6I1eyYqREY3tDBJm2FSX0BPN4WWrbMNc9qM1uUKw7COguXukfUz05NEjOSfYno1KJJJ1E3+E3nt6Fl3/wr6OwxycRSeG1PARQHMijDcbtrxmJ6aLNpoU+VOjqgk62nPnD8wJikrJ6fceUCGoECrgN3PMtv/6+Bbmzuc0LKLSKp9q9B/LhQMLkdF+2E9TZdJ9n63qGBLbX3hNRiIdgwq2gtM4mCYzBNY9YEsNR2Rb1nyiepFhR8mQmXmU2M3o4f4gyZpodVr3+njV3zPJOzOMNL+fOdrpy9wC/fyEt8vnAbj9hSIhwBOqE+o3+j7dTzijlecV09eMRi/4wkm8eOS/P9rm53IJDjDUED0s/xRn5B25pJ+T4fZp1jB7iyUEu9xsVnhRhP+4FrcyvpufZtYk2zpebdR0Z6Emwj+CBXtDvMzmsTHMOktEFL2CaYlQIX3PtOwJuGyPPIBk3A6DMqJGUnMH96swZ/j6g+m9zJ74Bbuv8GUT8+ZniCbpcpQGS+AaSBNyoiW7BvLSxpOMgmbjDAt20InmA5utLLk/cnIM9PMHIHGFtWhFdpJyaxcuaX99uyD3V4jxV7jUncO/q4Jqu0flJX4/re7+933lu3qxYXPZOcMHoXO+zcqSxpXHHpLh+tTWwBnbT8wySEu176t+/ibhDUNM3tBwVrcueF1s/D2f5mFaw0VnhFAyudiiQMVhFP0CTKuRN3DinZskgzdJqDEg/gtGsxwoKStxF8wwHmftLBUwuz3K+Vb8RqAnRZuzKQ7AkEx1jSivKycjhVstNTgfz5SWkCpQUrZ/9e0ab2eQ/sSJ33qIuXSlYaa+oLfmt5NMhIPn9NTINz/WgnDeaLlE8kotRSW47uu6Xyixc7oRKJ9GTHHfMxTX+oTZFyJulr5A++HW7SLl52t7wLXPh2+TpxAuk/Th8q1f5BlnYmrkW85V1PDcA+GRyorDafndJ6gcQgM+jerYAv1tHGiDEiBXQLn7nrp4BWmsG27E+/OQLyT406K1H+h+5ei+vCnuk0NP60oWXpjVX3Rs6mf6/TK4fpXfPNwpzrU0dx92FIdqGt+yXqs/sB7oBB+s8qdZb2RlHxb6g1hcuc9JYboO6zpm0CY5tubPWheoOWbTfjNGXXP6pCuntEBLdpKhE5Z/8nGLbij61zhkQ8m+qpAhzz1wTeZcCdHPb6mrGTlSUr49W9yP0cfo1LFG17x3YgwtzkKl8CN9QBldGcZY7KrxK3QGxKY1bRICvuvc3A8M26R7b2QngdqFucnpQGm97w530LP5GaHhFF3KlwhXtY5RVawO4ukw3slRqHe8QwO1Euk5bne7Zt+pANB3PKIQaYmO/de8xOXSHtNdecGQREYufONoxdS5Q6w3nQUxKWNB1jZDdvslhBOTBwPOvEHbJxQCOMKtr7iU1ayDJWR0H0uFac1Gn01SojLRFBdhvEVqzHj95z+Wdl/des25q7mlZGlpEBN/ZjPcTfWk1RQvIorJIMcZVKpSjTOLEbjzD+7Ctc6Td+2rlYlZNk1Jy4bjt9HnkliHq/HbHo1k8TSJ8yB8NT7wrg8LKkWxyXiJEQ6tXj5aBUKPoykzXp1KLnb94+DHJPwQbqVJM5Oj7VDodfRbeRv00pXHuZWvIwn8wTQujPSsFTv6lk9DMPGFExXOjFd3xqTSGzpifmgUl037o9IP259z9Fad4wtVO22oP9ztDLdO6PEd7BJWRkmOoF07yLSvpQ1Cwr/ZVniLFQFHF3jQWXLawv5qJ6po318kdfJnqav2VYHRfLi5Blduv6DG8uYT6/mJDFum1ECM05at0d5ccPPMKvxG/h9mA9wlLt3UfIO8ljnbLGyOkwtklF6faQw2dLLOa/7yGdtUkxM14XuRUaPpM4+gx3ex8j1MU5zruzQt52G6bw9DtqqYvyyy0MhG619qssKSecwRu9bW7WvDAg1HYMin7GkdXd1Xf4So7gYqM8IYNrMRbhB2Q0Yn3Onk0LjxG5k85bATIS5yEm4hGxrWwfgqpHjpLB/0/sJPigQlYAe8IsxCcdjlo9Sf/M3+t4QA6MK2M1GOFa8W1VfuNtVIa/u09VNGC6mAAUyRAATP/Y36QOOgVVfJ5NAKvU1KtmOH2h57nBHLccRtAXQg4KnTfSdGAyohVgU0064tzyg4qOvKE62VWgyWrTf8Fjen86pG2c4k0pvqfW99ZnQB7vzp1ZTV3AXuhoV4LvjaGAWflMXlpUu+1tNXX6Ms+V0zlFs76WwBxv+3pNylS220jK0ywKjykqX/joSJ67w4zAgc9ANLw+v+uH9EHSpOgA9QA4IBIPhBhM7snHMz/LerqJgF5GuVLiMAhkmEN7JGJVJJrWCjR2kWfpS9jcqbheB9NRfluU5BXvrb7pYHZdFqGR8L2gH/4lxFn+tmLh0/7gkwkgzQmB4f3kpWtBWOy2Msu37OncVSfqt0m3Rz2k52rZnQ6EhXKYEw0nmEcoWv4z8oUHpF8JWP8Py6cpWl6ByPRllHeP21Uj89laUDM3vcqwOBzlmyreL5aBADwK6gm3SMoSd1KYeoo37KlRq0YJtknPb9EDdZZl0lw3MZz1O+oOPY4dd1OVGcViIVpfzQgFxGvoInq/ns49DEn0mykzqg93+Q6t8tmAHZj84Q4SkD7+VPduv6/m1GtG8NfB7bHN5ZDvdB3v79si7xD+bXmnDHiKuLdi4SvAafvfjHItY8vTaukJ99YuPzBRo9no8V5w9V3bZr4kt2Jn5obNUFOggYGNS6Q4Lon0jRSDaTeOynUR7hMEDVwddbzyoeXHsv4cP7XesZVn/h2Hmibxh00AgPDW1dOmvcJBH0nxQoKMA+mN/qDzi4o5Le3+Hr9OlZeMbTuh9y8RsgdbAbMOUmg3DRRdMCT1OTU9z6ujPIyxPdAlwq/QTkLhvn3UBBtfuNntIpCxmB91IaD5TgALpIaDEDpOMKqmGmIRzKwzuQLeHSVxSxeeOpZVzR/mr6wpu8nq9h6B/ejX68yXoBAQVa1vcgju6zjLxYBghdB/sTHaoXVT4NL6Pc5yVEb/wkHqgYsoaV8YsOEt7961xkxmjijIGq8V1fMTuOeWSviyAVo4gKs9l1fUFc3tyYAW7Jx2uo0CGCGCH0GhSFMvGwJDkPpzN8xvJq7Tj2sKspwSrqS+qyMuWI9Hq9gv8fRxJOr7Pahpmjrgyvmkw9nQVGDFy2HX4Lq52mP8D7U2N9+gwSe+DbdwQYHYi7tCJm1MAAnIzmq5PRpe9LvtdtydiBbu9Bl9TIFMFZHq2YOPuWEYt2GiqjGsFO/I10XeLrKkvvG34cQUHYcd7Cio3zzidmzgSV7TPmJbt7mkly4+Ldntu1yqQqX2w23++lQ8e2IwuTOdicLCjK1Zo279samnDWcmeB9uShleelNl+or0dX1OgNwGMCXo6Ozf76Gj71ffYT/GaKZ/m7dj41WH60pry2LYnkKWClq08mDsrvCzktYNY59HLAgrr9OtsvAjZXiwL6OWeHBVoUSo3K2j7PXkqq8VWLR5bZXlCyvbn2dleWzV7QyonC3/bQ2pH1iAVGuC3+20JqgE5AbUld281qH9QicYd9og9m9T6ffLVkWuEenuUUJWV0qh/Zm+IXN+HBaS4FZf+Xb+UjJ7EP4BqadJkpdhgUir00dwnaXlGwuhLPUL/6/QhpfWV0zCxbN+2L3oBcbww46RV+wVbAhdhwNn52HN+J5Z4uwyLO1sGRUjf7vrYLtdzYZ8W0FNLlpf4rsJNjO53BKHEg42N8nRHYVzeGLvejUZRSpnsK21G2Y53IFQIXxOWqo9XOjhWxu1GXPHKs2G8Ky0hb3Y60LzHCvY9c/dvqihdNsK27d9jmpOjgsIv0A8wPA18KDxmst17nWsss0Mt4fwH9Xr8hQKt75uwqb5KHQ6GOPzhnovbRFAvx59ubgo3OYUwExZ6YembtW7T22xfL3a0/eTW6+d1Da33P35ZiKnFS7Gg/QM9L4UKJ4Ez+BAObnpEEP7BcoUJW8Iv8Y/AO/0fBlCF12OtfsZ73UkPa6TdWsnSMeCd3l73gAy/xXvEp7dDWoizdX14u3DFLPzK1ivDcbYGQnjEibj0/zo8cq1ftm3Xmp9wXDpqpK/Xt8bRlgeED69vnweUSWdFZzycVjhyxIuPIRxjOD/6PTYRrXGKbO9NerAWtuGjC4ERxxXeHI8TN32nKHyBklbBxp0cP9L3HHf+UKNrr/BlTb2vIEF9jXfl8IkpylO/0Vdokmv8Hj7ZFVNiX82aN/ozpHir/qsoXVoYsuWF2H+cj5+hWXeXLrOvflg+Yenx1QuLXu5yNRf2aQH0Df0jpnj8Efb8p0YNoVR/IUOPRb19PDZU4lOTaLGPGKX3F93N5mASZ0aEkWpJTV3RrzKiLMkoBK4EWZY8u3pRwfMmyfdYwdYRVtXlv1hZqRasX+K7GJW2X6M6t49JQokJo+vRorVMSoWfwwdnXWdty4Cuauq6bfiBp9ZXbevbFuulrdtFNtu5YWuwtpWRzSOx7wrTun1kfVugSKqIu92a8Ka73reuansfXteWh85pRt6HN43kANvuCrrzdVsM4SevP3QnXvy7dRn/7TMCWfJDfSJr8Mhd9YGNuUNFg0HYmILUf+M7Bt/sASaRYNBT0irY7fNbVVek3Rqum7jqhsZg4H8wiOtq/EZHtd/G9LUKhmeNYAU7SsBMvNFMT0W3cvtfbjc3/guHiqE9bdd+Hbb9Vvv3iX7tycn5JNTc2ijnKG2l+r28cdXhCLPGUThuTIGeBPC9QkvnwT1t0tO6qPpg6xY99Dn5Eya0PxTTkvwSLbpJnCmzp+JwHQUo0JXA6JG4lbCURlVsdAj7Xldxxn2ZLf7LNA07L/sj07DxCHfngtGNulWxpq7waPSRPQOfxVsupHO8C3H0mSj6Qh/s9h9m1QujNmB2zvL2y1L99bEDjlmPPBrNJGJbwYJULx/zl4YCSt2BqSzHmuQ8qgp2JGI9oT0OEreKrOyD9RRVuAwbjKzjMwUokLoCuosHehMtN8mhrdQkk3CxhsGVnlNM4kADwPvVzx+Dvmap99DdwzDN31OlQwvGYkDXNaYnPbpkuFh1AO/ymHqfcSrlSE8jhu9ccrt9OADRXTxQr1jpIMjOTXG167idb/ii7wnoBiQpP+jqD/XVL01BcBzKQQfjx02msnRUwY5ksGbB6C/1FFU4kB2FP8y9yQcFKJDyAqYDUqQ68epJPgw2TNwDs2To6e8mGqUoVefBGUbRxDOQrkhU1xfOxBXB8TggGE2hqPOHkeXJuboQTxzG7aqAzMuZhjE4umU4PR5S+kwyihFNU9AVq79JWIbJAAGl3q6tLzykq79BlnUYjifvmpYSXacOtTc2znYa3sJAwRunFa806hOIEZXv1iwunGxZHpw5yjedJs7tKUCBxAlgZo1XjVLDrBXNAXGhUVjDQCEZvBQtB0YNALgs/oZhsgkPpm/BjpZsVIDMHmi129ssJEP1FQF9Nccj1PR0KS8u8pjWJQY2hgJnpUs5mc/ECfxuUcEWj8zCDDlys2mquGJ4YXmx7zwn4S1cjjk+JPwry0oa7p5x0jqjOWf1QaKmvuD7UnjOCTfPO8kBt6UABRIi0N+TtRC/d6P5oVGRu0zPJpKIjOrpQTGTzqWmaXm8Wc+Zhk1GOEyr9hfMMvKeYdpRD2AzjD9jgmX6nRx7+qCqFhf9Hcfmp3raJlXWebO989HaqGfScvzASfkVjgMxQJ8QmFM35j1MMX0BKtmoK5s9MBPYHCdXczHYPjxhhhdfzGv8Ld+8N7W44QK8xnHY2QM/CFWzOP+JEUP7HSkscTX6vGxyFgO3pgAF4imgB9rhIGs03RD2EgevWCf+N575i8TdtGn9r7AP2ify3skzuqwtm71g9EdOwiR7W73vRKv7PJN8YP/NCrYJXB8Mk+XxTMNxeWuqF33WvHFfIY9GV6Gw3/hBeenS81O9jMxfcgSq6ouexe72bvPU1eCmgKqKNrxuwd5VmVYClxvVQ+WlvldNR01Wzh3lr60ruhd9XvRAyN8iI0YjgqMtALejAAWiF0BN7vHot+60pVQ/rxi/7IhOS119Wzax4Sic319rGikqq3NNwyY53AaT9DFw1eiqo0laDJPeArMXjvsPTuRuSIdSoI3RuLUds8Xcc+1pvmHpUE7mMfECYw+xbsRxosE4ZaUm4/4G50QTvss+jvosELdV8WGi+qprJq0xukOS7vOCgZA3erLEYajBP4QCGV3yiaYQ3IYCFIhOYNzB4UHJn0W3dcetsF/IsUP2w1dPXjG44xp33t0w3jcIczs/hJN8064ozd4c6wF3cpPoWOyDjFKU8mujcAzUJwVwX4tatKmZjcVIoJjKyn4IV9uMphXF/mNYY6N9H+7f0WX9JoHFYFIpKKBn1PJ65QWolzaZZg8ncbOiOYkLdxHpKhEcTHHjc1HeFGh8D3ehu8L0y1q1oOjTmsVFF+Em6uNQoPldpcVlFKBAYgTC0/VZ1kzT1NAXO79pa7Aump2LkzTKT1m95xZbLURXlHFOwrXfFlfMHm67vNx+cUyvsd8L37AqpkiiCixHRbVZ542kMGr57hwN3/cNATR0KZklynEsTukpdvVMZbg6Y3w1CnWXM9a/4nvItN7SN74NfbeUsxcUrMXp142mAjgO7oWTuHt7C9+xi0gXW+OLOhQdu2vXv9zw5rSJvu92sUlUi2oXj1uFivaJlkdOwI98RVSBuBEFKOC6QFb2oPvRMcy85ROV4O2N9kvTSlce5kbmrhrv+7bd1LIIJ/WFxvFJEfJ6rRj61nWd8oZXGnxoYPhjPLvG6LixnzUqO/qcf9F1zrm0s0Bfu9FM5/JH3tcsKPwXfv+9Vg4i2yfr2ev1GjcEhPOs1PkbXvE9mKjB2clyYrpmAjWLCv+Auug/zUKHBy+eV1a67NSewju5hFIQDKjXp5Y0PFA2cZXx7VSrFxUuwo0W8i1L/ASF+7inzHEdBSjgvsCseYduxQH2lzHFjNt9h1RgNWYfqsTsQzkmcVVOWZNdXtpwU7Ot3oml5VqnjRa5+3SrhEk+ugszrcQ3DhXf0WhguDQUsteUFS99EeX9yfWnrx3YXRiny/W+NGSH0FJn1i0G/dU/dZpmX92+L88i0vkzt4b2r8QVn887L0+l9+gz7kMen4glTzhp/8mK9+2VFaW+4ljiYdjME9BXc5T0XG7eFQkmyp4dnvWqGx6Hlz8xREqJi1XAf0Z5ie9XxUPzq/QNE7qJu9vFumBY+QgOzHMD/i3TcZecn6PJfc9uA3AFBSjgqsCIYwtr0LpzGQ5AY00jRlhdsb7Z37L5fMyn/6dsaT0xq77gg97iq5i07BAVtM9ev2nHJXp2kt6273293Ny/v/xV79s52yIk7HZzniq905qE/E7asm1rMyraz2FfOM8j5UorZ9AanLS0OIldT4kaaNnyYxVsuRnx7O0kbGRbtF5vz8rZ47XIez73LMAW7F0+VXNHbS8rXvZTIULmg553RRe3V9KSNypbTMbvLts0EZwkHxlSdj1mSHvcKz1Vex039tXKyj4zJqyorNRnPGjc1HyAJ6smPGuVaQQJCldbN+7tstKlv8N3xKjBCcfAkU2bNtyA7FZ2lWWHFexIFGowbp/8h7pNvstxx7Xpc+rHvRJZ4+S57aB0F/pfPqCaW25ERXsGwuc6iYPbUiAdBNDfS2LgcMo89AGmYsKKS0Kh4Gs4ePWLKWOtleTb/cq+HVe4luMsfDkqoxtwA5UNwpbfoGo6BCfQe6OVebgSclzIHzLuZ91VPqVlTb/r2fyNXa0zXab7bqJ7yLndhM/FjlXf0OKsIPbMsvmbYFlxw1p8wm+h3BtRTn2FYCvWb8HqrZZCO5wU/fC3h22rg9C+cESgZfN/tZ2gdJNEFIulmOe0Yh9FrL1ugkqPxF3zet2OG6S2gJ5WF9/by/HbHJ+qOcUV7w9RQbwJv5U7Y8+jOieogudseNn3VVlpw7M4sX0Ju+UvhMfzpSXUl/2V3discnJbsoJ5KqD6WbbKk5bYyxb2SOwjh2P7tHtg/1OCVtaSRGc86A08ijSN71CbyPwOH9L/1vWbGs/E52s2Dkap68tOXPFgzYtj/9053158Z8y/NkodHRTBlzHbyKNej/dnehqgzglE817faQrbXV8xceksOyB+gyb7n+AH5aT7SjTJcBsKJE0A7SXY16XWo2rh2JWYjvMCFdJT2zmf+77L0qB/NsoZrkDjJByb4K+t4K1PbW+6DGyyUN5dU5f/V5OQPYXZ8KrvOGR/3562iaxDidBQoY5COY/Sy8IlbFdMfPStC9uWtX4R2m0QicjhM4arGU9l5jCpDpujch175jvEmJg3uotIyPH11sTkLVmpeKysaUEVeCuWFuJ4572mruAuXDH6LuoEU9xICycUe6Gx4xLEdUlI/zaDttBfi83hyJuEaLsWFW4PSaFGETfKzjh2F9BTS2PavYvxHXgdXwfP7lv0vATfoDzhD96Frf6785a9DnLsHKCr99jdnhcMht7FYKCfxTKgIDLjiNeSY9Cr8vmu0uIyClDAPQEM9HgS7au3uBdj4mJCV7OFpcMKro9LirZq1z0kLinEFqmUn+w9wHyu4NgST8/Q7CKy++em726Hs787dl+TWkv2GDAQd3aVro6xSK0SMjfJFKiqK2rAlUfzQbVKnVk+vmG3K0HdTtPntLA4KxyAlpo7lq9Tq6eWNkxwGr799rMXFbxVu7jwVK/0Ho/Lqq+3X8fXFKCAuwIYdPxrVFb/5m6scY5Nyg/ysvqdazIGpLec6cGXaNDXXUBS9oFeGldVPluwI2UzmIIZ4yDHrj+UfkNH3I41H3W9NjWW3vHM4ds8HutMPe4gNXLEXGSaQOvAX2nUC0NbYKzAHzpP6+pKC3ZHaHU4+lIvQF/MJ9E/e2THdc7e6b7dtfVFP0A/qR+hArDaWWhuTQEKRCOgBx0P7y8vRAvRm9Fsn/RtMMWg9IrJ98wfZT7VYA+F+GLjjhPRYJDCg67l8zgpSkr3kB7YUn4VW7C7/ojumbt/k+Wx9PinlH5ULcp/R3mEvg067w6d0p9UemZOD/xFd4/rTHOPLkxHfLHEN7V9eMNBju2j6OY1msxDInhSWbHv/7JyB90Ry2Cc6sWFzyDzz04fv+pQJUOO+8h0k8OELEZ2raDw/yshiTERChgK6NbQ6yauKt0e9D+B39rJhtHEPRgu4/0bfY9PrF5Q+G68EkO3y5TtHoKToXdzs+Tl8Sp7JsfLPtjdf7rViwqeR6PYU+iLPbn7rZK/pnZR4dPoL3scxtj+I9oxEsnPNXOQLgK19YWPYUxhOb5bx5rkGd/L69GKXYtJBMI3coptkGMvOcDZQJ4Q9q8xYv4iTMh9FQYjPddLkG5X61Y2rER/sfR6oLIiMUAjvTLN3PZJAT2tEnYOP8Id0O7GgTYFW7Tkq1ZevylVL4yK290LK6asGRDatOO01pGKqfY1kGut3H7FM+NY/lQrMfOTOAGPV11pB0UJKhd7JC5V5ynp/rJXT/IVNvnVP3Bh/rvOY2AICvQkINGKrcyu5ir17S+WLPsxYn9IpxCHLiK7ZxyVzIOUHXoW81A+p+fA3X0LLqEABVJBQJ954yz+SvTxPRmtxXGryDorqwxYlvz5iOMLjo9n5Vrnyd7UXITKNRoGUuwh5fJcK/eEeJc/xUrN7CRQQE8ygKtDP0tgksZJzZxfsD47d/Dx2C/8xTgSBqRAFwI19YVLY7nBEeq7N+iGVR11gqfCU6fYAftfaNG9tfI0X2xz73YBw0UUoIA7AtX1hfNkv9wjMcj4VkybucWdWJ3FgqtWNv4ew+Cm0dV1hbfrubudxeB865r6/HrLssagzM86Dx2XENtwsnNN6dCConvrjv4iLikwUgq0CVTVF9yPykV9OoDobqfYL1yIZsIp2E98nA55Zh7TQ8Drzflf5NSorz8q10dMG99wti5pgivYaHjH3d/w9/MN29VazDZyVnpwM5cU6HsCen56DDL+Zd4e3gNwAKvEIMjNCVGQIoT0HkansCPRmnCeHtyUkHTbEqmuy1+NVvzTPZYoQkX7z/hL/GwdUvqR7iNZXu/hONmZGY/ZUhJpmgppcZBj758CfncKlYvL8N1Li5uE6BLV1hX+LW/o8CP0VS40CKTESSiaL5tgudDyqH/3rs4tUk1g9oLRH+Hzu9U0X7aSN+sZReI3yLGXnGGU/v6Y7H0ubrFc5/F4ZiT6INpL9rg6jQWCVnZQisY3UqkIyrL+I+2Q4zxJYX2Q7HLMfGqsrljfgtt734PxFDMwGOJinCm7cIvzTiXD3M6oVM+zsqw7q+bnv99pbcLf6r6eSLQB/bKvVBubTsc+62xc+DsBZR8Uj8xgh67vSfMKnv+as4fnb23u8UgqxjitD3BbUkff5dCgIXG/+tBboXA9ZAcqPo7yreNEn2R3TyylQFcM5/nA9+Kj3sroxnpduSgv8V2N7zvmno7iYYkPo9gqrpvomVCQwO3YR90VaN6MPrAKd6iU6J/t0g20osg9Pp938GVZaFmeed/af8hLlQ8eaNQC2lVSuHvqx5idzfF3t6u4ErEsEOzvN00Hg5H9OBl2fmdeKfQNC117DD+u4He4my/GJMhjnEaKfcZeX7zsu0SWFS99EQfMSU4jcHd7Gcgb5P1W6h5QzEur++KgS0zSDy6REnillT+nvmB55D2fKWAiUF667Bjc/2wy+mz+EJXCApNp7XAp+nMcBBej1eklDAZZrG+LbJKXRIZBq4T1xZLlRwnb/h7KjFvryiPxfDgqbrgNvL6jY3QPXZlGuPcxr+9q1AFWK49aneeRS3Xf0uhi4FYUoEBPAmUlK/eVIngmjsGlqGh/F7/P4T1t73DdZ2jlfxsnSitxm/U3s7Ot1/nbdSjYBzZPkQo2jkzWwGFz6o7YlGnm+oC8/uUGfSfWlHiwgp0SH0NGZUKfRF5Zuuwg22MdYIeC30bPs33RFDtAKoXBgjIHB6JmtOw0okK5HRXLzzzC87GV4/lw1rzRn2UKRNjg5BXDAqHQ3jjhGCRCVg5aeXXZc2xb+T0euTUUsrZZntA2b5Zn29ABOVv0LXozpfwsBwVSXUDflwONAjghlgdgXzQS+6fh+H32Q2sjxoOpXLzWd04P4IQ/gBNm7LOEHnuyBdtuRj/vLz3C+tz22J/tkTvwY33jm1QvL/OXfIG4TtOX/OIlPwc33yxUWUny88EcUCBeAqg0o3FI6K4sSe/OEq8y9hZvm8FX2E7/8UEBCqSYAG5c9zGypP/4oEBCBBI+yDEhpWIiFKAABShAAQpQgAIUSJIAK9hJgmeyFKAABShAAQpQgAKZKcAKdmZ+riwVBShAAQpQgAIUoECSBFjBThI8k6UABShAAQpQgAIUyEwBVrAz83NlqShAAQpQgAIUoAAFkiTACnaS4JksBShAAQpQgAIUoEBmCrCCnZmfK0tFAQpQgAIUoAAFKJAkAVawkwTPZClAAQpQgAIUoAAFMlOAFezM/FxZKgpQgAIUoAAFKECBJAmwgp0keCZLAQpQgAIUoAAFKJCZAqxgZ+bnylJRgAIUoAAFKEABCiRJgBXsJMEzWQpQgAIUoAAFKECBzBRgBTszP1eWigIUoAAFKEABClAgSQKsYCcJnslSgAIUoAAFKEABCmSmACvYmfm5slQUoAAFKEABClCAAkkSYAU7SfBMlgIUoAAFKEABClAgMwVYwc7Mz5WlogAFKEABClCAAhRIkgAr2EmCZ7IUoAAFKEABClCAApkpwAp2Zn6uLBUFKEABClCAAhSgQJIEWMFOEjyTpQAFKEABClCAAhTITAFWsDPzc2WpKEABClCAAhSgAAWSJGBJKT5KUtp9JlkpxL/7TGFZUApQgAIUoAAFKNDHBaya+qIKj7QmwcHXxy3iUnwppRo+rP93cCZzjRTyq7gkwkgpQAEKUIACFKAABVJGINxFpKq+YEFNfWGRsOQUIeTalMldhmSkcu4of3V94cw9Bg482BLWr1HR3p4hRWMxKEABClCAAhSgAAU6Cezsg61bWmvrCv9WOqzgKFQALxVSftJpW76NUeCOZw7fVr244GaRlX0wvGfD2B9jlAxOAQpQgAIUoAAFKJBiAjsr2JF8nT1XhmoWFz6QnTP4MHZriKi4+1yzYPSXuGIwI8ubfTj6Z/8VlW3b3RQYGwUoQAEKUIACFKBAsgR2q2BHMjJr3qEtuluDNazfQcISN2Mw5NbIOj67IzB7weiPahYXnS+lNRaV7HnuxMpYKEABClCAAhSgAAWSKdBtBTuSqaq5o7bX1hX92iMHHoRK9l1Y3hxZx2d3BKrr8lejRftkr/QeL6R43Z1YGQsFKEABClCAAhSgQDIEeq1gRzI1p+6ITZhx5Dopsw9BRft+dG0IRtbx2R2BOfXjXqmtL/qBZVlnwPhtd2JlLBSgAAUoQAEKUIACiRSIuoIdyVRN/ZjPUdG+QnmzjsSMI4/jT0XW8dkdgeq6gqdKhhYeoweb4u9Td2JlLBSgAAUoQAEKUIACiRBwXMGOZKp24dh1tYsLz/V4vePYfzii4t5zZLBpVu7gQ/rfTVMAAAUuSURBVKVl4cqB2ORe7IyJAhSgAAUoQAEKUCBeAsYV7EiGqhaOXan7D1uW5zi0tr4WWc5ndwT0YNOauoK7BlnWwfC9HVP7NboTM2OhAAUoQAEKUIACFIiHQMwV7EimMFBvCab3+6HlsU5Fa+uqyHI+uyPwu0UFW+D7c09uP90HvhpdcwLuxMxYKEABClCAAhSgAAXcFHCtgh3JVPWiguer6wrHoqX1PLS4vh9Zzmd3BKpeGLUhfHv7bIt94N0hZSwUoAAFKEABClDAVQHXK9g6d+iTrWrrCx8bfnzBEdKSZXj/H1dzzchE1fz893UfeOkR+QBfQBIKUIACFKAABShAgdQQiEsFO1K0ykoZrKkrrM0bOvwQS8jrMcfz15F1fHZHoGZR4QqczEyS0lOKE5ml7sTKWChAAQpQgAIUoAAFTAXiWsGOZOqeufs3VS8u/P1gyzoIlexbOVAvIuPec019fj0Gm35XeuRZqGi/617MjIkCFKAABShAAQpQwIlAQirYkQzpgXq4kcovpTf7INyo5g+oaPsj6/jsjgBatJ8sGVowCi3aV2Aw5OfuxMpYKEABClCAAhSgAAWiFUhoBTuSqZoFo7+sWVx0lVd4DkMl8EG0aoci6/gcu0B4Du36/Pvzho7AHNryBgw2/Sb2WBkDBShAAQpQgAIUoEA0AkmpYEcyhluDf4wZMS72WJ6j99o/l/M7R2BcetZdc9AH/o7cQV50zZG/w1WDJpeiZjQUoAAFKEABClCAAhSgwPQJy/eZVvrOUEpQgAIUoAAFKEABClCAAhSgAAUoQAEKUIACFKAABShAAQpQgAIUoAAFKEABClCAAhSgAAUoQAEKUIACFKAABShAAQpQgAIUoAAFKEABClCAAhSgAAUoQAEKUIACFKAABShAAQpQgAIUoAAFKEABClCAAhSgAAUoQAEKUIACFKAABShAAQpQgAIUoAAFKEABClCAAhSgAAUoQAEKUIACFKAABShAAQpQgAIUoAAFKEABClCAAhSgAAUoQAEKUIACFKAABShAAQpQgAIUoAAFKEABClCAAhSgAAUoQAEKUIACFKAABShAAQpQgAIUoAAFKEABClCAAhSgAAUoQAEKUIACFKAABShAAQpQgAIUoAAFKEABClCAAhSgAAUoQAEKUIACFKAABShAAQpQgAIUoAAFKEABClCAAhSgAAUoQAEKUIACFKAABShAAQpQgAIUoAAFKEABClCAAhSgAAUoQAEKUIACFKAABShAAQpQgAIUoAAFKEABClCAAhSgAAUoQAEKUIACFKAABShAAQpQgAIUoAAFKEABClCAAhSgAAUoQAEKUIACFKAABShAAQpQgAIUoAAFKEABClCAAhSgAAUoQAEKUIACFKAABShAAQpQgAIUoAAFKEABClCAAhSgAAUoQAEKUIACFKAABShAAQpQgAIUoAAFKEABClCAAhSgAAUoQAEKUIACFKAABShAAQpQgAIUoAAFKEABClCAAhSgAAUoQAEKUIACFKAABShAAQpQgAIUoAAFKEABClCAAhSgAAUoQAEKUIACFKAABShAAQpQgAIUoAAFKEABClCAAhSgAAUoQAEKUIACFKAABShAAQpQgAIUoAAFKEABClCAAhSgAAUoQAEKUIACFKAABShAAQpQgAIUoAAFKEABClCAAhSgAAUoQAEKUIACFKAABShAAQpQgAIUoAAFKEABClCAAhSgAAUoQAEKUIACFKAABShAAQpQgAIUoAAFKEABClCAAhSAwP8HwjvIYPOyVbgAAAAASUVORK5CYII=;" parent="1" vertex="1">
                    <mxGeometry x="355" y="-125.45" width="118" height="38.9" as="geometry"/>
                </mxCell>
                <mxCell id="31" value="" style="shape=image;verticalLabelPosition=bottom;labelBackgroundColor=#ffffff;verticalAlign=top;aspect=fixed;imageAspect=0;image=data:image/png,iVBORw0KGgoAAAANSUhEUgAABQ0AAAQeCAYAAABysRwYAAAACXBIWXMAAC4jAAAuIwF4pT92AAAgAElEQVR4nOzdTVJdV7Yu7Dkzsg5fC8RtgbiVVRWnsqritEC4BSZbYNyCD7fAqAVG1VWxVF0VixYk6gG0YN7Y8sTeRoD2z/qfzxNBnIw8/mGPgcPKV2PMEVNKAQAAAACYj1jVxyGEwxDCw/997C6E8Hn1ldrmbtsPJjQEAAAAgAmLVb0KBU9zQLj6erPld3sTQrgOIVyltrnd5E8QGgIAAADAxORJwrMQwkkI4XWH3937EMLF98JDoSEAAAAATMBaULiaKnzV43d0n4PDy+f+AKEhAAAAAIwkrx6f5a8uJwo38T61zdlTf5zQEAAAAAAGFqv6JAeF70au/ZPBodAQAAAAAAYSq3oV0J2PMFX4kp9T21ys//+FhgAAAADQo7UV5POe3yrcx/9ZP47ybz8QAAAAANC9HBae56+DiZf4IgebX5k0BAAAAIAOzSwsXPfXtKFJQwAAAADowIzDwgenIYTLIDQEAAAAgP0sICx8cPYQGlpPBgAAAIAdLCgsXPf/pba5+9d0vh8AAAAAmIdY1aupvM8hhJ8WFBiunATryQAAAACwmTxZeJYnC18ttGzHIYRroSEAAAAAvCBW9dFaWLikqcKnrEJDk4YAAAAA8JRY1Sc5LHxXUIFW05RCQwAAAAB4kFeQT/NU4esCC2PSEAAAAADCn2HhaQ4LS5oqfMrX9WuhIQAAAABFilV9nNePTxd82GQnMaU0w28bAAAAALaX3yk8FRS+6H9MGgIAAACwWPny8Un+Oi3g+nEnhIYAAAAALEYOCY/XgsISj5nsTWgIAAAAwCzlS8cPAeFx/rJy3AGhIQAAAACTlt8hDDkcPFwLCK0a90RoCAAAAEDn8prw0RN/3eMc/D3lZO2/OzI1OB6hIQAAAADfiFW9Hu49TPc9eBwICvgWRmgIAAAAUIBHk3/rgeD6dN8bPwsEoSEAAADAvK2FgevTgA+h4KHrwexCaAgAAAAwYWsXgh/CweO1gNAhEPpwF1NKKgsAAAAwsrWJwZO1gNC6MINLbRNNGgIAAAAMLB8ZefxlapDJEBoCAAAA9CivF5/kgPDEWjFzIDQEAAAA6NBaSPjw5RAJc3IfhIYAAAAA+4tVfSokZCE+B6EhAAAAwPby0ZLT/OVYCYsjNAQAAADYQD5ecpaDwldqxkLdBaEhAAAAwPPy2vHDl+MllMB6MgAAAMBjaxOFZ4JCSiU0BAAAAIqX3yh8CAqtHlOy2yA0BAAAAEoVq/owrx2fOWYCfxEaAgAAAOXJ68fn3imEJ309hBJTSsoDAAAALF6s6jNThfCy1DYxmDQEAAAAliyvIJ97qxA2cv/wBwkNAQAAgMXJh00uQgjvdBc29vnhDxQaAgAAAIsRq/okTxa+1VXY2t3DnyA0BAAAAGYvh4UX3iuEvZg0BAAAAOZPWAidMmkIAAAAzJewEHph0hAAAACYn1jVxyGES2Eh9OL24S8aU0pKDAAAAEyaa8jQv9Q28eFvYtIQAAAAmKxY1Yf5GvJPugS9uln/iwsNAQAAgEmKVX2WV5EPdAh6d7v+NxAaAgAAAJOSj5yswsLXOgOD+bz+NxIaAgAAAJOQV5EvvVsIo/i4/jf9lx4AAAAAY4tVfZ7XIwWGMA6ThgAAAMA05KvIVyGEN1oCo/mS2uZu/W9u0hAAAAAYRazqixDCfwWGMLrPj78Bk4YAAADAoGJVH+fpQodOYBo+Pv4uTBoCAAAAg8nThX8IDGFSvpk0jCklLQIAAAB6ZboQpiu1TXz8zZk0BAAAAHqVLyObLoRp+vDUd+VNQwAAAKAXsaoPQwjXDp3ApH3znmEwaQgAAAD0IVb1aQjhVmAIkyc0BAAAAPoXq/oyhPBbCOFAuWHSvqS2+eYISrCeDAAAAHQlVvVRXkf2diHMw5NThsGkIQAAANCFvI78WWAIs3L93DcbU0paCQAAAOwsVvVFCOEnFYRZuU9tc/jcN2w9GQAAANhJvo58FUJ4q4IwO89OGQahIQAAALCLWNXHOXR4pYAwSy+GhtaTAQAAgK3k9wuvXEeG2XpxNTk4hAIAAABsI1b1eQjhN4EhzNrV975568kAAADARmJVr4KGd6oFsyc0BAAAAPaTD558DCG8VkqYvZvUNp+/9yGsJwMAAADPygdPBIawHJebfBKHUAAAAIAnrQWG3i+EZfjuAZQHJg0BAACAb8SqPhMYwuJsNGUYvGkIAAAAPJYDw18VBhbnuwdQHpg0BAAAAP4Sq/pcYAiL9D61ze2mH8ykIQAAAPBVrOrVFNI71YBFutjmQ5k0BAAAAASGsGxbTRkGoSEAAAAgMITF22rKMAgNAQAAoGwCQ1i8racMgzcNAQAAoEyxqg9DCNchhDd+BGDRtp4yDEJDAAAAKE8ODD+GEF5rPyzaL7tMGQbryQAAAFAWgSEU437XKcMgNAQAAIByCAyhKBepbe52/cBCQwAAACiHwBDKcJPa5nKfTyo0BAAAgALkK8kCQyjD+b6fUmgIAAAAC5cDw3f6DEV4n9rm474fVGgIAAAACyYwhKLcdzFlGISGAAAAsFwCQyjO2T7HT9YJDQEAAGCBYlVfCgyhKB9S21x39YGFhgAAALAwsarPQgg/6isUY7WWfNblhxUaAgAAwILkwPBXPYWinHa1lvxAaAgAAAALEav6RGAIxfmli2vJj8WUkh8lAAAAmLlY1cchhFVwcKCXUIyb1DbHfXxYk4YAAAAwc7GqjwSGUJzVO4anfX1ooSEAAADMWKzqwxDCtcAQinOW2ua2rw8tNAQAAIB5W00YvtZDKMrPqW2u+/zAQkMAAACYqVjVVwJDKM6H1DYXfX9ooSEAAADMUKzqVWjwTu+gKDerteQhPrDryQAAADAzsapXocGv+gZFWR0+OUptczfEhzZpCAAAADMSq/o4hHCpZ1CUVWB4MlRgGEwaAgAAwHzkS8m3LiVDcf4ntc3HIT+0SUMAAACYgRwYfhQYQnF+GDowDEJDAAAAmI1Ll5KhOKvA8GqMDy00BAAAgImLVX3uUjIU5+exAsPgTUMAAACYtljVpyGE37QJivI+tc3ZmB9YaAgAAAATlS8le8cQyjJ6YBisJwMAAMA05cMnVwJDKMokAsMgNAQAAIDJcvgEyjKZwDAIDQEAAGB6HD6B4vxnSoFh8KYhAAAATEt+x/APbYFi/DDmleTnCA0BAABgIvI7hrfeMYRiTDIwXPn3BL4HAAAA4E/XAkMown0I4Sy1zfVUP6zQEAAAACYgVvVFCOGNXsDirQLDk9Q2n6f8Qa0nAwAAwMhiVZ+EEH7XB1i8mzxhOOnAMAgNAQAAYFzeMYRi3OQJw7s5fGDryQAAADAu7xjC8r1PbXM2p0/5rwl8DwAAAFAk7xhCEf4zt8AwWE8GAACAcXjHEBZv8heSXyI0BAAAgIHldwxXhxBeqT0s0mwOnjzHejIAAAAM70pgCIv1IR88mW1gGBxCAQAAgGHFqj4PIbxVdlikn1PbXCzhg1lPBgAAgIHEqj4OIXx0LRkWZ9bvFz7FpCEAAAAM50pgCIuzer/wNLXN7ZI+mNAQAAAABhCrerWy+FqtYVF+SW1zvsSWWk8GAACAnsWqPgkh/K7OsBiLW0d+TGgIAAAAPYpVfRhC+OxaMizGIteRH7OeDAAAAP26FBjCYix2Hfkxk4YAAADQk1jVpyGE39QXZu8+Txd+LKWVQkMAAADoQV5LvnUtGWbvUw4M70pqpfVkAAAA6MeVwBBm7z+pbS5LbKPQEAAAADqW15LfqivM1k2+jvy51BZaTwYAAIAOxao+yteSTRnCPBVz7OQlJg0BAACgW9aSYZ6+5OnCYo6dvORf0/3WAAAAYF5iVa+mk95oG8zOhxDCscDwb9aTAQAAoAPWkmGW7vN04bX2/ZNJQwAAAOiGtWSYl095ulBg+ARvGgIAAMCeYlWfWUuG2VhNF16ktrnUsudZTwYAAIA9xKo+DCHcmjKEWbjJ68iftetlJg0BAABgP9aSYR5+Tm1zoVebERoCAADAjmJVn4YQ3qofTNqXEMKp6cLtOIQCAAAAO8hryVdqB5P2Sz52IjDckklDAAAA2M2ltWSYrPs8XfhRi3bjEAoAAABsKVb1SQjhd3WDSfqQj53cac/uhIYAAACwhbyWvFp1fKVuMCn3OSy81pb9edMQAAAAtnMhMITJ+ZTfLhQYdsSkIQAAAGwoVvVxCOEP9YJJ+U9qm0st6ZZDKAAAALA515JhOm7yOrLLyD2wngwAAAAbiFV9HkJ4rVYwCb+EEE4Ehv2xngwAAADfEav6KB8/OVArGJVjJwOxngwAAADfdyUwhNGtjp2cpra504r+CQ0BAADgBbGqT0MIb9QIRuXYycCsJwMAAMAzYlUf5rXkV2oEo/iSpwu9XTgwh1AAAADgeRcCQxjNhxDCscBwHCYNAQAA4Amxqo9DCH+oDYzCOvLIvGkIAAAAT7tSFxicdeSJsJ4MAAAAj8SqPg8hvFYXGJR15AmxngwAAABr8vGT2xDCgbrAYKwjT4z1ZAAAAPinS4EhDOY+ryN/VPJpMWkIAAAAWazqkxDC7+oBg7gJIZyktrlT7ukxaQgAAAB/c/wEhvE+tc2ZWk+XQygAAADw55ThRQjhlVpA734QGE6f9WQAAACKF6v6KITw2VuG0CvvF86ISUMAAABw/AT69vB+ocBwJkwaAgAAUDTHT6B3n/KEoYMnM+IQCgAAAKVz/AT64+DJTFlPBgAAoFiOn0CvfhYYzpf1ZAAAAIrk+An0anUh2RTvjFlPBgAAoFSOn0D3VheSz1LbXKvtvJk0BAAAoDiOn0Av7vOF5M/KO3/eNAQAAKBEl7oOnRIYLozQEAAAgKLEqj4PIbzWdeiMwHCBrCcDAABQjFjVhyGEW28ZQmducmB4p6TLYtIQAACAkjh+At0RGC6YSUMAAACK4PgJdEpguHAmDQEAACjFhU5DJwSGBRAaAgAAsHixqs9CCG90GvZ2LzAsg/VkAAAAFs3xE+iMK8kFMWkIAADA0p0LDGFvAsPCmDQEAABgsWJVH4UQ/qvDsBeBYYFMGgIAALBkV7oLezsXGJZHaAgAAMAixao+cfwE9vZDahvhe4GEhgAAACyVoAP2815gWC6hIQAAAIsTq/oihPBKZ2Fnn1LbnClfuYSGAAAALEqs6sN8MRnYzU0I4VTtyiY0BAAAYGkuQwgHugo7WV1KPkttc6d8ZYsppdJrAAAAwELk4ye/6yfs7H9T21wrHyYNAQAAWJIL3YSd/SIw5IFJQwAAABYhVvXqaMOvugk7uUltc6x0PDBpCAAAwOzl4yeXOgk7uXf4hMeEhgAAACzBueMnsLPV4ZNb5WOd9WQAAABmLVb1UQjhv7oIO3mf2uZM6XjMpCEAAABzZy0ZdvMlT+nCN4SGAAAAzFas6pMQwlsdhJ2s1pLvlI6nCA0BAACYsyvdg538ktrmo9LxHKEhAAAAsxSrerVW+Ur3YGurteQLZeMlDqEAAAAwO7GqD0MIty4mw07+N7XNtdLxEpOGAAAAzNGFwBB28klgyCaEhgAAAMxKrOrjEMKPugY7sZbMRoSGAAAAzM2ljsFOPjl+wqaEhgAAAMxGrOrTEMIbHYOdmDJkYw6hAAAAMAv5+MlnF5NhJ6spwxOlY1MmDQEAAJiLc4Eh7MxaP1sxaQgAAMDkxao+ylOGLibD9r6ktjlSN7Zh0hAAAIA5uBQYws5MGbI1oSEAAACTFqt69Q7bW12CndyHEK6Ujm0JDQEAAJg6U1Kwu+vUNnfqx7aEhgAAAExWrOrV8ZPXOgQ7M2XIThxCAQAAYJJiVR+GEG69ZQg7cwCFnZk0BAAAYKouBIawF6v97ExoCAAAwOTEqj4OIfyoM7CXa+VjV0JDAAAApsiEFOznJrXNrRqyK6EhAAAAkxKr+jSE8EZXYC+Cd/YiNAQAAGAy8vETYQfsz2oyexEaAgAAMCXnIYRXOgJ7+ZDa5k4J2YfQEAAAgEmIVX0UQvhJN2BvpgzZm9AQAACAqbCWDN0QGrI3oSEAAACji1V9EkJ4qxOwtxuryXRBaAgAAMAUXOkCdMI/S3RCaAgAAMCoYlVfOH4CnbGaTCdiSkklAQAAGEU+fvI5hHCgA7C31WrysTLSBZOGAAAAjOlSYAid+aiUdEVoCAAAwCgcP4HOec+QzggNAQAAGIuAA7pzn9rms3rSFaEhAAAAg3P8BDrnAAqdEhoCAAAwqHz85FzVoVPeM6RTQkMAAACG5vgJdM+kIZ0SGgIAADAYx0+gFzepbe6Uli4JDQEAABiS4yfQPVOGdE5oCAAAwCAcP4HeeM+QzsWUkqoCAADQq3z85LO3DKFz96ltDpWVrpk0BAAAYAhXAkPohSlDeiE0BAAAoFexqk9DCG9UGXohNKQXQkMAAAB6E6t6tTZ5qcLQG6EhvRAaAgAA0CfHT6A/X1LbfFZf+iA0BAAAoBexqo9DCD+qLvTGlCG9ERoCAADQF2vJ0C+hIb0RGgIAANC5WNXnjp9A74SG9CamlFQXAACAzuTjJ7chhANVhd6s3jM8Ul76YtIQAACArl0JDKF3pgzpldAQAACAzsSqPg0hvFVR6J3QkF4JDQEAAOhEXkt2/ASGITSkV0JDAAAAunIRQnilmtC71XuGt8pMn4SGAAAA7C1W9XEI4UeVhEGYMqR3QkMAAAC6cKWKMBihIb0TGgIAALCXWNWrteTXqgiDERrSu5hSUmUAAAB2Eqv6KITwX9WDwazeMzxSbvpm0hAAAIB9WEuGYZkyZBBCQwAAAHYSq/o8hPBG9WBQn5WbIQgNAQAA2FpeS75QORicSUMGITQEAABgF6u15AOVg0Hdp7YxacgghIYAAABsJVb1mbVkGIUpQwYjNAQAAGBjsaoPQwiXKgajEBoyGKEhAAAA27CWDOOxmsxgYkpJtQEAAPiuWNWnIYTfVArGkdomKj1DMWkIAADAd+W15CuVgtF8UnqGJDQEAABgE9aSYVzeM2RQQkMAAABeFKv6PITwVpVgVN4zZFBCQwAAAJ4Vq/oohHChQjA6k4YMSmgIAADAS6wlw/huUtvc6QNDEhoCAADwpLyW/EZ1YHRWkxmc0BAAAIBvWEuGSbGazOCEhgAAADzl2loyTIbQkMEJDQEAAPiHWNWrCcPXqgKTcJ/a5lYrGJrQEAAAgL/Eqj4OIfykIjAZpgwZhdAQAACAr2JVH+a1ZGA6HEFhFEJDAAAAHlyGEF6pBkyKSUNGEVNKKg8AAFC4WNWnIYTfSq8DTE1qm6gpjMGkIQAAQOFiVR+FEK5KrwNM0I2mMBahIQAAAKvA8KD4KsD0WE1mNEJDAACAgsWqvgghvPEzAJPkCAqjERoCAAAUKlb1cQjhJ/2HyTJpyGgcQgEAAChQrOrDPMXkWjJM031qm0O9YSwmDQEAAMp0JTCESTNlyKiEhgAAAIWJVX0eQnir7zBp3jNkVEJDAACAguR3DP9/PYfJM2nIqLxpCAAAUAjvGMJ8pLaJ2sWYTBoCAACUwzuGMA83+sTYhIYAAAAF8I4hzIrVZEYnNAQAAFg47xjC7DiCwuiEhgAAAAuW3zG81mOYFZOGjE5oCAAAsGzX3jGEWblPbXOrZYxNaAgAALBQsaovQwhv9BdmxWoykyA0BAAAWKBY1achhB/1FmbHajKTIDQEAABYmHz45EpfYZaEhkyC0BAAAGBB8uGTVWB4oK8wS9aTmQShIQAAwLKsAsPXegqzdJPa5k7rmAKhIQAAwELkwydv9RNmy5QhkyE0BAAAWIBY1WcOn8DsCQ2ZDKEhAADAzOXDJ5f6CLPnCAqTEVNKugEAADBT+fDJrcMnMH+pbaI2MhUmDQEAAGYqB4YfBYawCJ+0kSkRGgIAAMzXpUvJsBhWk5kUoSEAAMAM5UvJ7/QOFsMRFCZFaAgAADAzLiXDIgkNmRSHUAAAAGYkVvVJCOF3PYNF+ZLa5khLmRKThgAAADMRq/o4hHCtX7A4pgyZHKEhAADADLiUDIvmCAqTIzQEAACYOIEhLJ5JQyZHaAgAADB9q8DwtT7BMqW2MWnI5AgNAQAAJixW9ZXAEBbtRnuZIqEhAADAROXA8J3+wKKZMmSShIYAAAATFKv6UmAIRfCeIZMkNAQAAJiYWNVnIYQf9QWKYNKQSYopJZ0BAACYiBwY/qofUIT71DaHWs0UmTQEAACYCIEhFMdqMpMlNAQAAJgAgSEUyWoykyU0BAAAGJnAEIolNGSyhIYAAAAjilV9HEK41AMokvVkJktoCAAAMJIcGK4mjQ70AIpzk9rmTtuZKqEhAADACASGUDxThkya0BAAAGBgAkPAe4ZMndAQAABgQPnoicAQMGnIpMWUkg4BAAAMwJVk4EFqm6gYTJlJQwAAgAEIDIE1nxSDqRMaAgAA9ExgCDziPUMmT2gIAADQo1jV5wJD4BHvGTJ5/9YiAACAfsSqvgohvFNe4BGThkyeSUMAAIAeCAyBZ3xJbXOnOEydSUMAAIAOxao+zFNEr9UVeIIpQ2bBpCEAAEBHYlUfCQyB7/CeIbNg0hAAAKADsaqPc2B4oJ7AC0waMgsmDQEAAPYUq/pMYAhsIrWNSUNmQWgIAACwh1jVFyGEXwWGwAY+KRJzYT0ZAABgB/ngyaULycAWrCYzG0JDAACALeWDJ9cOngBbsprMbAgNAQAAtuDgCbAHk4bMhjcNAQAANhSr+jyE8IfAENjBl9Q2dwrHXJg0BAAA+A7vFwIdMGXIrAgNAQAAXpDXka+8XwjsyXuGzIr1ZAAAgGfEqj7N00ECQ2BfJg2ZlZhS0jEAAIBHYlWv1pF/VBegC6ltokIyJ9aTAQAA1sSqPgohXJsuBDr0STGZG+vJAAAAWazqs/zumMAQ6JLVZGbHpCEAAFA815GBnjmCwuwIDQEAgKLFqj7J15FflV4LoDcmDZkd68kAAECxYlVfhBB+FxgCPbpJbXOnwMyNSUMAAKA4saqP83ShtwuBvllNZpZMGgIAAEWJVX2eVwUFhsAQrCYzSyYNAQCAIsSqPsrThW90HBiQSUNmyaQhAACweHm68LPAEBjYfWoboSGzZNIQAABYLNOFwMisJjNbJg0BAIBFypeRTRcCYzJlyGyZNAQAABbFZWRgQkwaMlsxpaR7AADA7MWqPgwhrKYLf9RNYApS20SNYK5MGgIAALMXq/o0hHAZQnilm8BEfNII5kxoCAAAzFY+dLIKC9/qIjAx3jNk1hxCAQAAZmnt0InAEJgi7xkyayYNAQCAWYlVfZIPnVhFBqZMaMisCQ0BAIBZsIoMzMiX1DZ3GsacCQ0BAIBJy1eRz/PXgW4BM2DKkNkTGgIAAJPlKjIwU0JDZk9oCAAATE6s6uMcFr7RHWCGXE5m9mJKSRcBAIBJyO8Wrq4iv9MRYKbuU9scah5zZ9IQAAAYnXcLgQWxmswiCA0BAIBRxao+y6vIwkJgCYSGLILQEAAAGIUjJ8BCCQ1ZBG8aAgAAg4pVfZLfLXTkBFic1DZRV1kCk4YAAMAgXEQGCvBJk1kKoSEAANArF5GBglhNZjGEhgAAQC+EhUCBhIYshjcNAQCATgkLgVJ5z5AlMWkIAAB0QlgIFM57hiyK0BAAANiLsBDgK6vJLIrQEAAA2ImwEOAfPisHSyI0BAAAtiIsBHiSSUMWRWgIAABsRFgI8Kyb1DZ3ysOSCA0BAIAXxao+DiGcCwsBnmXKkMURGgIAAE+KVX2SJwvfqBDAi4SGLI7QEAAA+IdY1ad5slBYCLAZoSGLIzQEAAC+ilV9licLX6kIwMa8Z8giCQ0BAKBgsaoP81ThmbAQYCemDFkkoSEAABQoX0J+CAsP/AwA7ExoyCIJDQEAoCD5uMmZS8gAnREaskhCQwAAKEB+r/DMcROATnnPkMUSGgIAwELl9wrP8hqy9woBumfKkMUSGgIAwMLk9wpXV5BPvVcI0CuhIYslNAQAgIWIVX2apwqtIAMMQ2jIYgkNAQBgxqwgA4zGe4YsmtAQAABmKFb1cQ4KrSADjMOUIYsmNAQAgBlxBRlgMoSGLJrQEAAAJi4fNnlYQTZVCDANQkMWTWgIAAATlQ+brMLCt3oEMCneM2TxhIYAADAha1OFZw6bAEyWKUMWT2gIAAATYKoQYFaEhiye0BAAAEZiqhBgtoSGLJ7QEAAABmaqEGDWPnnPkBIIDQEAYACmCgEWw5QhRRAaAgBAj2JVPwSFb9QZYBGEhhQhppR0GgAAOhSr+nhtqvBAbQGWI7VN1E5KYNIQAAA6EKv6MISweqvwPITwWk0BFumDtlIKoSEAAOwhHzVZfb1TR4DFs5pMMYSGAACwpXzU5DyHhY6aAJRDaEgxvGkIAAAbsH4MULz71DaHpReBcpg0BACAF1g/BiAzZUhRhIYAAPCI68cAPOFaUSiJ0BAAAP5+p/Bh/dg7hQA8ZtKQoggNAQAo1to7hauJwjd+EgB4xpfUNreKQ0mEhgAAFCe/U7gKCt/qPgAbsJpMcYSGAAAUYe2gyal3CgHYktVkiiM0BABgsdYOmpx6pxCAPQgNKY7QEACARREUAtCxT6lt7hSV0ggNAQCYvbXLx6uw8LWOAtAhU4YUSWgIAMAsCQoBGIgjKBQpppR0HgCAWRAUAjCw+9Q2h4pOiUwaAgAwabGqD9eCwje6BcCArCZTLKEhAACTsxYUrr7e6hAAI7GaTLGEhgAATIKgEIAJMmlIsYSGAACMRlAIwITdpLa51SBKJTQEAGBQgkIAZsKUIUUTGgIA0DtXjwGYIe8ZUrSYUiq9BgAA9EBQCMCM3ae2OdRASmbSEACAzggKAVgIq8kUT2gIAMBeYlUfhxBOBIUALIjVZIonNAQAYGs5KDzLU4WvVBCAhTFpSPGEhgAAbERQCEAhblLb3Go2pRMaAgDwrFjVpzkkXH0dqBQABTBlSPGC0BAAgMcEhQAUznuGFG8lppQUAgCgYG6R/4EAACAASURBVLGqD9dCwrd+FgAo2H1qm0M/AGDSEACgSLGqj/LFY0EhAPzNajJkQkMAgELkoPA0HzN5re8A8A2ryZAJDQEAFmzt4vGJoBAAvktoCJnQEABgYWJVn6y9UfhKfwFgIzepbe6UCv4kNAQAWAAXjwFgb1dKCH8TGgIAzNCji8cngkIA2JsjKLAmppTUAwBgBlw8BoDefEltc6S88DeThgAAE+biMQAMwgEUeERoCAAwMS4eA8DgrCbDI9aTAQAmIB8yOXHxGAAGd5/a5lDZ4Z9MGgIAjMTFYwCYBFOG8AShIQDAQB5dPHbIBACmwXuG8AShIQBAj9YOmZwICgFgkoSG8AShIQBAx1w8BoDZ+JDa5k674FtCQwCADrh4DACz5D1DeIbQEABgR2tBoYvHADBPVpPhGUJDAIAtuHgMAItxk9rmVjvhaUJDAIDvEBQCwCJdaSs8T2gIAPBIrOrDtZDQxWMAWCbvGcILYkpJfQCA4gkKAaAoX1LbHGk5PM+kIQBQLEEhABTLART4DqEhAFCUWNVHOSRcXT1+rfsAUCTvGcJ3WE8GABZPUAgArLGaDBswaQgALJKgEAB4htVk2IDQEABYDEEhALABq8mwAevJAMCsCQoBgC1YTYYNmTQEAGZHUAgA7MhqMmxIaAgAzIKgEADogNAQNmQ9GQCYrFjVhzkoPBcUAgB7uk9tc6iIsBmThgDApKwFhauvt7oDAHTElCFsQWgIAIxOUAgADOBSkWFz1pMBgNHEqj5dCwsPdAIA6ImrybAlk4YAwKBiVR/nNwoFhQDAUKwmw5aEhgBA7/Ll44eg8JWKAwADu1Jw2I71ZACgFzkoXIWEZy4fAwAjspoMOzBpCAB0xkETAGCCrCbDDoSGAMDeYlWf5IlC7xQCAFNjNRl2YD0ZANiJdwoBgBmwmgw7MmkIAGxsbf343DuFAMAMWE2GHQkNAYDvilX9cNDEO4UAwJxc6hbsRmgIADwpVvXx2vqxdwoBgLm5SW1zq2uwG6EhAPCXHBSeeacQAFgAB1BgD0JDAChcPmjysH7snUIAYCm8Zwh7EBoCQIEEhQDAwn2ymgz7ERoCQCHWLh+fOmgCACyc1WTYk9AQABZMUAgAFMpqMuxJaAgACyMoBAAK9z61zV3pRYB9CQ0BYAEEhQAAfzFlCB2IKSV1BIAZEhQCAHzjPrXNobLA/kwaAsCMCAoBAF7kAAp0RGgIABMnKAQA2JjQEDpiPRkAJkhQCACwtS+pbY6UDbph0hAAJiRW9ZmgEABgJ5fKBt0RGgLAyGJVn65NFR7oBwDATlxNhg4JDQFgBLGqT0IIZ4JCAIBOfEhtc6uU0B2hIQAMJFb18VpQ+ErdAQA64wAKdMwhFADoUT5ocpa/Xqs1AEDn7lPbHCordMukIQD0IL9TeOagCQBA70wZQg+EhgDQkVjVR2tThdaPAQCGITSEHggNAWBPearwPITwRi0BAAZ1k9rms5JD94SGALCD/FbhualCAIBRXSo/9ENoCABbyBeQV2HhO3UDABjVfQjhWgugH0JDANiAFWQAgMm5Tm1zpy3QD6EhALwgVvVq/fjCCjIAwORYTYYexZSS+gLAmrX3CldfB2oDADA5X1LbHGkL9MekIQBkwkIAgNkwZQg9ExoCUDxhIQDA7FxpGfRLaAhAsYSFAACz9N4BFOif0BCAIuUDJ5fCQgCA2bGaDAMQGgJQFNeQAQBm7Sa1zWcthP4JDQEoQqzqkxwWvtFxAIDZMmUIAxEaArBosaqP8i8u3+o0AMCs3YcQrrUQhiE0BGCRHDkBAFicawdQYDhCQwAWJ1b1aZ4u9G4hAMByXOglDEdoCMBi5FXkK+8WAgAszqfUNrfaCsP5l1oDsASxqle/8/xfgSEAwCI5gAIDiyklNQdgtvJV5CuryAAAi/Ultc2R9sKwrCcDMEv50Mnqd5zf6SAAwKJdaS8MT2gIwOzkQydXriIDABTBajKMQGgIwGzk6cJVWPhW1wAAivA+tc2dVsPwHEIBYBbydOGtwBAAoCgX2g3jMGkIwKSZLgQAKNan1Da32g/jMGkIwGSZLgQAKJq3DGFEMaWk/gBMSp4uXK2i/KgzAABF+pLa5kjrYTzWkwGYlFjVJ3kd+ZXOAAAUy1uGMDLryQBMRqzq1S8OfxcYAgAU7T6EcF16EWBsJg0BGF2s6uM8XfhaNwAAineZ2uau9CLA2EwaAjCqWNXnIYSPAkMAALIrhYDxmTQEYBT52MmVy8gAAKx5n9rmVkFgfEJDAAaXj52s3qk5UH0AANY4gAITYT0ZgEHFqr7Mx04EhgAArPtkyhCmw6QhAIOIVX2Upwu9XQgAwFNMGcKEmDQEoHexqs9CCJ8FhgAAPGM1ZfhRcWA6TBoC0Jt87GS1jvxOlQEAeMGl4sC0xJSSlgDQuVjVx/k6sulCAABe8iW1zZEKwbRYTwagc3kd+aPAEACADXjLECbIpCEAnbGODADAlkwZwkR50xCATlhHBgBgB6YMYaJMGgKwt1jVpzkwPFBNAAA2ZMoQJsybhgDsJVb1ah35N4EhAABbcjEZJsx6MgA7ye8XXocQ3qggAABbus+bKsBECQ0B2Fp+v/Cj6UIAAHZ0mdrmTvFguqwnA7CVWNVnIYQ/BIYAAOzo3moyTJ/QEICN5fcLf1UxAAD2YMoQZsB6MgDf5f1CAAA6YsoQZsKkIQAvWnu/UGAIAMC+TBnCTJg0BOBZDp4AANAhU4YwIyYNAXiSgycAAHTMlCHMSEwp6RcA/5APnvyoKgAAdORLapsjxYT5sJ4MwD/Eqr4KIbxTFQAAOnShmDAvJg0B+CpfSF69X/haRQAA6JApQ5ghbxoCsH7wRGAIAEDXTBnCDJk0BCicC8kAAPTIlCHMlElDgILFqj4VGAIA0KMzxYV5EhoCFCpW9eoXcL8JDAEA6Mmn1DYfFRfmSWgIUKAcGP6q9wAA9MhbhjBj/9Y8gLLEqr4KIbzTdgAAevTBlCHMm0lDgIIIDAEAGMi5QsO8CQ0BCiEwBABgIO9T29wqNsyb9WSAhYtVfZgvJL/WawAAenZvyhCWwaQhwIIJDAEAGNhlaps7RYf5ExoCLJTAEACAgX1ZhYaKDssgNARYIIEhAAAjuDBlCMsRU0raCbAgAkMAAEbwKbXNicLDcpg0BFiQWNXHIYTPAkMAAAZ2oeCwLK4nAyxEDgxXE4YHegoAwIDep7b5qOCwLCYNARZAYAgAwEjuQwjnig/LIzQEmDmBIQAAI7p0/ASWySEUgBkTGAIAMKIvqW2ONACWyaQhwEzlK8nXAkMAAEZypvCwXEJDgBnKgeFqwvCV/gEAMIIPjp/AsgkNAWZmLTB8rXcAAIzA8RMogNAQYEYEhgAATMBFaptbjYBlcwgFYCYEhgAATMBNaptjjYDlM2kIMAMCQwAAJsJaMhRCaAgwD5cCQwAARvaL4ydQDqEhwMTFqr4KIbzTJwAARvRl9ZahBkA5hIYAEyYwBABgIs5T29xpBpRDaAgwUbGqzwSGAABMwIfUNtcaAWURGgJMUA4Mf9UbAABGdh9CONMEKI/QEGBiYlUfCwwBAJgIa8lQqJhS0nuAiciB4eoi3YGeAAAwsk+pbU40Acpk0hBgImJVH4YQrgWGAABMgLVkKJzQEGACcmC4mjB8pR8AAEzARWqbW42AcgkNAabhMoTwWi8AAJiA1VrypUZA2YSGACOLVb36Bdk7fQAAYAJWa8mnGgEIDQFGFKt69U7Mj3oAQOG+hBB+CCH8nP8zMJ4z15KB4HoywHjypeQ/tACAwt2EEE4eQopY1as3ft+UXhQYyYfUNqYMga9MGgKMYO3wCQCU7N5UE0yGa8nAPwgNAQa2FhgeqD0AhVtdZ/1cehFgIk4F+MA6oSHA8FxKBoDnr7Meqg0M7pfUNrZggH8QGgIMKB8+cSkZgNK9tAbpN9ZgWDepbc7VHHhMaAgwkHz45Ff1BoBwmdrmVhlgdN4xBJ4lNAQYQH7H8FqtASB8SW1zoQwwCefeFQWeIzQEGMYqMHyl1gDw/FRTrOoj5YHBvE9tc6XcwHOEhgA9i1W9mqZ4o84A8PX4yUvHFoSGMIyb1ZShWgMvERoC9ChW9UkI4Sc1BoCvrCXD+L6+Y5ja5k4vgJcIDQF6kt8xtPIBAH/63pQhMAzvGAIbERoC9OfKO4YA8JdNpgxPlAt65R1DYGNCQ4AexKpevRHzVm0B4CtThjA+7xgCWxEaAnQsX370ZhMA/M1kE0N4H0L4nxDC/83/mb+t3jE89Y4hsI1/qxZA565DCAfKCgBffdliHdJ6Mrv639Q212t/7ln+jdw3KvrVKjC8ncD3AcyISUOADsWqXk0YvlZTAPjLpVLQsw+PAsMHJlz/9B/PAwC7EBoCdCRW9XEI4Sf1BIB/2Ca4OVQ6dvDcz5jJuj8PnwjugZ0IDQG643ezAeCf3m/5hpppfbb15ZkpQxw+AfYkNAToQKzqS/9DBwC+YcKJvvlN26c5fALsTWgIsKdY1atH239URwD4h5vUNp83LUl+5gO2JTR82onDJ8C+hIYAe4hVfegXqwDwpG3//eg9Q7b1QTD2pB+2CewBniM0BNjPau3qlRoCwDe2DQ2PlJAtfe9nrMQg+ufUNn5DG+iE0BBgR7GqT0MI79QPAL6x7QGUIDRkS5scQClt5X31z93FBL4PYCGEhgA7iFV9ZC0ZAJ61yzVb68lsw6/D/mn1hujZlL4hYP6EhgC7Wf1C9UDtAOAbm0yAPcUhFLYhNPzbzerwyVS+GWA5hIYAW4pVvVr7eKNuAPCkXQLDYNKQLWx6AKWElff7fCl52+cAAL5LaAiwhVjVqymIn9QMAJ616wTYayVlQ5v+jC09NBQYAr0SGgJsKFb14R7TEwBQgtW7ap+3/Zz537GwiV3X35fmITDc+p83gE0JDQE2dxlCeKVeAPCsXacMvWfIprxl+KczgSHQN6EhwAZiVa+u0b1TKwB4kfcM6ds2oeFSw+gfTFsCQxAaAnxHfsfwUp0A4EWfNjxO8RSThmxi0wMoDw4WWNVVYGjaEhiE0BDgBfmNpauF/qITALq0T5BRwpVb9ld6WCYwBAYlNAR42YVrjgCwkX3WJYWGfE/pB1AEhsDghIYAz8jvGP6oPgDwXau10bs9ymQ9me/ZKjCLVX2yoIoKDIFRCA0BnuAdQwDYyr6BhmdA+J5Sf10mMARGIzQEeMQ7hgCwlft91kYXNhFGP97vOck6VwJDYFRCQ4BvXXrHEAA2tu87c94z5Ht2Cc7mHkYLDIHRCQ0B1uR3DN+pCQBsTGhIn1YHUD4WVmGBITAJQkOALL9j+Kt6AMDGurhoaz2Zl1zsWJ25htECQ2AyhIYAf79juO//6AGA0nTx706Thjznfo+fsbn9XN0LDIGp+beO/L/27iYrjitbG3BkrepL3whQjUBUJ7uiOtkVNQLhERiPwGgEhUYgGIFRl46hS6dgBCVGcMUI8lsh77QTxD/xs8+J51mLJdu3rsiM/DkRb+y9D8B37QnphkMBAE/SRcBh/eUuRxPZAKUNDLeWZ8fnCR4LwJ9UGgKTN5sv2o1P3k39OADAE12+NOSwczIPeG5rcmuzkIMrMATSEhoCkxYbn/w89eMAAM+w38FB05rMXU6XZ8dfX3B0XhVwZC/acFNgCGSlPRmYrNj4pIsLHgCYIvMM6dOzW99jVnV2F1FhOIX2a6BQQkNgktY2PinhLjQAZPPSKrAV7cnc5vKFG4Jkb00+XJ4d7yR4HAD30p4MTNWJwesA8Gxd7fBaytw5hlXzDsIfBYZAKVQaApMzmy/aE9G3XnkAeLYXtybP5os3Kv65w0vHx2QMo9sNT3ZfWEEJMCihITAps/lit2maD151AHi2w47msKky5DZdvL+yzTS0QzJQJO3JwGTM5ovtpmn+4xUHgBfpYgOURmjIHbrYpC5TaNhuePJGYAiUSKUhMAmxU7J2EAB4mXaDiq5CQ5ugcNNpR+FalkD60/LseDfB4wB4FqEhUL3YKfnE3CQAeLGuAsNGpSG36KLKMAPzC4EqCA2BqgkMAaBTnYQ6NkHhFl1Wsb4b8QC37cg72pGBGphpCNTuyE7JANCJtnX0a0d/lypDbtqr4Igc2vAEqIlKQ6Bas/niYOQ7zQBQky5bLYWGrLvqqvU9qliHph0ZqJLQEKjSbL5o71Z/8OoCQCeuOg5EbILCuv3l2fG3jo7I0KFh24683WEVLkAaQkOgOrP5Yqdpml+9sgDQma4rqHQCsK7L99frAY/sx+XZcQ1t1QC3EhoCVZnNF9tN03z2qgJApzrb1XY2X2hNZt1hx1V6Q7y/LqO60OxCoGo2QgGqERchZskAQLe63ACl0ZrMDaVV6n1qg0mBITAFKg2BKkRgeNI0zSuvKAB0qusbcioNWek6kG56fH+11YU7y7Pjk57+foB0hIZA8WKXPIEhAHTvsocdYVUastJHlWEfMw3NLgQmSWgIFG02X7QnhkcCQwDoRaeBYdzo2/BSEVWGfVTtdbl78mEbbNoZGZgqoSFQrAgM25PNt15FAOhFZxugBFWGrPRVuddFKH0arcjCQmDShIZAkQSGANC7dlfbbx3/EqEhTbS9d15lGOeHL3EalYXmFgKT1wgNgRIJDAFgEH1UggkNaXqsMnzuJijtJie7y7Pjo44fD0DRhIZAiQ4EhgDQqy9dt2aaZ0joY3Od57qMysIsjwcgFaFhpaISa3WnbfPGLmIvvcN73jTNeqvKt/hv3ynnp0+z+aI9qXvvIANAr7qeZdioMiT0uQvxYysNr9r3uB2RAe4nNCzcbL7YWgsFt+LPviuw3t33f5zNF+v/ehp/fo2fJtpKW+c9zMmhYhEYfvAaA0Cv+trVVmhI31WGD800vIpAfN91CMDDhIYFiZaOrfjZLKQ9892NP1u/rv4hAsaLtWrFa39azFkRGALAYPqqvhIa0ndl35t7/m+H0YpsR2SAR5otl0vHKqloMW5Prrbjz6nOgDldCxNXFYsCxQkRGALAYNoqw87Dvbj5/T8v46S1VYb3hXovNpsvTm7pihIWAjyTSsOEZvPFTgSF5rb9YbXwXzseUaV4uh4ktn8uz47Pb/9rKJHAEAAG1Vcl2LaXcfKGmB+43p58GmGheesAz6TSMInZfNG2G+/GCdWrqR+PDlxGkHiyChWdMJRHYAgAg+qlyrD5Y00/ckN80nqvMmz+eJ8tY/TRrnN/gJdTaTiy2Mhk76HNRXiyjfj587hGZaIwsRACQwAY3E6Pv9A8w2kbapfin3reaAVgUlQajkRYmI4wMRGBIQAM7nB5dtxLaBjnvb97SSdrkCpDALqn0nBgMQT6QFiYzmMrE8/NTOxPbP5zoH0JAAZ1FWNy+mKe4bQNVWUIQMdUGg5oNl+0C+avk3nCdbtY23zFBiwdiLmeRxPeJRwAxvLL8ux4v6/fPZsv2nOkt17dSeptTiYA/RMaDiDCkAMnS5MgTHyiqC5sA/Wfi3rgAFCHi+XZ8WZfzyS6bP7nvTJZ/zLyB6Bc2pN7prpwct7Gz5/ttTZguV2EhbvxY8dwABhHn23JjdbkSTud+vkuQOmEhj2Ju6pHqgsJd81MvFpVJK6Fit9qrk6MytvduIgQFgLAeD4NEOpoTZ0uswwBCqc9uQez+WI72pEFIrzE5Vqr87fVnyXesY1dE7fjx8xCABhfe56xuTw7/tbXI4mugv/zWk/Sl+XZsSpTgMKpNOzYbL7YN5uNjvxQndj8VaHYxPzEb2uh4qpasRkzWIxKwvUfO4VDN1Y3Eu7yks/96/jM3sdnGeqy02dgGFQZTlffbe8ADEBo2JG4k3rkoooBrVrff3jPrQWLq/bnZi1gbO7496fYjJChWfvnN6oI4UF3fSZ/+HyWMKYgRnG8ufGfb4YE6//+2tgOSOHjQDcYVZpN0+Hy7Pi+m1wAFEJ7cgfsjgzAWiC4HgCuLsrPB6joKU6MLli57Z+FjNC9XndLXjebL74Z1zM57Vr4xpoHUAeVhi8UgeGJEyKASVgFg6twsPrNi/p0o9Lp3qqnG1WNqwrn9bbqTWsxPOhqqJbhmPHtMzk9+wJDgHoIDV9gNl/stAujEyKA6qzCwZPVvNASNyGqSbS6rdrd7nwt1sLFm4GiMQrQNFsDBjpak6fnMq6NAKiE9uRnisDwc5EPHoB1l2vVgydaiet3R7C4qr4ym5ha/bQ8Oz4Y6rlpTZ6kQd9jAPRPaPgMAkOAYq1XEH7/U0DIbWL8yOu1KsX1PwUhlObT8ux4sN1sozX5N++SSTldnh3bLRugMtqTn0hgCFCUqwgITyIgNHuQR1l7r9zaCi1UpCCHQwaGQWvy9OxN/QAA1Eil4RMIDAHSExKSglCRJNrAcGfoh6I1eXK+LM+OBcUAFRIaPpJdkgHSOo3v5yMhIaWYzRerNr6bf5qpSFfGCgy1Jk9Le7NuMzarAqAy2pMfIQamCwwBcmgvUI7WgkIzCSnO2m7cd7U/b91RqfjWq80jjBIYBhVn07IvMASol0rDB8zmi9dxQu8kHWA8lxEUHq2FLTBJcW5yV/uz8xVG3cFWa/KkXEaVoZt3AJUSGj5gNl+0J10fUj9IgDqtgsIDbcfweGuhYqP9eVLaKuztMW+saE2enH8vz46Ppn4QAGomNLyHEx+Awa1aj/cFhdCfWzZqeRM/qhXL1M523Rm7TXQ2X7Tf3+8LPo483uny7HjL8QKom9DwDnGX/qv2CoBBfImKQhULkMTaZi03g8VGxWIqH5dnx3tjP6A4d/6/XIeGHv3DLEOA+tkI5W77AkOAXl3Gd+2BeUiQz0ObtTR/bRa3ChJXIeP6f9t0PtWLVVX2XqLgxgYo0/FRYAgwDULDuym3B+jHYQSFNjSBwkVwsAoP7v1Mr1Uurs9cbG6ccwkZf3Qa/2V1rM+TVmXvJngM9G91ww+ACdCefI+YabirBQfgxVQVAk9yo4qxuVHB2NwSPjbJZzK21YHrs1q/3fj38/hvTQSDxXxXxmv1vwQPhf7Z/ARgQoSGjxB3xnfsogzwZKexqYkLDGBUa5WOQygq9Hup2XzR3hT6uexnwSN8WZ4da0MHmBCh4RPEXdS9mNmidQbgbofJZm0B0JPZfNF+1284vlVrK2U3resA0yI0fIbYHW43foSHAH+4WmtBdlEBMAExzuc3r3X1flmeHZtlCDAxQsMXWKs81LYMTJl5hQATNZsv2vET773+VbtYnh3fnB8KwAQIDTswmy8244LZhinAlFxGC/KBVx1gemyAMhn/XJ4dn0/9IABM0d+96i8Xi+jWbL7YifBQyzJQM2EhAE1sFEjdPgkMAabrb1777sQFdHvH9UstzwlgTRsW/rQ8O34jMARAaFi9yxjFBMBEaU/uSQyFPlB1CFRAZSEA19gAZRL+tTw7Ppn6QQCYMpWGPVmeHR+pOgQKp7IQgLuoMqzbJ4EhACoNBzCbL3abpvlP9U8UqIXKQgDuZAOU6rXnAZvLs+NvUz8QAFOn0nAAy7PjdnOUfzZNc1H9kwVKdtU0zS8qCwF4gCrDuu0IDAFohIbDWe2wrF0ZSKgNCz+2IxXiJgcA3GfX0amWtmQA/qQ9eQTalYFEPkUrsooCAB40my/aKsPPjlSVtCUDcI3QcCSz+WKzaZoTuysDI2mrnneXZ8dfvQAAPNZsvmi7Z946YFWyWzIA1wgNRzSbL15HcOjECxjKaVQWuigA4Elm80U7aud3R61KbVuytnMArvm7wzGeKP3fnM0X7YYDH6Z6HIBB2BEZgJcSKtWp3axxb+oHAYAfqTRMwpxDoCftJif7y7NjFwMAPNtsvnjTNM3/HMEq/TM2bQSAa+yenETsWPqvuMAH6MJh7IgsMATgpawldfooMATgLioNk4kNUg7MOQRe4DQ2OXERAMCLxRzurzbwq87p8ux4a+oHAYC7qTRMJi7yt+KiH+Ap2rmFP7UXAAJDADq0KzCsTtvdtDP1gwDA/VQaJmaDFOAJPsbswm8OGgBdms0X34SG1fn38uz4aOoHAYD7CQ2Ts0EK8IC2KnlneXb81YECoGuz+aKtRvvswFblcHl2rMoQgAdpT04uNkj5tw1SgBvaVuR/RSuywBCAvtgApS4X0W4OAA9SaViI2CClbSHYmPqxgIm7ijZkF3EA9EqVYZX+ae4xAI+l0rAQsbhvxt1BYJraVuRNgSEAA7He1OUXgSEAT6HSsDCz+eJ1W2VkgxSYlLYVedfAcgCGMpsvtpqm+d0Br8aX5dnx9tQPAgBPo9KwMO3OqDG4+OPUjwVMxMeoLhQYAjAkVYb1aDuVbHwCwJOpNCxYzJlpqw5fTf1YQIVOo7pQGxEAg1JlWJV2FvKW8wkAnkOlYcGWZ8cH7UlAtC4CdWhP7n+KXZGd4AMwBlWG9XADEoBnExoWbm2DlNOpHwuowGHTNG/ihgAADC6qDN858lU4dE4BwEtoT67IbL5oW5V/nvpxgAK11cI7y7PjEy8eAGOazRcnQsMqXCzPjjenfhAAeBmVhhVZnh3vtm2N0d4IlOHj8uz4jcAQgLGpMqxGey1gp2QAXkxoWBlzDqEY7UiBfyzPjs2NAiALa1Idtpdnx1+nfhAAeDntyZWazRevm6ZpA8T3Uz8WkMxVDCU3YwiANOyYXI1flmfH+1M/CAB0Q2hYudl80bYs/2fqxwGS+BKzC795QQDIxCzDKrQbn+xM/SAA0B2h4QTM5ovNqDp8O/VjASOx0QkAac3mi3b+3W9eoaLZ+ASAzplpOAHLs+PzmHP4aerHAkbQfu42BYYAJKadtWxXca4PAJ1SaTgxMa+mrTrcmPqxgJ5dRHXhuQMNQFaz+aJtZ/3sBSrW98DQ+QYAfVBpODFR7bSp6hB60568f2xbhJzAA1AAOyaXzQ1KAHqj0nDCVB1C507j5P2rQwtAdjbMK56dkgHoldCQ9oSxvcPcnjS+cjTgLqwkJQAAIABJREFUWdrqwt3l2fGBwwdACWbzxeumab46/yuWnZIB6J32ZNqW5TY0fNOefDga8GRf2s+PwBCAwrhhXK5TgSEAQ1BpyDWz+eJNzLb54MjAvS6juvDIYQKgJHG+dy40LNJFbHzybeoHAoD+qTTkmnYWW9y5/IfKQ7hTu5HQpsAQgELtCQyLdCUwBGBIKg25l8pDuOYyNjo5cVgAKNFsvthsmua/XrzirAJDOyUDMBihIY8S4WE7s+2dI8ZEfYz5nwBQrNl8ceJ8rjgCQwBGITTkSWbzxXaEh1pamIqLqC50og5A0eI87jevYnF+suEaAGMQGvJks/nidQSH7x09Ktbe1d9bnh3ve5EBqMFsvvjaNM2GF7MoAkMARiM05Nlm88WBWYdU6jSqC796gQGowWy+aEds/OrFLIrAEIBRCQ15kdl8caTikIq01YW7TtABqEl0iXw1XqYoh8uz452pHwQAxvV3x5/nihPQLQeQSnyJ6sJvXlAAKrMvMCyKwBCAFISGvMSRE1AqcBlh4YkXE4DazOaLTeNkiiIwBCCNv3kpeI7ZfLHbNM07B4/CfWqaZlNgCEDFbOhVDoEhAKmYaciTxR3r/zpyFOwiqgvPvYgA1Go2X7QB1GcvcBEEhgCkIzTkSWKOYRu0bDhyFKjd6GR/eXa858UDoGY2PymKwBCAlMw05KkOBIYU6jSqC796AQGYgD2BYREEhgCkpdKQR4s5hv9xxChMW124uzw7PvDCATAFRskUQ2AIQGo2QuFR4uRTYEhpDpumeSMwBGBibH6Sn8AQgPS0J/OgmIlz5EhRkMtoRbYrMgCTEpufvPOqpyYwBKAIQkMewxxDSvLRRicATFHc6FVlmJvAEIBiCA25V8wxfO8oUQAbnQAwdfs2P0lNYAhAUWyEwp0M0aYQNjoBYPJm88VW0zS/T/04JCYwBKA4NkLhVuYYUohPNjoBgO+0Jef1k8AQgBJpT+YuR+YYkthFtCKfe5EAmLrZfNHO8n079eOQ1E9ubgJQKu3J/CBOPH91ZEiobUXeW54dq6YAgD/O2940TfM/xyId41MAKJ5KQ66JeTgCQzI6jJPvb14dAPiTUCqfNjDc0hEBQOmEhvzJHEOSuoiw8MQLBAB/mc0X7Zy8dw5JKgJDAKohNGRdGxi+ckRIQlsPANwhbvYa15HLRQSGuiIAqILdk/luNl/su1NNInZFBoD7HbjZm8qpwBCA2tgIhTYw3G6a5jdHggROo7pQSw8A3MG5WzqHy7PjnakfBADqIzScuNhx79ydakZ2GWGhmZoAcI9oS/7q3C2Nn3RGAFArMw0xx5AxtXML95dnx3teBQB4lH3nbim05zA7bngCUDOh4YTFHMO3Uz8OjKadW7hn9g8APM5svthqmuaDwzW6tkNi2zgVAGqnPXmizMJhRF+iFfmrFwEAHifaktuQasMhG9VpBIZuegJQPZWGExRzDM1eYWinUVl44sgDwJPtCQxH92l5drw78WMAwIQIDafJHEOGZJMTAHiBaEv+2TEczVWcy7jpDsCkCA0nxhxDBnQZlYVOsAHgmaIt2Vo6HvMLAZgsoeGExBxDd6npm7AQALqjLXk8X2KHZPMLAZgkG6FMRMwxPNeWTI/a1p395dnxnoMMAC8Xbcm/O5Sj+GV5drw/wecNAH9SaTgd5hjSl8uogjhyJx4AuqEteTTakQEgCA0nYDZf7JljSA+0IQNAfw60JQ9OOzIArNGeXDltLfRAWAgAPYo51L85xoPSjgwANwgNKxZtLV+1JdOR0wgLTxxQAOiH87fBXUR1oXZkALhBe3LdDpxw0oHD2ODEyTQA9M/523A+xQ1R7cgAcAuhYaVm88Vu0zTvp34ceLbvOyFHWOhEGgAG4PxtMFex2YnuCQC4h/bkCs3mi82maU7cpeYZzCsEgBHM5os3TdOcO3/rnc1OAOCRVBrWSVsLT2VeIQCMy/lbv64iLDyq+UkCQJeEhpWZzRdtS+nbqR8HHu0wwsKvDhkAjGM2X+w1TfPO4e+N6kIAeAbtyRWZzRdbTdP8PvXjwINW8woPhIUAMK4YK/NfL0MvVBcCwAuoNKzEbL54HW0tcJfLeI/Y3AQAEnD+1qu2m2LXOQ8APJ/QsB5t5djG1A8Ct7K5CQDktGesTOcuo7rQnGYAeCHtyRWYzRfbTdP8NvXjwA9Oo6pQSw4AJGOsTC8+6qgAgO4IDQsXbS1f7bbHGjshA0Bizt86dxrVhWY1A0CHtCeX78AJJ+EwNjcRFgJAbs7funEVcwuNYAGAHggNCxZtLe+nfhz4HhbuubsOAPnN5otd52+d0IoMAD3TnlyoaGs5t/nJpAkLAaAgs/lis2maE1WGL6IVGQAGotKwXHsCw0m6ipamfSfLAFAcbcnPZ1dkABiY0LBAcZf656kfh4lpw8J9bTgAUKbZfNGu42+9fE9mbiEAjERoWCYnTdMhLASAwsUcajd8n8Y5EACMTGhYmBie7S51/ZwoA0AFYg71kdfySQ6jutA5EACMyEYoBYmTzq9m4VTtMjY3UU0KAIWLc7cTN3wfzSZvAJCISsOy7AkMqyUsBID6HAgMH0VYCAAJqTQsxGy+eNM0zf+mfhwqJCwEgArN5ot2bf/gtb2XsBAAElNpWI79qR+Aypy21QfCQgCoj8DwQcJCACiASsMCxI57v0/9OFTiNE6ST6Z+IACgRgLDewkLAaAgKg3LsDf1A1CBL7ETsrAQACo1my92BIY/uIrZjvvCQgAoi9AwuagyfDf141Awd9QBYAIiMPzstf7TVYzXacPCb0keEwDwBELD/HanfgAK5I46AEyIwPAam7wBQCXMNEzMjsnFcUcdACbG7Ok/GcUCAJVRaZibWYZlcEcdACZoNl9sNk1zNOHXXncFAFRMaJjb9tQPQHJ2QgaAiYrAsD0HeDXBI9CeAx24YQoAdRMaJhWzcaZ4EloCm5sAwIRNNDBUVQgAEyM0zEuVYS6XayfK5hUCwETN5ovX0ZI8lcCwnVV4pKoQAKZHaJjX+6kfgCROIyic8rwiAOCvwLCtMNyo/HhcxuZuR6oKAWC6hIYJzeYLVYbj0n4DAFyzFhi+rfTIrM5/2lmF5wkeDwAwMqFhTptTPwAjMdQbAPhBxYHhVbRaH+mqAABuEhrmtDX1AzCgy7W76qoKAYDb7FcUGAoKAYBHERrm9GbqB6BnTpYBgEeZzRftzcUPhR8t5z4AwJMJDXOqfbj2WL6snTDbARkAuFfhgeFlnPeYUQgAPIvQkNoJCgGAJ5vNF3sFBoaCQgCgM0JDaiQoBACebTZf7DRN82shR/AiNmkRFAIAnRIaUoM/5/S0J82CQgDguSIw/Jz4AF5GSHgS5z02cgMAeiE0zOm0aZp3Uz8IDziNk+Ujd9UBgC4kDQzbc57zOO85FxICAEMRGuZ0LjT8wcWNu+qqCQGAzszmi82RA8P2XOdrnAeeCwgBgLEJDXNqd+r7eeLHYP2uupAQAOhNBIYnPR/hqzi3aeJ3fYt//yocBAAymi2XSy9MQrP54mRC1YaXN9pu+j5pBwD4bi0wfPXMI3K69s/nEQY2ayGkUBAAKJJKw7z2mqb5vcLndXpL640qQgBgLG1ouH/L7/4aP9e4uQkATIVKw8Rm88V2nMRuFPbQL9eCwW9xp91ddgAAAIBCCA0LMJsvtpqmaXfz235B60yXLiIMXN2BX83k+WYnYwAAAIDyCQ0LE3N3tqKV5k38+Zwg8WJt5s7KzTac9bk8KgUBAAAAJkJoCAAAAABc8zeHAwAAAABYJzQEAAAAAK4RGgIAAAAA1wgNAQAAAIBrhIYAAAAAwDVCQwAAAADgGqEhAAAAAHCN0BAAAAAAuEZoCAAAAABcIzQEAAAAAK4RGgIAAAAA1wgNAQAAAIBrhIYAAAAAwDVCQwAAAADgGqEhAAAAAHCN0BAAAAAAuEZoCAAAAABcIzQEAAAAAK4RGgIAAAAA1wgNAQAAAIBrhIYAAAAAwDVCQwAAAADgGqEhAAAAAHCN0BAAAAAAuEZoCAAAAABcIzQEAAAAAK4RGgIAAAAA1wgNAQAAAIBrhIYAAAAAwDVCQwAAAADgGqEhAAAAAHCN0BAAAAAAuEZoCAAAAABcIzQEAAAAAK4RGgIAAAAA1wgNAQAAAIBrhIYAAAAAwDVCQwAAAADgGqEhAAAAAHCN0BAAAAAAuEZoCAAAAABcIzQEAAAAAK4RGgIAAAAA1wgNAQAAAIBrhIYAAAAAwDVCQwAAAADgGqEhAAAAAHCN0BAAAAAAuEZoCAAAAABcIzQEAAAAAK4RGgIAAAAA1wgNAQAAAIBrhIYAAAAAwDVCQwAAAADgGqEhAAAAAHCN0BAAAAAAuEZoCAAAAABcIzQEAAAAAK4RGgIAAAAA1wgNAQAAAIBrhIYAAAAAwDVCQwAAAADgGqEhAAAAAHCN0BAAAAAAuEZoCAAAAABcIzQEAAAAAK4RGgIAAAAA1wgNAQAAAIBr/u5wAACUazZfbDVNs9k0zetbnsS3pmnOl2fHJ15iAACeYrZcLh0wAIBCzOaLN03TbDdNs9M0zdsnPOqLpmkO2p/l2fE3rzcAAPcRGgIAFCDCwr2maT508GgP279reXb81WsPAMBtzDQEAEhuNl/stm3GHQWGTfw95/H3AgDAD4quNJzNF/sxw2cM+8uz46NxjwBDG/k9t7s8Oz73ogNMx2y+eB0txe97fNKHscZoWYYKjHy+OiXf4mbOuj/nx5olOw2z+aL9rO1P/Tgkdh6f1XXrn81z5z/3Kz00HPPBXy7Pjt+M+PsZWLSF/W/E4/7L8uzYggQwEREYnjxxbuFztfMOt5w4Q/lm80X7vfHOS5nGZdM0X9dCxq/xI6yoQGxG9vvUj0MlTuNprILG9rv029QLd4rdPTk+nGPaaB+DO0iTsjfyk91yFwtgUo4GCgyb+D0nqpMAOrcRP83NqvHZfNFEULEKEk+EiTCa1c2W1Z+/Nn99Ti8jTFz9nEzlc1psaBgBytj2kjwOehbVHl3NkXou7zWAiZjNF3sjVAq9bdsal2fH5hwCDOfdLSHFKqBYhYgKVWBcq/D/z+A/Pqcn8Vk9qnVzuWLbkxOV3f9z6uWqUxAXb78meKr/ctIAULeYj/TfEZ+ktQYKpj25WqcRUBy5/sxDezJrLtc+o9Xsf1FypWGWhbC9G7+T4HHQryxVF1s3BrcCUJ+xR1G0G6+Y2wyQy6oi8dfZfHG1CicioNDODOPbiO7ED/EZPaohQPxbgsfwZLP5YjvRw/kQG2RQqdl80YbCr5I8Oy3KABWLioWxb4xuxNoHQE6vok3yc9M0/zebL85n88Wu61JI41UEiL/N5otv7fiXUj+fRYaGCYMTJ9Z1G3sDlHVaTQDqlqWyPdPaB8D92s2s/tM0zf8iQNyJmezA+NoA8ef4fB4l2NT3SYSG3dj1pVyn+EBvZHpypX3JAPA4cS7xPsnh2ojZigCU5e1aBeJRsi49mLr2PO/3dvZsKdf1xYWGcUL9NsFDWfdKtWG1MlZaCA0B6qSTAoAuvY/2yK/txo4KXSCNd2vhYeq25RIrDbMGJlnaiehIVFhkbAd2txCgTtkq+9ykAqhD2zn1a1QfHph9CGm8i7bltGNhhIbdMTS8PlmD4LfuEgJUKds5TrbODgBe7kOEFAfGHkEav8Y80nSjYYSG3VJtWIm4+/Yh8bOxwAPQO3MNAar1Ya090nc9jK+9Wfvfdif0TK9FUaFh0nmG6966W1ON7FWj3mcA9ck4EkNlO0Dd3kVQoW0ZcvhPfB5TnIOVVmlYQlCi2rBw8eHM/joKDQEAgK6s2pZtmALjaz+PJxk+i39PcDCeooSg5H17h2Z5dvw1wWPheXZiR+zMvs81XJ4df/MaA1TjqoD1B4C6tRum7LYtksuz4wOv9Wgum6aRKTxf9i7Vx3gbweHWmNf9pYWGpewau1dAeyt3K6VatA3RjxI8DgC6cZ60RRlg5VCQ8aebBS2bFd34aZ/H59joc0dBzCgOlmfHaXfULVG0369a8DcjWFz9mfX8a/TgsJjQMF7gjQQP5TE+xJ0ZVWCFiYWxlPeZ0BCgLhnPG1woAuvaIOPEEblbtBOuNhbZWgsmSrqeXXkXLcsfBViULsLv1XnND99ja6HiVvxkuREwanBYUqVhaTPcdqPikLKUVCG6bYYmQFXaSsP3mZ6Q6hKAp4mL+lUgcS2YWAsUN9dCiRKCxF9n80V77bFtXaBWa6Hin5/b2Oh2O37G/Ky2weHBGN23JW2EUmJoSEHiC6GktrANO5wBVCVb9c5pgscAUI02UGwrNZdnx/vLs+M2gGvP5f/RNM1P0fp9mfi5tqHFeXRmwSTE53U3Pqv/bJrmU8ygHkO7f8bghWlCw/688oVanBJfL7soA1QiWv7GOhG9jREYAD1rq5vaDUeWZ8c7a8HEL03TXCQ89qtZhwd2WGZqlmfH522AGC3MH0c6Z/s1ip0GU0RoWNg8w3XakwsR77EPBT50oSFAXTIFdUJDgIFFMNFWIm5GFWLGAPFDzFjbfMT/FqoSFcN7a+Hh0AYN7UupNCw1GNmI2Q/kV2rAKzQEqMt+kmdzam4VwLiiCnEVIP4zWpizVKT/uTlDgscCg1sLD/8xcLC/MeQ4PKFh/8w2TC5S+lLDXXMNASrSVpgkmSWoWwIgkahA3Inqpl+SzD9s25V/N5aLKYtwfzPmHQ7l16FyAKFh/965+5LebpKt1J/L+wugLmNffH2J+YoAJBPVTfsx//CnJOFhO+cwS6U8jCLmHf404O8e5AZv+tCw4HmG69x5ya3010cLPEBFoi34l5Ge0ZXzFoAyxAYqWcLDn9sNUko5dtCH9jM5YHD4YYhqwxIqDWsIRAZ5MXm6KKUvPZRWaQhQmbaKJGZXDW27rWLxfgIox1p4+MvIMw8/CA6ZuoGDw96rDUsIDWsJRMw2zKmGmU2v7FwGUJ+YXTXkfMOftCUDlCtuOL0Z6abTiuCQyYvgcIjP4Ye+d1IWGg5nZ8htsXlYzJosvcpwRbUhQIWWZ8dbA5x0tlUp/44TXAAKFjMP25tO/xqxZVlwCH8Ujg3xGex1rEzq0DCqp0reoGLdK9WG6dS0M6TQEKBScfHXV8tZW8m4uTw7PvL+AahHVI4PvaPrOsEhkxbjXoaYEz3d0LDCIMRg8SRixuS7ip6S0BCgYj20nF1GO/JWbLwCQGWi6nA3qg7HmHUoOGTSIrzve9TM2z730BAaDmsjNt5gfDVVGTbmGgLUb63l7B9ReXjxxCd9FaHjv9qB+dqRAaYhgos3A8/JXfngGpiJGyJ76G0D4b/39Rd3pMbqqfZOj5P0EcVsyQ8VPrX2i+I8weMAoEdRGdhWHu7Hmrb5wDlTuzacqygEmK5oldyazRft+vHzwAfi82y++GYUBlPUhvaz+eK0507HrTg37Fza0LCyeYbr2tLRLbsTjqrW2ZJalAEmJi4CT+IHAO7VtivP5ov2ZtLngY/UQVwHK3Jgig4GCA17kbk9ueYApLbW2GJERUatoWFNMxoBAIAexHiKfw885/BVBIevvaZMTXzm+vy89TauTGg4jnd9DqrkXtuVVrB+1969S/AwAACAxKJVeGvg4PCtUV1MWN/t+ULDyqg2HEftx11oCAAAPChahYcODt/P5otaO7/gPn2PkplOaBjVUtVWg4UPqg2HNZsv2irDjcqfptAQAAB4lJGCw72+WikhMaFhh6YSfNh6flhTuKP1zpwQAADgsUYIDl9pU2ZqlmfHX5umuezxafdSlCY0HNeugGcYUb06lY1CVBsCAACPFsHhkEUWb2fzhZFdTM3XHp9vL12VWUPDqYQ7r2JjDvo3papOoSEAAPAkscPrTwMetV+N7GJiem1R7qMoLV1oOMHdX91d6VksRB+qfpLXCQ0BAIAni+DwcMAjp02ZKfnW83PtfK5hxkrDqQUeG7P5wmzDfk1td6632t4BAIDnWJ4dt9enFwMdvHexYSVMwXlpz1FomIPQsCcRnk3x+Ko2BAAAnmt7wI1R9hU9QE4ZQ8OpzDNc926CbdlD2YnZkVPj/QQAADxL7PQ6VPHFxgS7w5imPjdC6UWq0HDiwZlqw35MdfFR4g8AADzb8uz4qGmaLwMdwV3VhtQuwvii/D3Zg51y0PGh3XK+xDdRVjErspdtxwvQzsp84/2Uz2y+aIfTtidEb+KnufHPj/HtxjyM1S5c58uz476H60JqsfnVm7WK68d+vlafo9Xn69vy7Li4uTPk1/M68NXaD3RsJ6qj+u7eehWbhKo4hOfb6nqH5myh4dRbKvdUHHZq6gvOlt3IxhOV029iB6vVT5cnW+/X/vnX1T/M5osmBld/iwXja4SJwg+qExUJW/Gz+cIRJz/8/8bn6TLCmfP4TAnneZQIB9d/3nR8M9M6APSuXfOiGOO3AX7dz7P5Yt/ND3i2ztf6NKFhnPi/TfBQxrTdHgcXIy8Xgc3U309Cw4F0HFx0YfXe//NxxEXk6VrwceK7hhJFJeF2/AzxWduIn/erYGY2X1zE5+hAEMNKnHusfqwDQDXaNuXZfHE60HfbruIPeLbO1/VMlYZTrzJsogppNyoOeRkLjc9Ur0YILrrwLn5+bkYOPuKOdYrK6uXZcRGflaha2k/wUFq7Q75nIpjfjvdMhs/b2/hpKyLaSsR25tNeFwGMz0Y51taBrRtVf5ndtQ4cLc+OO21neoj3OhSn/bz+b4AHvRNju9zUgASEhvnsCA1fJk7iSzl575O5hh1bu0DcqaSSdT34uIrg4yiGXvftzUR3y3+J14mO2SCDyuMztxM3grLuhL8RAcx+R3d3fTYSiwB7xzrQCe91KEh7TTGbLz6tbjr0SCENJCI0zKcNenaWZ8faSp8vywJzleAiV4tyB2bzxSoorDmMbt+rH2JTplXllJkyjCLCwr14T5bgwmelbtYBgO9WM/j7vsZRSEOV4hy3KH/L8GATzTO8SPAYGl+QzxfvpQwXmYdd71r0TML4Z2rfS7P5Ync2X3yNwc9Tql5dVU79bzZfHMWcLuhdfO72ov2plMCwSfJ9T8esA3+uAycRmgITFy3DQ4xK2YgRBlAboeEzZbkgPYmwZ2wbLtKfLcssw4MkF5FO8p9oLbRoLxL/0/FOlyVqL5J/by+anbzRp3h/fV3fBbYgQ7RyMhDrwA/aFuLfrANA2I+Oqr75voEn6mM+sdDwupNEVX6qDZ8nQ2h4Gh/WDKHhq9g8gQfcuEj8NfH8tLG0F82f46JRGE1n2jaNtpKpfX8V+rm7GnoDCfphHXjQ+jrgYh4masBqw3cltnLCA4orDhMaXncSc1tOEzyWd8Kep4kT2Awn+N9nCA69G+09VK0+4EaFk4vE+21ExcmJ7yheKj5754VvhqDKsAJr70XrwMNW4eGJzhiYrCFCwyZRFxl0pc/NBHsZtzd6aBh3D1LMM1zb1j1LlZ8vyafJ8Lpd3tjEJkMA7YT+Dm3oVXiF05jakOe/s/liP2aJwqNFRddBJZ89VYYFu1HpOvU25Kd6F+MrDqwDMC1x3TzEWC/dLdSmz6KLb4/43zxZhkrDTK3J30WbUYZNUT4oyX6cuNOd4WT/ZnBpM5SkogXtv4VXOGXQDso/V23CY0WF6klhG53cR6VhodY23bEOvEz7WTa6AqZnqA1RdLZQkz7POXrJHoSGf7l5gIcquX6ImTGPk6HK8OqWi0dzDZOJ6sLzQjdbyGojqk2yfG+S1FpgmKHDoAvrXQoUIqoLrQPdehWjK1Sfw0TEKKYhCm1cD1OFAYosehmPJjT8y7VwJ1pML0d+TK1dJ1/3i4vQDFUC+zcvHhMNx1cF9tfMqpoCi2x+bi/EVUhzm/j8/beyUQCqDAuzNrvQOtCPtvrczFuYjiFuGKtiphZ9v5frCw3jwjJDS+ldlQIHt/y3ob1yd+VBWWY/3vV+yTDXcNKLbWXz07J7G+3KLhj5UwQ1nys8IkLDglgHBvM2gkM3LKF+Q6yDWpSpRZ/X5JexqW/nxq40zNqavLIfLadjsyHKHSJ4zjAX6/CeD2mGasPJzmuKSt2a5qeV4FVskuKGBzUHhleJdsnnHnHj6Nw6MKhXMbbCOgAVsyEKPE7M/e2zYK63AF9o+IdbQ534EsxQbbjhpOtOWY7LfTMVU1xUTvGOf9yV/KoNbTSffXdNW8WBYaPKsAwVztEsjXUA6jfEeig0pHR9F4L1VqgkNPzDfQfYhihJRQVZhirM0wdKgc01HMHahaI2tHG5YJyouFFRa2DYCA3zEximYR2Aii3PjodYD9+a80+p4py4z86/qz4/h6OFhgXMM/wuwqAhSq4f8s5smB/sJAmE7t25Od5fQ+ws9pDJvH8Ehum4YJyY+AzWHqpluSHELawD6VgHoG5fBnh2roUp1b15QQd6Peces9Iwy4f+Ma2jGVqUG7MNf5DheFw+codkcw0H4kIxrc9ufExDVAIcVf4ZPL3vhiPjsg6k9TlmOgH1GeJGofNIihPrXt/X4b12xwoNHxHmRCiUYQfc91GhOXlxtzpDpepj7xqkqEip/WTdhWJ6R77DJuEoyfdzn7QmJ2UdSO/ALqhQpSGudYSGFCWue/ouQDvte2O+MUPDLOHFY7/gssw27Lu0tRQZWlzaKsPHfgmYa9gzF4pFeBXBoZk0lZrNF3sTqWrWmpyQdaAIryI4tA5ARWKk12XPz8h8WooxYOdN7/nQKKFhnNRlOKG7fGADiz/FYMm+vwgf48PUT7QGGCT6WI++axBtbBneP1WGhhNph6zFWzc/6hTfzb9O4Kle9n1Hl6eLdeDAOlCEt4luxgPd6f2GmlE3FGR/gKD79JGj0l5krErDYlqTb8hyoTv12YYZqgyvnnHCm6Eypdadx04m0A5Zk5+1mNRlLbCZAlWGOR2pQinKh0RdR0A3hlgfjTcgvdl8cRDrXN8GyYX+PtIBLzU0PIoEmfYNAAAgAElEQVSgaOy72LtTrdSJuQBDfAAfcvSMIfgnSR77Vk3zuOJLecoXim0F682K6RLaQyexMc+E7E0ouDfPMJnZfLE/8e+UUtcBIS/URWjIpK11vw2xBn8cqvNFaPgEbUgUJ6Zjt1+9ajcCecI8vZpkCUuf8zgyzTWs4qI3NsTJEMT26SJ2ef+6eg89pQw9gvb253WcaK1+VGbSiWgV+nlCR1OlYSKxwVft778+1oE3QjugS+3Yr9l8cdVzgY0N9UgpRvANtRngxfLseLBcZPDQsMR5hjdkCA2bCK0mFRpGcp+hleXwOe+dWEgvE4Q1VbSFxkVQjTORLmLBOeliRkW8V1fv1z/D4vg8ba39uHjkuTJ9Dm9WXK1/hl7fqFB4zvnIl2dUmdOTgXYlHIN1ACjVec9VVjpVSCc2AhwqI7oaelzbGJWGpbYmfxfVhocJqps22rvrsUHLVOwmCZxfcoGSoUW5nWv45pmheSY1bXxyEe+ro6Felwg+jlYXkHHxvR2LkAtHHiWqfcd6v5zGd+r3CqzntmisVWFtRrC4dU+gqMowl5o2PrEOADU46TvYq+Q6hgrEefDQI3p2ht6QT2j4PHtJWiJ3JzZbKcMGKC/doSjTXMNiqzPibk4NFzTtDYj9DDuxxslXWzG2HxeOe3HxaCdSbhVVSkNWGV6uAo4ud4pbq8K69nfG52DzRhWWeYZJzOaL3UoqTjKvA7tx7mUdAB5riDDvzUC/B241UljY+mmMojGh4TNEm+mXpmnej/kE2pPltt07w4lm3+KDmWEG20uDtiyvVbGhYVzIZBgR8Fyrnbf3s7Y5xoXjToRCu4mqfMlliPfF1WoTsqHXurUwUVCYzNqNjZK1YeFe1mqZeFy7cZPOOgA81hDfaZsq/xlanHvsxM8YucRPY+1pMWhoWME8w3X7CULDZu0ucO0yXBxcvvSD2l70DjAg+DFKnmtY8vyq1BeJN0WouRcbQLloZN0qUO7LZXzvP2eneuq3X/B3kXUAqFbbCTCbL/p+eq+9gxhC5FdbCcZ2jBYYNiNUGmbYxKLp4s5EfCFeJGiR/NDeBa55rkPszJmhyrCr4PIkQeC8UeI8kNgls8R2tPa7YrfLlsohrV00HiS6YcK4+goOLiNQmdRGXzxenBOU+B10GXOISl8H9mMdyDBqBcip7wKJzUf8b+DJ4hxjfTTN2DfJ2s/S1tidpUOHhjXMM1zXnjR97ujveondnis+xpahyvCqwxa1DKFhU2iLcom7JX9anh1X8fmMkHk7wtuaNiDg6boO76+iBbn0llP6V2Kg/CnC8OKrZuM57MRNpIMkN3WBXPreQVmlIc8WwWBzYwO8NwnXs3bDv+0M5w5Dh4ZZKoQ6CQ3bSoiY9TL2G2wnqg2ra+GK2QEZ3jddzp/LUmVQVGiY5LP2FFdRVVLdPLT2OcVn80DVIR04jc+KoebcK9F848eqeR04ibYt6wAwtKmEhltx/cPD3sTPXUrqVLuKG41pimUGCw3XEt2xdTHPcF37Yv5n5Of0KvrsS6zCekiWL8rOwjVzDZ9ubUOOUlyMsR3+kCJE346TmZI3pmE86U6KSK+ki6fLqBCYwjqwm+BcGMjjpOeQZuzxYEN5V+hYJp7vMEZapSoG+9uAv6u21uSVg7jwGVt17ckRFGWYmXPYQwVMhouIjagSKEFJg9cvMsyeGEq0k/6U5HuQcqw+JwJDHqWwKsP2/b05oXWg/Rz/2zoAAM/ShoX/WJ4d72TsHhUavlC8qBlaPDfihLomWYLQPiobMrUol6CUUHwVhExqt9fYtGLLBSOPdDqlYJ3OlFJlONV14Mg6AIRJff/BM7Xr5ce1sDDtmJ4hQ8Oq5hnekKVSoppqw0TtqKc9fYCFho8UYXgJVYaTvFBciQDIBSMPaSu3J/s54XkKqjK0DlgHgAE6qhKNPoOn+tJW5y/Pjl+3HVslzPQeJDSseJ7hd/F3Hnb99z7D24q+QLeTBEW9VDa0A8T7+HufoYT3SwnVJZO+UFxxwcgD2sCwtop4hlHCTdFL64B1AABuuIqsqB3j8f+WZ8fbpW2QNlSlYa3zDNdlqTasZYelDM/jsudw77THv/uxXmWeaxghePbqktXumCqn/rpgrG7GKi8mMORZYo3KPvT+KjY9sQ78tQ5sJ3goADC0ywgJf2ma5p9RUdheKx6Vep4wVGiY5cShtwAoTpAyhEDvZvPFfduNpzebL7aTBEV9B5eqDR9WQshQ9S7JzxEzDn8p75HTE4EhL1HCTYhd68B1cdP1p0yPCQB60t48/BTVhJsREu7Xcm7Qe2gYs+my3CHuO6RRbdiNDBcIlxF89EloeI9Eu2ff51Np5eVDid00v0zj2XKPC4EhL5S9Yu3TAOcLRYrjkmF8DzAsN1GYmnas2s9N0/zWNM3/zeaLb7P54mQ2X+y1BVFxXVusISoNq55nuC7Cg8s+f8cjfSj1jRntqBk2zRniAiDLgvo+wWO4TfYLxTYM0YZ7v50k34mM47KgHdpJqICNsC4rGgvTl13rAEyLUQ3w/dylzTR+XQsSz2fzxX6Je1BMKTQcqqory8ljqWFGhoqUqyGqRmNBvej79zxG0i+v7KGhwPAB8R5XZTZdZrzxUtnXAfNsHxDHx3xDAKbubVQj/h6ViAeZ9xZYN6XQcJCqrmjFyLBj3G5p1YYxizFDO+qQQ0q1KN8i3rtZKyCbmNGW5bVLLY7Tp6kfhwn6aMYbHci8DnyxDjxOfBdYBwDgD68i9/hvVCCmLrLoNTSc2DzDdRlmG74q8M5ulsqtIatFhYa3y/zevVJl+GR7SW6mMIy2dV/LJi8Sm6JlZh14mj1tygDwgzYv+xzVh3sZC7/6rjTMEkRcDVzxsJ/kArmYi7b4cGRI2A/7nn15Q5bQMMMcyXWZZz3sa0d7mjheQqTp0JJOFzKHhh8HPlconnUAAO71KmYgfs1WeTiV0HDQYCZOjDLsqLpRwJ36lSzDzgfdAdFcwztlfd8OMu+yRrGbsiqT+n3SlkxHst48sg48U4zwsQ4AwN1eReXheZbrc6Fhf2yI8jQZHufpSPOJslxgpwjqYiBs1t0yVRm+jCqTul15jelCzDjeSHowh5x7XCPfEVC5EneHhYTexqYpo9+o/Htff/GE5xl+17atzOaLLwmGeL9rv7gzD+uO8tsMFweDVhmuOUmyAUyWBT7zicZY75EqtFUm7ayOxGEALyNUpyuZ1wGh1wtYBwAe7aMZ0d24EWS3OdVq1+LNtX/PWrTyczz+nbG6eXoLDRO1Fw49z3DdfpKd/3YSzc67TYYqw8tomxlDltfmbRv2J7joz7r1/BczrDrRfi/+p4LnwXVaNulS1nXg1DrQifYi+HMFzwOAAtxSQPXDKLkoetu88ZOlCK59HCdtsdXy7HjwMXh9tidPuTX5u3hzno71+9d8iFafdCI1z/BhHO0uTlyAZJnxk+Fzm7XCRJVhNxzHOqkypEvWgbod2VEfgEza89g2v2nnsC/Pjttwrg0N/1/TNP9uZ3YnuF5vKyF/G2OTFKFh/7KcYGYtbc5QZXiVYOOaLNWGGT63GVuWrsa4q1OjCJYOp34cKqTKkC5lubO/LsO5QhUSbRgI9CNlsQo8VQSJ7Szj3eXZcfu+/kfTNL+MHCB+HnrOYS+hYbIB1qOGMYl2ituOkts04n2SoX07Q4WM0DD34GQXN91yPOtyqMqQrsRmWBmdeJ93yjoA9eo9NMw8r596tR2CUYnYvsf/OWIhRDvncLDitL4qDbNc+I85z3BdhgqMVwl3Us5S/ZihGjTVXMMRf3/Wi0UXNx2Kqk2tafXQskmXrAMTYB0AoGRtztS2MUf14ccR1rQPQ7Uq1x4aZgliDpKcGA3e/36XCKYy7Bh8mGGoeTyGLCfPY25ilKoado27md1zTOtw6W4/Hcva1iY07J5jCnXKevMHOhfVh3vxvh+68vDzEMGh0HAA0c6SodpwY4zBmXfIUvWYadajFuWcw+9PtaT1wsViHbyOdC3jxeaFdaAXvj+gTn0XAVx435BNhIdt1vKvgd+j+32Pduk8NDTP8E42RLkuQ2h4mqHKcI3QMKcMIw5qpDqtDi766VrGinPfV/1wXKFOfd/8cROHtKIDZyt2XB5CO4buoM8RY31UGppneIsIpzLsGLox9mYTUe34aszHELLtKJ3l5Hkjwv8xvBv3qd/KRU0P4jsxwyZRPN+V1mR6kLHS0M2jHkT1poohqE/f13lCQ1KLXZfbIqmfBhpB9rbPbKPm0DDjhUyGFuUmQViWIaxLN4crQu4scw1VG/7FxWJ/HNuyCQzpQ4abijdl6kqojXUAKjJQcYrvDYqwPDs+iOvqIa7xf+7r8yc0HFCEQqcJHsq7sSrJ4o2coX09W5XhymRblEesbrxXshb22jjpK5vXj0lQUdsr3yNQlyFGTKg0pBiRAQ0VHPYyEq/T0DAGMJpneL8sYdVYjyNLlWGWGZM3ZTl5HiP8zxgaapvql4vFsglS6FTfg7yfyRiFflkHoC5DfI/73qAoAwaH7ZixzvOWrisNzTN8QNytznAC+mHoyq64GMgwsy5rYNgkm2uY8eJtaO5k9ksVZ8FUX9GDjJug+J7ql+MLdRkiD/C9QXEin9oZ4HHvdr0pSq2hYfYLmSzVhkO8addl2DH5KtFsyR8kuwg319CdzF5lvbnDo6i+YipcnPbICBCoTu9FKb43KNXy7PioaZqPPT/8V13nLkLDEURrbIYLrs5T6LtEVeOHIX7XA45it77MMsy9bISG36k0hNs5YWcqvNf75yYEVCCuK/seVZblOgmeZXl2vDfACKxOc57OQsNoZcyy410JLVMZWmTb12t7oN81dFXjXbJugLJuspuhMElO/sqkShToimAW6qA1GR6n72zkVZe/o8tKQ/MMn2Z/oB10HtJ7iBYpd4bW5MNCytmzhIavzDV0YgJ3UIULAKwbIg9w05LiRV71qefn0Vn+UmNoWMRg9miRPUrwUNoNL/pOuneSVKFm3gDlT+YapiI0hNs5aQcA1gkN4fH2ei4i62xjU6HhuKayIUqGKsPTwnb67HvOwWNNPTQEbqfSEAD4LjrL3vZ9NAq7noM7RRFZ3xu0dpLDdBIammf4PNEqe5jgobybzRe9hENRxdj3QNzHKKLKcI25hgAAQAmGuGYwB5va9J1RdLJ/RVeVhmmChULmGa7LEmb1VQ2YYQOUy9ixuiSZ5hoKDgEAgLsMsbmm1mSqEkVkX3p8Tp3sUdBVaDjUDrwPKe7uQ5RYZ3jc72fzxZsu/8IIm951+Xc+Uwk7Jt9krmEOAlMAALjfEOfMWpOpUfpqw65CwwzBUFPwF0mWKriuw7UMVYZXSTaceZKYcWCuIQBTYlYmQGGikmmIcVRCQ6qzPDvuO6t48bX8i0PDZK2LRX6RROvsZYKHsh1DbF8sqhY/jPt0vtuPAK5EWd7PQ90UsFMxwIQVOGIGgGEKRU4LvqaDh/TZovzia/kuKg0zzTMs+e5DhhbaVx3ONszSElzaLMN1aS6ehrg5EDMdsulkm3rulaVSHeA2qu371+l4HGBwQ4wqU2VIzXp9f7/0Wr6m0LD03ZSOopV2bC8ODaNaMcOcy8OkQdRjmWs4vk4qbwF4tAznQgxriLZGoAcDtiYXN24KnqDvYqEXFcJ0ERqaZ9iBKLfeT/BQ2h12XlpivhtVi2MrcQOUP0XgmaFtvRkwBM4W/qt+6FEXu3kB1cnWoqwaukddb8IHDK6rLrX7XBpfQc0G6Jh90Vr7otDQPMPO1bIhSoYNUE4LrzJcyfK+ftvVvMvCqH7ol0pO4KZ0M6smuv4NRWgIhRqwu0yVIVPQ5yaoo1YammfYoQi5DhM8lI3nBsJRpZghaCm6ynDN1FqU032Ok90cqY1jC9yUsZpEVXR/HFso1/ZA3WUlz6iHx+rzpqnQsIJ5huuyhF3PfRwZHv9lDSFymFpomHFXNBc0/XFsgZsydgm4wdEf6wCUS2sydKfP6/4XhfvPDg2jHNk8w45FtWGGEPTdU+eNRUWWKsMOJZtrOMRFkwqTaXFsgZvspD8tji0UKK773g7wyFUZQgdeMkP4JZWG5hn2J0vo9dS7R1mqDGtbXLIEaUPMNcwYGqow6UG8l8yMBK5J2ilgHehBrANDhA5A94a67hMaMhV9XwdPOzSsqBX1u3g+fQ7CfKwPj02k43+XofK0xoVlMi3KsYt4lsrKlQ27O/bCRThwl2zrwCu7vffCOgAFGvC6r5aNLeExMo7p+q6G0LCmeYbr9pM8jsdWG2aoMrxKdNy6lCk0HGKHNNWG0zDEewkok2rDaXBMoUyqDGFCnhUaJmsnqK01+btosc1wp33noZbU+L9/GO4h3ekoKtWqEsN/r5I8p6nONRRwdc/FInCXjOvAToLHUBtrKxQmqq6HuO6rceQUjGnw9mTzDIeR4Yvy1SNOlIfYOesxqtkA5RZZ3udDtOpm/Ey/H2Ce42TECad5hsBdMq4Db42q6I51AIo1VFeXwBC6Nd3QsLZ5hjfsJ6kwuzMUjCAlQ2h4WPnMiynNNcz6mVYR0Z0sNxqAhJJV2K+zDnRH5SYUJnZMHmKWYa0jp6BIpYeGtc4z/C5abTPcZWmry+46uduOasSx1X43KlOr1hCf/4yfbUFXd1x4Aw/JeANJ0NUd6wCUZ6jrrYMaR05BqZ4cGppnOLjsG6JkaAk+rbziNFv13RCh4dEAv+Op3to98+XiBkSGGw1AbllblM1jfaHZfLGtNRnKMpsv9gb83KoyhESeU2lonuGAouX2MMFD+eFEOdFJ31RmXmSpvpvqXMNGtWEnHEPgMTLePGpUG3bCOgAFifP+oT63tY+cgrv0nbM9+3NVdGhYe3XZmiyh2M3FIsNJ35R21sr0fu+1rSjmWWXYPfymDwbhP1/ceMhSqQ4kFheNFwkfoXXgBQaciQZ052CgLpErNxWgN4OGhllmkFQ9z3BdhKMZnu/71YlyopO+mndMvkmLcg5Tes91zbEDniLrzWHfZc/n2EFBZvPF7oDXfPtmGTJhacdgPSk0jMAoywySqVQZrmSZ7bA62cvQnnOVOFjq3ATnGmatIFVl8gyqS4BnsA5UxDoAZYlZ3v8Z6EHbMZmpS3te8dRKQ/MMR7I8Oz5K0q75IRaQDwkeyxTvRmWpsH3V96YgiVuUGyc1z+KYAU8S60DGFuVmQvOUu6TKEAoRm58O+T23q8qQiet7hNP5c/8fiw0NJzTPcF2Wk60sx36KJ+zP/rD3YMrVhu/toPl40dpiliHwHFnXgXexIRyPEDvnqzKEcuwPeO52OqEZ9fCDIa4rXxLKlxoaTmae4Q1HUbo9tiEG4T5kqjtraVHO4yDuwnKPaOFTXQI8l3WgcHGMVJtDIeJm75BdZTY/Yer6vq5+Uffeo0PDZPMMM1VbDSbSYSddf5hqCDGp0DCC4S99/55n2vB5fJShdtwDKhTnPodJn9krbcqPYh2AQkQF9VBzDFsfYxQFTFnf19UvKrZ6SqWheYY5CCn+KGGfYpXh6uIpy3ynVwO16Ga+IPsQLVfcYuAd94B6ZV4H3lsH7hbrwPusjw/4S8wrH/L79tK1LVMX1fh9Xy+9KJgXGhYm+R33oUy91XFq1YZZNgG6y37fm8KUKALlIe9UA5WKOdZZN0RpfbYO/GjgnVeBF4jP68nAVcHbNj+BZogbj5MLDS98uUw6NLuc6CY466Y217BJ/p5vT66OzLX6S5x4HmV5PEAVslejnFgH/hLHYurna1CEkQJDbcnwhzpCw2TzDCd/AhKtuVPdDGbqVYZNspmeg7Sexo5qmasNN1ww/iGOgflVQKcKWAdeWQf+sBYYWgcguZECw3bUlGs6Ji86s/repfzqpQH9YysNt1/ySzo2+dAwTPGL9tJ2/H+GxmkunAaaa9gU8J5/O/ULxrULxb4XP2CarAPJWQegHCMFhlfJsgUY0xDnNS/Ozx4bGppnmEwB8336MPnAcM3kWpQLqDJppnzB6EIR6hOdJmlYB3KzDkA5RgoMG3MM4Q9ReDNE197kQkPzDK+b0m5TV3bXumaKcw2bQipsVxeMqS62+7R24ulCEeqS8XtsN8FjeMhqHZjM5iix5lkHoACx4/t/RwgMfzGbHv40VLbx4jnzD4aGccKTZSaJL5k1hdxx78qRwPiaTJ+Fd0NVVMR7voR5nu1F0/kULhjjLpkLRejO10THMl1oGDvql7IOnAw4wmM08RzPrQOQ32y+aIOKzyM80MPl2bECEPjjc7g30Jp5EaPNXuQxlYZak3ObypevYblrss01VG14q/Zmy39jUahSPLffDbuHTmUKDbPe+Cih2rCJ78bfK18Hdq0DkF97g382X7TX0j+P8GDbjU+G2CEW0ouikl8HepydjHcTGpbvIFp3a3bYRUJeoUm2KEdbw6ehfl8Hfm1P0mpqV26fS5x4DrXgAeNIOaw+dgEsbR04r3Qd+E+ChwPcYzZfbMcNqSHmp910YeMT+EN05724XfgJJhcammd4izgmtW8QYgOU271o6/SODf09sVdYWP4u2pWLrzaJ53A+0oknMKyNmH2V0V5hI1raNqT/td+hpW+SYh2AMkR1YduV9ttI1cBtYLjlGh6ubRa2MdDhOOzqs3dvaGieYTFqblE+NTD3TpmOy9shL4LiC7C0NodXUW3yNfFF+J3ax9w+9qgu1IYG07GfMeQqdB1o4jv03DoA9CmqC89Hakdu4ua+nZLhL/sDz/7tLCN6qNJQa3IBonX3sNKnp8rwDtGelanabtDvixiGX+L7vr279LmU8HDtIvHzgHfGYMoyVZE3EQ59jQvQW0Wr6lbMtxtMgeMqVq6tA9krD60DUI610QG/jfh5vYoKQ+OlmLyo+G2vWz8MeCxOIyvoxN8f+EuEhuXYH/iNOITL2C2Xu7Wfi/dJjs/WwDMamhiGv1XoRczqonE/wvH9LCdXMXdrJ35cIMKA2qqM2XyR7ZC3weFvs/ni6kao+frmXfPZfHEwcGXJXqwDJe7cuxFBXFvNaR0Ani1uPuyNWFm40rYk73QZWECp1lqShz5H6XQk1kOhYZYwwjzDB7RfzLP54rSy+TJ2TH5YptBwe+gdLePiuv29/x3y93bsVZzg/TybLy4iQDwZ+mQrLhC34wKxxItvqMlV0vbPV484z9gc8kZvrAM78TtLbZnNtg5sm1cIZYhQYjd+xv4ONMMQQtuBEQU1Q38uD7se73ZnaBhPMgtVho+zX9FJ3tUIVWslyvTZaAfmvxm6SiIC818q2cHx7ep5zOaLy3h924vG866//GNm7WZU6JRarQm1KnmTia2h16ZYB3ajaq90Y6wDmxEUWgegEGvVwBnCwkZgCH9YC/J/HeGQXPVReHVfpaHQsDDtjLc4wazhpG/fovOwuFDK9JC2xphDuTw73o+Ln5pa9Dfi+Xx/TvE6tydk39a+E7/Gz31exwVhE3++VkEC6X0t+HO6+Yj/TefacSZxw3sq68B5/GkdgAmJ77mdZN917YzxXdduTF18Pg9GzGP2+ijgERrWZ6+SO+1mGT5eprb0UULD5o8Lxp0IDmturV09Nxd7ULeSh8ePdv4Y68Cbyr8jrQMwMWujA3YTFod8XJ4dGynFpEVYuDfy2txuftLZjsnr7ts9OcvJiHmGTxAbh2TaUfc5Du229SSZQvWxbzZsRRUG+Z16jeBOJd8sfRUXuGPZtg4UwzoAd4hdkHdi19X/xdiCTIFhe735b4EhU9aGhbFb+e8j52dXcf7Ti1tDQ/MMi9dLwjwgi8/TpJtrONYvjxsM2xUE57X75Lsd7lX6rpOjtCg3f60DbiDl98U6ANdFALE3my/OIyj8nGjDw3Wr+YXmzzM5EejvzuaLrwnCwpXtPgvt7qo0FBqWreTQ8FSV4dN0PRi9A6N+f8T7Z0twmNalGwNwvzjxuyz4MI0WGjZ/Hb8d60Bal/H6wGS1myWshYQns/niWwQQvyYftXMYgWHpN7fg0daCwvOElb8/9Z0H3DXTUGhYsPZkeTZfHBY6DFyY8DyZ5hpujz2TMjaIWe3gmWFHOf6yHd9RDgnc76TgTT1GP4+0DqRmHWBS4rvo9dpu5ZsFblzZ3oTZUV3IFMSc/M04n9lK/Hn9FOPpenVXaGieYfn2CrzYuExYNVeKk2SboYzOBWNKP7kzDY9WcmiYYj1aWweOCrxAr9Uv1oHibQp8f/Amfpobu5XXsmHRlwgMXZdTjbbaNz6rqz9Xn+NSPrftPhC7Q/yiH0LD2XzR2wDFZxAgPVPbojmbL74knYNxF1WGz5fpBLwdgr+Z4aJg7YLxoPJdlUtwOMSdMKjIUcyzKlKydWAzzimtA+M67GtnRwb1H4d7MlQXjmsn2V4TNXhdyblAu54ONubjtkpDrcn12C8oNLwUKLxIxrmGKYLMGxWHLhjHMejCBjWI9s2Lgr+3NhOtA9+sA6P7Yh2AorSb1u2pLhzVhip5bvHT0LnJbRuhZAoNtS+8QLT6nhbycAWGLxALeqadIlPdFVvbTfMwwcOZGoEhPF/JVVnp1oHl2fGmdWAUFzY+gWK0147/bNseBYaQSlv5++8xCq2uhYbR153lDuylXXQ7UUIYd1X4hVEWmaoN05XSxwVje9HyS4KHMxUCQ3iZo4J3AB51B+W7xHfSTxkfW6UuYqdV4QPkdhmBhJ2RIZ92Ld0ca1TAzUpDrcmViST6MvmzOnIy2YlMn5lXMUMqnZin9K+CL8RLITCEF4q1sdRZUmnbgOPc6J8FnB+Vrl0HNp3jQWqX0e74xuxCSOljrKWjFdQJDachexWfDVC6ke0zk2lTpWuidf9N7AZH9z4KDKEzxa6RmQe4RyXNpnWgN5+sA5DaelhoTBTkcxGjAkY/DxQaTsNB4qqqQ23o3Yg7+ZmqJlLv9hXtym2w+W9Vh525ihNQNwKgI7FGljqHL2XF+Yp1oBerdWC3wlYEVwcAAAPaSURBVOcGNTgVFkJq7Tr6S1QXphgV8GdoaJ5hvSJMylptaLHqVqaw/V2Cx/CgaMVQdfhyq7lVPtPQvd1CQ63UN49W1tYBm6S8jHUA8mq/3/4VMwt9RiGf9jzvY3s+EuO00livNFRlWLeMi8NptInSnVTHM3Nr2rq1apN/mXH1LB8z3Q2D2sTNvxIreFNXGq5b2yzrXxF+8TSfIjC0DkAeF7EB4P9rv99cd0FK62HhXsY5wELDiUja3uQuV/eyfXaKCA1X2pOptl0jdtbUqvawNLM2oHZx17m0iuiN6GQpRqwDm7EOuIn0sIuoXtq14QmkcBkh/j/jhu6+zyakdBnnGmnDwhWh4bRkKnO9VBrfvQiHzTV8oXhvvom7PsLDH6WbtQETsVNgFVzJ68CmdeBO6+uA83YY13pQ+CZCfOdnkM/V2qiA73NFSwj1v4eGs/nijXmG9YvF4zTJE1WZ1B9zDTsQrWp7a+GhipPEszZgCuLEcquw4LCYFuWbbqwDKg//YB2AHE6j9VhQCLmtgsJ/L8+OX5c4KuDv8acqw+loT35/H/nZth+coykd9IG1n6EPWR7MbL7YjiHzRVqbJbY3my92otKn2DD0ma6iUlmLC4ys/QzGvNiTRDd871NkpeG6+N5rKw8PrAPWARjJaXzvn6juhfSq+rwKDSemfdPO5ov2TvnGiM/cCWe/st1l3KolJI52tfaicTMuGtufVwkeWl8u4iLxyGcW8lgLDtvvpPfJX5piKw1vs7YOvIldrbdHPqfq22XcOLMOwHDawOFrnNOfqCCE1C7js3pea6gvNJym9uTv84jP3CzDHrUnFrP54ipRmFV8lclNcfLWXizutpWUcdG4XUmAuKoE3neSCnlFgLM9my92Y13P+v3TBpyvawucYpSOdQB4yefsPMLBVUD41WcO0rpc/6yugsIp3FD7e9wpzXKH1DzDAbR3yWfzxf5IJ7aHXuNBnCSqPimhfe7ZovX6eyVlVP5sR1Ba0vO+jOdwUnIrOUxRO1duNl8cRFVwltEUq9DpaArfKRWtAydTec2gY1d3dPqc3PLPX10LwehWAeC6bzc+x6vP7CSCwfvMlstl3kcHUKi2siYuGreiPS/T/Kur1ZwNbS9Qj7gRvBqdMPQN4Yu17xShk3UAAKiA0BBgIDELcTN24mwvIl8PUIlysV5CH3fL3OGGysX3zarireuw6tr8HnfhH886AACURGgIMLKoRlltFrAZF5Erb+LnLjfnwCqlB34QVYhvbnzH3Py+Wbf+3bKaufVNRVo/bqwDN7/3H1oHzqOtakUbJADwck3T/H/n1yI9CSct0QAAAABJRU5ErkJggg==;" parent="1" vertex="1">
                    <mxGeometry x="690" y="-125.44999999999999" width="56.65" height="46.18" as="geometry"/>
                </mxCell>
                <mxCell id="34" value="" style="points=[[0,0,0],[0.25,0,0],[0.5,0,0],[0.75,0,0],[1,0,0],[1,0.25,0],[1,0.5,0],[1,0.75,0],[1,1,0],[0.75,1,0],[0.5,1,0],[0.25,1,0],[0,1,0],[0,0.75,0],[0,0.5,0],[0,0.25,0]];rounded=1;absoluteArcSize=1;arcSize=2;html=1;strokeColor=none;gradientColor=none;shadow=0;dashed=0;fontSize=12;fontColor=#9E9E9E;align=left;verticalAlign=top;spacing=10;spacingTop=-4;fillColor=#FFF8E1;" vertex="1" parent="1">
                    <mxGeometry x="760" y="-140" width="420" height="570" as="geometry"/>
                </mxCell>
                <mxCell id="36" value="" style="shape=image;verticalLabelPosition=bottom;labelBackgroundColor=#ffffff;verticalAlign=top;aspect=fixed;imageAspect=0;image=data:image/png,iVBORw0KGgoAAAANSUhEUgAABQAAAAEyCAYAAAClGX1CAAAABGdBTUEAALGPC/xhBQAAACBjSFJNAAB6JgAAgIQAAPoAAACA6AAAdTAAAOpgAAA6mAAAF3CculE8AAAABmJLR0QA/wD/AP+gvaeTAACAAElEQVR42uydeXiU1fXHv+fOTAIJ4IJkJgHcimTeBBEF3BdwA2YSUat0UbGtW92q1rYubX+itlqtbdW6t3W3alwQMjNAUXG3CqgVkhkWRQUz75sgLpBAMjP3/P4gWq0smXf2mfN5Hp5WmPu+95577r3nnvfecwBBEARBEARBEARBEARBEARBEARBEARBEARBEARBEARBEARBEARBEARBEARBEPIIEhEUNiNCK8rL1IARiTiqCKqMgAQ4sc5JsVVLGnb7tGQFw0xGKLors2MoESqZQAx0EumPI294PsIM0qI9giAIgiAIgiAIgiCUAuIALDRmsKodZx7hAJ3IhCMBeAGorfRuGzFeAFGofyIxc3FjTVcxi8YItu3GUD8gxtEgHAigcis/3QjCGwTMj2t6bHmD+31RLEEQBEEQBEEQBEEQihVxABYIw5pW9x8wwHkGMV0KYHcbj1gP4O867rhp2dQhbcUkm7pA22Ga6EoCHYutOUO3DgN4TjNft6yheoFomiAIgiAIgiAIgiAIxYY4AAsAb8hsJMatsOf4+186wXxthcfz58XjKFbIchk17+PhiYTjFjBOSNMjA6z4wsiU6g9E6wRBEARBEARBEARBKBbEAZjHDGta3X/QANfNzDg7A4//N6C/H/bXfFiIsjGarROg+F4AO6b50V8Q+KxWf3WTaKAgCIIgCIIgCIIgCMWAOADzlDEzP92x27WpGUSHZvA1FrT2hRtr3iok2RhB8yIAf8mo/hLdEPa5LxdNFARBEARBEARBEASh0BEHYB6y5/x1O5T39LwAYEwWXvcFtJ5YKE5Ab8D6PyK+OkuD4/pWv+dK0UhBEARBEARBEARBEAoZcQDmGRMWsNPaaM0HY0K23slAO0Hvn+/XgY2AeQYIf8/uCKHzwj73naKZgiAIgiAIgiAIgiAUKkpEkF9YG9t/l03nHwAQUAWox8YuYle+yqU+2D4GhNuy/mLmm+vnRMeLZgqCIAiCIAiCIAiCUKiIAzCPqA22jQPzL3L0+gM7LevSvBRMEzs0EvcC6JeDt5fpBN2Xz85RQRAEQRAEQRAEQRCEbSEOwHyBmQjqDgCOXFWBgN/UzuqoyTfRGBXmOQDti9wJpr7LtM4XJRUEQRAEQRAEQRAEoRARB2CeYMw1pxCQ66umlQ5nPK9OAY5dxC4Q/SrnFSFcNqxpdX/RVEEQBEEQBEEQBEEQCg1xAOYJxPhZPtSDQWeNbW6ryBe5dJnWdwHslgdV8QwcUHayaKogCIIgCIIgCIIgCIWGOADzgNpZHTXMdHSeVGdgp1LH541wiKbnTV2YTxNtFQRBEARBEARBEASh0BAHYB7gcCUmI4ex/7agFP58qMfuC1b1A3hiHnXVhNpZHQNFYwVBEARBEARBEARBKCTEAZgHMPMReVUfIC+cbv029DsQucn8uzWc5NAHi8YKgiAIgiAIgiAIglBIiAMwHyA1Ks9qVF0/d/XOOVdOor3zcMSMEoUVBEEQBEEQBEEQBKGQEAdgPsD8nfyrkzPndWJgz3wTC2n9HVFYQRAEQRAEQRAEQRAKCXEA5poZrADkXVw5rdWOua4DEe2Yd/2Vj3USBEEQBEEQBEEQBEHYBuIAzDFjx0b75WU/aAzIdRUY3D/fxMKEStFaQRAEQRAEQRAEQRAKCXEA5phYmaJ8rBcT8qFeeScbxSDRWkEQBEEQBEEQBEEQCglxAAqCIAiCIAiCIAiCIAhCESMOQEEQBEEQBEEQBEEQBEEoYsQBKAiCIAiCIAiCIAiCIAhFjDgABUEQBEEQBEEQBEEQBKGIEQegIAiCIAiCIAiCIAiCIBQx4gAUBEEQBEEQBEEQBEEQhCJGHICCIAiCIAiCIAiCIAiCUMSIA1AQBEEQBEEQBEEQBEEQihhxAAqCIAiCIAiCIAiCIAhCESMOQEEQBEEQBEEQBEEQBEEoYsQBKAiCIAiCIAiCIAiCIAhFjDgABUEQBEEQBEEQBEEQBKGIEQegIAiCIAiCIAiCIAiCIBQx4gAUBEEQBEEQBEEQBEEQhCJGHICCIAiCIAiCIAiCIAiCUMSIA1AQBEEQBEEQBEEQBEEQihhxAAqCIAiCIAiCIAiCIAhCEeMsxErXB9s9mrWfCYcQsC+AXQHs3PvPPQA+YSCswO8QHPM/7+x+cc204Rulu4WipokddRXRg5nUsQweRyADgBtAPwAAYwOAD6GwhBivK6LgUp/7PRGcIAiCIAiCIAiCIBQ3heMAnMGqbrzVyIwLNfREEBRt+ZdlAKoJqGbQkQz984GVrs+MoPUINN0SbqxaId0uFBOj55lVsTguBKwfM9RQACBsYXQQBgCoB6Oege8nmG8xgtZigr69hzb8c6Vvr26RpiAIgiAIgiAIgiAUHwVxBbg2EJ1ojDcXMfAMCEfZqPeOAJ8PpVuNoPl3Y25HtXS9UOjUzuoY6A2Yv4/F8T6A3wAYmvxTeCyD7nXxwIgRML8vUhUEQRAEQRAEQRCE4iOvHYC7L1jVzwhatymi5wDaNw2PdAI4A/HEcm/QvGL3Bav6iQoIBccMVt5g9EfKmVhGhCsBVKZjuIHwqBE0nxkRig4RIQuCIAiCIAiCIAhC8ZC3DkBjbkd1/67+LwJ8PgBK68MJAwi4rqKrf4s3YJ0oaiAUCt5m6yDveOvfBLoPQCZOsk51Mb1hBMxRIm1BEARBEARBEARBKA7y0gE4apblpkTieQD7Z/I9DOxJxE8ZIXNBfbO1j6iDkK/UzuqoqQuZd5PiVwgYn+HX7QHCy7XBtnEieUEQBEEQBEEQBEEofPLOATgi9MmghJOfZ8CbtZcyJmjFi41A9I6RzW27iFoI+cKwptX9jZD1W+VMLGfG2VkcszsqqDm1s809pBcEQRAEQRAEQRAEobDJLwcgM7k49iCAuhy83QGicx3KsdwImheNXcQuUQ8hl9QFoicPrHSFwXwN0hPnL1l2UQ48M6xpdX/pDUEQBEEQBEEQBEEoXPLKAVgXMn8EYGpua8E7Abi5yzKXGoGoX1REyDb1wfYxRtB6kYmaAOyW4+qMHlhZdrX0iiAIgiAIgiAIgiAULs58qcjegQ93ioNuyh/R0EgQAkbQDDAcl0b8Q5aLugiZZPQ8syqewLWa9RkAHPlTM77ECJgPhhs8S6WXBEEQBEEQcs+wptX9d6rQ/Xp0+Y4JZzzmYuVIsMNBCbWpetAu7S9MpHg26zNm5qc7birrOYrAuxIjrkGLI4uq/o0ZpKW3hGyOi4EVziOJ6DsMOEjhXVr/ycst0+p7RDqCkEcOwBjKf0HAznkoowZCYpI3aN7ZU1b2f+8fs/PnojZCOhm7iF1dlnVeLI6rAeyQl/ME8dUAviu9JQiCIAiCkB1Gzft4eKLHOQ6k94VSXrAeAVANgCEAVByAcgCKN2/pHMSAMwGry4obAfNFgP8SbqgOZrKOw5pW9x9U6fxdN7rPJ6AcAJgAAsMYby7noHlpxO8JSG8KGaWJHd5K65cEXAFgEPf+NWuAKwebdcHola0+z/0gYhGWUMpQPlRibHNbRZdSbchP58dXMNAOwm8ib7r/ka6vWaPnmZWxODbkXVuZvhtpcD+dyzoYQfNxANPybMA0t/o9x6WtjXOiPmj1Z4Br83yuYOVQI1smV62UaVMQBEEQBCEDzGDl3d88jFidDOhjABqZuvFKD6gNa8/OxAmo2lkdA5Uz8SyA/bfz09+G/Z7fSQcLmWDCAnaaG62niLG9Pdo/wgvdZ8upVKGUyYsYgJ1EJyPPnX8AQEAVMe4xxpuLjGDb4aI+gl1GNrd5jaAVgqZgATj/AIA4oX8iPScIgiAIgpB2u3AXI2j+xju+/UNiegHg89Pi/AMA5tN5wOC/ZmQj6dL/wPadfwBwrREyvyc9LWSC9i7r2j44/wDgjLr9rctFYkIpkxcOQCI6obDERvsC6kUjaDbXzjb3EDUS+sqYmZ/uaISsPziUegfgKYVUdwaOlx4UBEEQBEFID7WzOgbWBc3rHUp9COBaAg/LiA3HOLt+Tvuh6XxmXdA8AMwnJ2FI3jh2Ebuk14V0YsztqGbgkiTGwpWjZllukZxQquTeAdjEDgBHFqj8GpQDLUYges3oeWalqJOwLT2vC1rndJd1LwfzZeiNkVJoa+yI0Jph0pmCIAiCIAipUR8wj1PORJiBywFUZPp9Wuvz0vk8BpI90bdrZ7R9nPS8kGbFPj7JfVVlwoVJIjihVMm5A7B2YNsIAAMLWIb9QfTbWALLvQHrbMxgJWolfB1vc3SCt9JazOC7sDloc8HiZOcY6VFBEARBEAR71De1lBlB63ZNmAVgaLbey6DD0vtE8iZdgvgA0QAhrXrNnLweah4vkhNKlZw7q4gdI4tCkowaIr7b2N96pX5OVCYVAbWzzT28AesJUrSAgH2KoU0ENqRnBUEQBEEQbNiGszoGcuXguQCfl+13Ezi9H6FZJ32Ag4l2EC0Q0owNPUR/EZtQqjhzXQHSqMqPXMTpWgxxkGZ6wwhZT6pE4hctjTUfiZqVFmOb2yo2KvoVA5cB3K+4Wqd2kR4WBEEQBEFIjtHzzMpYPDGXgYNzVIW10guCIAilTe5PAGYh5kVOmsV8slZqqTdoXj4itKJcVK0EYCYjaJ3WpdRyBl0FoF8RtlJiXQqCIAiCICTBhAXsjMXpCeTO+QcQXpaeEARBKG1y7gBkRfEilu9AAq538cAVRsiaLupWvNQG28bVhayXAX4QWYznkv0ByzHpbUEQBEEQhL5jdVk3Ajwlpybc5ljUgiAIQgmTBzEA9SclIOfhYH6gLmg+XzvHGi1qVzwYczuq60Lm3QrqDQYOKf4Zg9ZJrwuCIAiCIPQNb9BsAHBxLuvAwH0RX/WL0huCIAilTe4dgBoflIqwGZioNC82gtbt3qfXDBb1K1x2X7CqnzdoXoF4Yjkzzs6HsZQlPpTeFwRBEARB2D57zl+3AxHuBnIa8fzROK0/V3pDEARByLnToh94KYB4CcncCfB5VO5aYQSil3Gsu0zUsLDwhszGiq7+LQRcB8KAUmq7JrwjGiAIgiAIgrB9yntiV4JRkwuTDYTXGXRS2Oc+ZaVvr27pDUEQBCHnWYAXN9Z0GUHzHQDjSkv0vBOI/hBH+RmihgXUa8AUYjRyaTZ/fXW/qtZlogaCIAiCIAjbZERozTAwX5imx33OwGICljBTK0F/rJX6jHRiEwCAXOudHHPEgQrN6HQNcK5pmVi1QXpBEARB+DrOfKgEMzUT8bgS7YO9RA1lzBQIgRcmUlxUQBAEQRAEYduUaedlTOifwiMSzHhMKX6kf5Xn2cXjSBKxCYIgCCmRHw5AR/xx0o4ZyG18DEEQtoFiPCZSEARBEARB2Da1szoGMiWm238CvcTgCyINniUiTUEQBCFte/p8qMSyKUOXEfG/pDsEIW9Z1dLlDooYBEEQBEEQto3DqU8BMMhOWWY8ojrXHhPxi/NPEARBSC/5k7mU6SoALF0iCPkHga/FNEqIJARBEARBELa3reHv2bS45kQWuae3TKvvESkKgiAI6SZvHICtfs8bAJqkSwQh78zYt1s7PQ+KHARBEARBELbNyOa2XcA4zEbRjQntOAszSIsUBUEQhEyg8qkyCa0vAGBKtwhC3tCjlfqRnP4TBEEQBEHYPg7lmALAkWw5Bv62vHGXj0WCgiAIQqbIKwfg8saatYD+HgA59i4I+QDRxcumuN8VQQiCIAiCIPTFdOJDbRTTTmfiJpGeIAiCkElUvlUo7K95icA/BSDH3wUhtxbsDWGf+04RhCAIgiAIQt9gjUOSNrmAF5dOGrpapCcIgiBkEpWPlWr1V9/H4DMAxKWLBCEHxivjurDPfblIQhAEQRAEoW/UzuoYCIKRtN1F9IRITxAEQcg0Kl8rFvFX36+ZjwXQId0kCFljI0DTIw2eX4soBEEQBEEQ+o5TxQ07+ytN8edFeoIgCEKmUflcuWUN1QtcToyCZAcWhCzALzMcY8J+90MiC0EQBEEQhCQtKVIjbRRbu2xyzXKRniAIgpBpVL5X8N1Jnvaw3/M9RTgKgCQjEIR0Q2hjpnPCCz0TIv4hYoAKgiAIgiDYQAN72ij2BohYpCcIgiBkGlUoFW3xeZ53V7jHMtM5kGvBgpAOehi4NQaXEWlw34MZJIl3BEEQBEEQbELEuyZdhjkikhMEQRCygSqkyr4wkeKRBvc9Tu6uBdENAHqkCwXBFoEEkxHxey5a6Rv8hYhDEARBEAQhZYYnW4CVek/EJgiCIGQDVYiVXtKw26dhn/tyrRKjwQhJNwpCnwkz0+Sw39O4vMH9vohDEARBEAQhbXiSLcAaYo8JgiAIWUEVcuWXTRm6LNzg8YPpGABh6U5B2CrrAFwc7nTvHWlwzxNxCIIgCIIgpJ0dky2gOfGhiE0QBEHIBqoYGhFucD9b4XbvA+BiAJ9LtwrCV8SIcE9C69qw33MLplFCRCIIgiAIgpARdki2QEW8vyliEwRBELKBKpaGLB5HsbDfcwt3x7/DwK0AxNEhlDrPgrFfq89zzvLGmrUiDkEQBEEQhIxSmeTv9TvH7yiHFwRBEISsoIqtQZETh30S8Xsugtb7A/yydLFQgqwg5mlhv+eYcINnqYhDEARBEAQhs+y+YFU/AM4ki3WCiEV6giAIQjZQxdqwcGPNW2F/9eFMOA7AB9LVQtHD2EDgq2O0fu/WhuonRCCCIAiCIAjZoRKVThvFOkVygiAIQrZQxd7AiM/TvL4zVgfmy8HYIF0uFCEa4IccCRrR6q+esdK3V7eIRBAEQRAEIXt0b3TY2VeJzSYIgiBkDVUKjVwzbfjGcEP1DQl2egF+CIActReKhRcV1Niwv3r60qluS8QhCIIgCIKQfbSLyEYx2ZMIgiAIWUOVUmOXN+7ycdhfPV1pPhDAv6X7hUKFQWtAdHrY557Y4q96RyQiCIIgCIIgCIIgCMLWUKXY6JbG6jfDPvfBIDodgClqIBQQXQS+ekNnz8iwz/2gBI4WBEEQBEEQBEEQBGF7qJJtORGHfe4HXU6MIPDVkBgcQn7DIHoC0HWt/uoZa6YN3ygiEQRBEARBEARBEAShL6hSF8C7kzydrf7qGcqhRm12sAhCvkGLNdFhYZ97Wthf86HIQxAEQRAEQRAEQRCEZFAigs20TK5aGfa5pynCUQCWiESEPCDKTOeEF1btv8znflXEIQiCIAiCIAiCIAiCHcQB+D+0+DzPuyvc+zHTOQA6RCJCDuhh4NYYubyRBvc9mEFaRCIIgiAIgiAIgiAIgl3EAbgFXphI8UiD+x4nd9cycCuAuEhFyBKBBJMR8XsuWukb/IWIQxAEQRAEQRAEQRCEVBEH4DZY0rDbpxG/56KE1nsDNEckImSQdxXhqLDf07i8wf2+iEMQBEEQBEEQBEEQhHQhDsA+sLyxJhL2u31MOA7AeyKRLEFwlUAr1wG42F3hHtvi8zwvnS4IgiAIgiAIgiAIQrpxigj6TsTnaR4RWvEvlx5wMYh+DWBg0TZWcSzndeCidgDGiXBvPKF/vbyxZm1YhpcgCIIgCELO2HP+uh3KerpPUExjQdiZiZKzQ3t67NitQ4yQ1WSnvsQcY6ADoMWqgma2TKzaIL0oCEIy1AfbPQmd8CriRFms/5J3TtjpM5FKcSMOwCRZ6durG8ANI5vb/qGU+i0B5wNwFF1DE7w+D2pBxahDRDxPab5kqb9G/H5CThg9z6zkWHcZADhig1gWe0HIHmNmfrrjRhVPLJs6ZL1IQxDyA28oegHFemYANJi/tD6Zs/HqSjCfbKcgf+3/6Y38iRE0Lw/7PX+X3izs9WFDudaFGAd89DyzsnuTQ8naVhjUBc0DGLhBQx9OiohB6C7rjtcFo7PI4bi8ZXLVypIVDjPtHfxoRwBY0rXrF5hGiWJqnjgAbbK8sWYtgItqg20PKahbABxcTO1zONCe+8GHtiJzAa4g5l+3+qufkBEkZIIJC9hpdq3dk0jXgfVeYOzBioYSwwPADWBnAANjcQBUDgCIl3XDCJqbAFgEvM/MEVK0KBHHgmXHeVYVq6zqm6P7a6VOB3g/MAaC8AGIgus39Ny/Ztrwjdmqx4jQJ4PKqaeWE6qWFXvBPJyASgbtAGAgGANAiIF5AxM2EKn1zLyOmFdBqWWa4uEBQ2reXzyOYjICcs+okPUdDT2SmbwM1BJjBAAPCLsA2AWAoxvdUACMoAkAnwFYD2A9CJ+DeSWDWokoggS1uAcMWfXCRCreRGRN7DAGtJ8CoAHMuzGwgQivE9RTrb6qt0WjSpwZrIz9249j5uMI9J3ejdlb2kH3LZvifjeNG+HrmHFFYW9YMRjA37xBc0jE77lelCf/5rragW0jSDtHEdgAUEvAUMY37DN0oxsu7l0fGBtA2AjG50RYzcD7DLynwO8xU2t4kbsVM0jn1JYKtns0+BKAT4jFsZdyJuANWmuIdbNDqT8t9bkldFYe4g1ZlzLzjfh2ODgng77LCX2sN2CdHGlwzyu2to9sbtvFSTC0Ul6luZZBBojcBN6JgUoAAxCyKuO9+ySj0gKCZhxAB4C1AEwwVoM4AkZrAiq83F+1CkRcKDKw715hplFz2vfUxLsT806aVX8Cf8HQn3K3bomcOOyT0hpIZiMxbgWwexE0Jx6j9QN6TzvmTqZB8woCrit4aTI2EPGfemjD9bmWaTbYc/66Hco3xY4kxeMZMABUARgIUA+guwB8AEYLiF+vcFe/Lo6LFAyvBe0DEhv1RGgcqAgHMWM8CAPS+Ir3GHgWhGBllXtuMfTViNCKcicPvJOAH21lDfwQWp8Ybqx5KxPvN4JtuxHoSN78ZwKBh6XhsTEALQAWMPA8xx0vyhf4bMztTEbQqmfFEwjqcDAf3ruRSyc9YH6ToeaT4n+FN7gXFsuX6FEh6zsJ5kcAHLDFlRN0p8vJv3p3kqdTlK0E17e57SO05sfBvN8W/jlBjDurKt2XpOogrwtFpzBTqKhmJqZDIw3u1zL9IiMQfRlEhyZnEtOMiN99ddEr8AxWxv7W/tA4CkSHAHwIgEFpfstnYLwG4DWQfjncWf1qNtcHb3N0AjnoyV7n85bYyMAZEb/n0QzvF+8l4MdJFvtH2O85sxTnViNk/RbM1/Thp5sImNDq97xR6LZGXOMoIj6KgQm0eV+abtYR8CqDXwbRy/luqyXlAKyfu3pnnXCdyODvEuhAADtu4+cfAHiOmZ7wVFY9V9RfsHsZ29xW0UV0OYh+AaB/AdsOb4f91fvlfIJqtk6A4qcLWCU0GP9wufCbdyd52ota+WewMsa2TwXxmSAciz6fLqZPwTyTlLpNTnv0cSGb9/HwRNxxIoATsPnkcbZiZXYw4TEH8UMtU6oXFqTwmthhVLY3AzxlO7/8nOHYP+Ifsjw9myRzFCs+nZhOAPCdLLQ0TsAbDH5UOeKPtkwevk5GTvqoDbaNU3BMA3gagN2y/PrPAH6eSD3d1b/rqQ8m7rGpEGU4srltFwep10EYsZ2fPhvudE8utus3wnb0I2Dt6VD85jYcC5utVaYnI/6qaamcvDCC5hsA9i8m+RHQ3Or3HJdxO10cgN9g8y0MazIxTmBCQ4YcDdtiLYBnFNRT/dxDnsvkR9v6ULROM/0b24+HHwfTlHCD+9lM1UUcgEnNd9cC+E0SRZaGF7r3yfVJ02T3pHUHWBM5ge+BcDSAPXJQiw4As6B4Zow3PJdvB4D65ACsb27bNaHUpQScDaCfjfesBvCn9Z2xe7J5tSpXjAitGeZix3UAnYpCjGNHdEPY574893L8ZJCLY2uz6OBIJ28QcFGhfzXp08IbsE4k4msB1KWoeHMYfFnE71ki259vG5UdG83jE0znEjABuc/g/oYivqnlTc/ThWQUGCHrXDDf0cfV8YWwzzPR9rh4es1gVeb8IROdDvDYHDa7B+CAYnqgZZE7UFBGXD45JDY7rM4B4cfIjhO3L0r6KYB/QifuzdSJ1bzYsDGfH26ovkO0sESYwcoYb70BYFyf1AP4od0TRsbcjmokEm1FKMWu8EL3wEzP9+IA7N0nh6J1zDiDQacg/afAba8PTPww2HFbuj5mfqPvg+Z8AEf38efvhTvdtZn6kCMOwL72mXUDwL9KthwTT4j4ql/M9/aNmvfx8ERM/ZCIzmZgzzyq2udEeJwSdEdLo/s/eTE7bOsfxy5iV1d7++Vg/g2AsjS87yMwLgv73Y8X0j1pu9QF2g5jolsA2reQ6k3AgfniuDKC5gsAjigU2TFoDRF+HZ5S9VCx63h9sH2Mhr45zf0TB/P1FR7PtXI1GBjWtLr/oErXWQz8HNk/adQXhV/JoD96KqvuLYRT3nVBM8yAt6+/V1D7tvir3knKAJllueMu/QvS9NM0X8dOx+y+jKH/UOn2PCLjq+8bO63pYhBORV6f7Oe3idSfWt+sejTfnbwjQtEhLqY1fbYrGSvDfvfIUrAbBcAIRP0gCiRR5N2w37OPLcdBoG0skVpUjHJ0cvfOSxp2+zTDfVXSDkAjYB3NpC8l0CTk74EPZvA8Uvhr+A3P3HSsD73hG1Yk02YmmhTxuf+ViQaKA3C7GkBGyPoLgIvsmY58WdhXfWO+ts0bsvwE/ALA4cj/g1evMejPkYVVM3Npq6mtO17aduuyzDd674iXpel9u4LwqBE0X/IG2sYW+3hrbah5ObzQMw7AWQwUxhVQRks+nVoj0GMF0t2dIPq/DZ09I8M+94PFvFGpn7t6Z2/QvEVDL0L6nbNOEP12o2UtGD3PrEKpMoOVN2CdPXCAayUDtyAfnX+bB+gIIr67vctaYoSs4/Pb6bBmWDLOPwDQ0H0+AVg7q6PGCJo3J5z8PjH9Iv+cfwDAtQS6r8uyltcFrXMmLGBJBLYVRja3eY2Q+bRmWgrCWcj7sB60LzM/bIy3ltQFo9Mwg1W+1tSVUIcmZVcSRtTOaT9YtLJEIJqeZInR9cF2j71XYW2xbvkHV+4qcWAzhDdkHWsErUUgnk+gyXnudCACTYamoHe89VZdKDol1QfGmQ9Ius2Mg0RzcjETMBlB83bYdf5tNoYH5GPTjIB1tDdkvUFAc+9+tBBuXR5M4CeN8dYSI2RNz5UdvkUDcbNzTr2esZNrRIcSqTeNoPn3UbMsd1EPvBmkw37P38uc2JPAVwPI6yQQBPpDPtWnh764D4R8vp7BIHoC0PVhn/vaYr7iPnYRu4ygeYlOuN4j4GcAHJkTKg6Jx/GiXaO+kKmfEx1v7N++kIjvBqOmIOwLwAvmmUYw+pI3aO6dj3UsTziSlmWfEnQ0scMImBcrR2JZr4FVUQBdtjuD77K6rMW1IesQsZC/Nv6C7R5v0LzLodQSME5A4YXxqGPQ48Z46526oDk1P3ejySe+IebTRDuLnxGhTwYBaEx6f6rjttbKcGf1GgBfFKEoV5ZC7PVs4w20jfUGzeeIeV6OQ3vY3ONhH2YKGUHzBSNkHpiC82CXpMsw7yIalG3jnMkItd8GonNT0xu1PJ+aVRc0pxpB8+3NDniML9DeqQPzA1aX9W59sH1ytl/+LQdgfShaR+SYD6A6C+8+I+Hk9+qC0Rm7L1jVr5jH4LuTPJ2t/uoZDMdoAIE8reaS1q6qR/OpQit9e3WD+eY8dXosZE2HhH3uaWF/zYfFrL/GnKivy2pfAuDP2Hbyn3TK16tZPztm5qc7ogSYsICddUHzOq3p9a1kPSwE8/IwAhbXhaJX1ze1lOVTzRJQSTusNdE244/WB9vHGJXWayD8JT9P/G2X0Yr5ZSMYfbCkT9wCQBM7vCHrUg29koBz0OdERnnL3gw8Uxc0Z48IrRmWVzVTSDqrLwHfK3Y7UQBcHJsGG6dtHQR7H1+nUQLgfxabHAl4SrQpfYyZ+emORtC6nUi9QcCRRdCkI8B43QhGH/Q+vWawDfs86Q9jTESiSdm1aYw57fcBfF6KT4qzUz2XD03yzonubgTMIAPPABhTLFtsDT3HCJqB2jkf12bPDPt6DeZ2VGumOQDvlMWGVzLoqv5d/d+tD5jHFft4jPiHLA/7PY2kcDSAfEp2oJnpp/mYaS9GG24FEM6jKkWZ6ZzIQveBkUb368WsryOb27xG0ApBUxDg2qxXgFDfXdb9UD5fZ0sHo2ZZbqvTXMDAFcjgycqs7eGY/k9XDH6rLtS+bzH214QF7DSC1g291+ALPXskAXRaLI6l3oA1qRTt5Pq57SOMyvbnifkmAJXF1DYGGl3sXGYEopehifNibklQ4lUbxXas6OzXCKHI4elJFyF8snRR9bIU3vkHAJ8VkRDXOp34i+hSmpwOQeu73WXdkV5HiqO4WkenodzZWheMTpOeLjIbdYD1MJhPT4MRcV948pBo7m1u8yJK0BIQfEXabX6lHUvqgtEZ2bDVvrmpTiTuBLBrjhq+lybM8gbN5/L1Clk6aZ3iea7C7R5LwEW9mfxyvAPkayMN7tfyUVYrfXt1E+tzAOT6OkM3AX/QcUdtpMF9TzFn0xwz89MdjZD1B4dS7wA8JcfVaTDGm+cWq6xr51ijE05+I9lA2vlvV6KeWb9uBM2LiqlZI0LRIVanNbc3k1oxbQaGEPEcb9C8ZewidqEUmMHKCEV/pRN6CcCHF3FLK0D0h7pK68VRISvnGYyXTRm6DIyWpPchyceGEwppLZxt7gHYWAc1ZqVij4X9NR8yYTqATUUgxk5S+P67kzztolGprvWfDDJC1v0EfhJ5k9k3E6Yaqhj0uBE0Z45sbpNrugVOfVNLWXuX+RgY30+DbkS6y8t+mdP2NFv7WF3WQgA3F+hNm2RwMegqo9J6xRvsGJnJF33lADRC1nQAOY8XQ8CRBLzlDZm31s9dvXMx9/LicRRr9Xtu5e7YXmC+E0CuTt8907rQc00+y6q1oeZlBl2WwyoEHET1rX7PFcumDinewMpN7KgLWud0l3UvB/NlAMrzxES5fmTz2qHFJm5vwDpRaX4N+ZrkI3XKAdxsBM2HhjWt7l/ojamf036oi+k/IBxVrHsBAn7WZbU/W+zxN0eEPhlkjLeeAtMNAEriaikDhySY38qLhD2KH7RRanIpxoUtFUjRabBxtZCg70/13RGfp5mACQDeLWARLiJSh7VO8Twn2pQadaH2fV0ceyctJ6gKh+MdSi2unxMdLxpQoDZqU0uZrhz8OIO+mwaLYXkPxY95/5idP8/ZOAxGf6wVv47iue7bVw4kJN42AuYZmXqBEwB2X7CqH3fh93l0Od9JjAt1ouxUI2he7a5w317MwWwjJw77BMB5I5vbbnUox5+zfOJq/saKjT8ohNNsEb/7z0bIqup1TGXHIAUiIP55q696TrHPNt7m6AQo62YG9snD6g10qMSVAM4vFnkbQfNMgO9B4SUZsMOpAyudu42Z+elx75yw02eF2V/WaVrrfwAogdNxfDiDX62f2z6pZXLVymJr3cjmNq+TYzOTzQpdJAwC89NGyLox/GbVlbla+3XM+bByJq5DcqdonZr19wHcLFu94oMIP7RR7INWf/Ur6Xh/q9/zBpjHGMH2o6BwEDF7eTtxYL89dbILwPFJvroTRCF7UzV3M9MKAM9G/FWvg4hFk1K0hYPmD5n131AYCb3Sza5a08tG0Lws7PfcItpQOIwIrShnHvgEbCRR2tLeNxF3HrVyanVOknDuvmBVv/5d/W9j4IwS7tIKEP5uBMyDY2r9eSt9e6U1iawTACo6+5/FNrKyZWETshOAm60u60wjYF0SbnA/W8w9vbyxJgLA5w2ZjcT4C4CMXtUh4J9fdMbOXOPfo2CuPYSnVF1RF7KYgcsza4niE2j+v6pKzz3Fnkmtdra5h8PBf0zPF6OMzgdnjpplXbN0qtsqdJnXBaxTGXw3Mu38Y2wA+B0ASwgUJsVRkMNMJOIbAYCUcjFoEAEeaB4O4mEAjQawL2wEYt/OoDqsu6z7pdpZHZOXTR3SVkj95Q1YZwN8J7aQOKtYYWBPTuhXjOY2X7ix5q1iaVd9KHqSZrqfsxvrjwG0g7EWhE70Zh0loD9vjoO8C4GrAGQrcQ6B+bK68VZdT+iTU1f6Bmc9C+qyqUPavMHofAIll/1u8ymxm2W7V2ROl2brIDtxhhl0f1qdXkQcBp7F5j9Js+f8dTuU9/R8lmSxjrDPLTHYcr7oMRmh9hsAzvaVRw3gMwI+Y+ALgNeDKAGmgQTeiYGB2Jx8L1sfH7+8uTHKXeE+V7JJ5z9jm9squlg9w8AxaXjcOz3Ex66cOqQjF20ZGbD2dHTpJ3v3IbnmMwA7IJcHNQg/cWGgUT93dUPL5OHr0vVYJwAw4cw81+1RIJ5vBM1nHax/trShJlzMAzni8zSPCK34l5MHXkKMX2fgznscwK9a/Z7CCxJMxK3AFUbQagX4dmxeGNMqGwbucOnuGUsadvu0mBVtbHNbxUZFv2LgMgYVwhW4soRLnw7gxkKWe23IOoSZ/45MOZOI3iLogNZqnqey6k07xtvYRezqNKOjQepYAk4EMDZNC+Deypl4du/Ah4csadjt00LoL2/Q+jmBb8qwARAH6D/MHCEgzIT3wbSOFTY4mToTHHeAaSAUDVDgIQCNZEItmOoynJzHDaUWeJujUyON1S8UvJMhZJ6lGXcis7EbN4F5EUi9RqwXEavln2/sWb5m2vBtZyltYseoAe27a+iRmmkMAQeDcBAYgzNV0c0JQuLPe59eM6n3JkJ2l3OmB0BIzgHIvJ83aO4d8XuWQCgaiPRpdhKLOgkPi/SEVKlvailLBK17QTglw6/qYeAVBbwBplbmROv6jYnw9taHsYvYtXGtORJx1GkoA4rHEmNiBvZAX+dMq8saMqxp9Q+2u34JOWP0PLOyM47Z6clOTYu5OzZpZQ7sAWBzTHSleR5A2Qj10QXwYoAWAfweEd6PJ3hVOcWsT7vUpq/r/O4LVvUb2Kn6d7PL7XTQHhr4Dpj2UsBYBsYh0+GyGAfphOvF2lkdk9J1gIJ6hf2fAtL1bhDdrGPq90Udi60XY25HNSX0dQw+LS2bFsILzPhZMRjPtbPNPcjBdyR9gmCr44vnOgiXtviqW4taqZipLmiexEQ3IXdJf2wvTmG/e1yhin7ULMudcPJ/kP6A0h0guldT/L5lU4YuS3e965vbdtUOdTYzziKgKg1K+PLGik3HfjAxe6ePvc3WQaQ4uURHhDYwajJUpQ+I+Sl24HnVz/FSy8SqDXbXCE4kJhLjKBCd0HtyPt2sZ9YTIw01iwt2LQ1GfwnQDciMI3ctgGeYMHvDhtizadssMVN9wByfIJqqCCdm8MryEkecjsn26ereaz5RbD7dkszAvDHsd18GoWicL7py8McAkkxAQC+F/e4j8qktNk8AfhD2e/YoyHk1EH052QRmDJoR8buvzpc2DGta3X/QAOdMZpqUoVeYxHhSE+aVObHg3UmeznQ8dOwidnW2mwdD07GZXR/ope4y13FfjwXXm9zt5iSfc3vY774gI/Zd0LyXgB8nWewfYb/nTBQwvfNNCMDBqbsH8GoPuXy5uBEAAHVB8wAGQgAylf9BA/g3Mc1MUOKF6orqd9JxunVEaEW5Uw8aSwpHgflEZDZe4SrlUMemIzQPGaHor3qDYBcaJoGvbF3oeaCYs7F+ZSDNbR+h4/pX2JypLFlPMwP0MgO3Rvzup4pNNnVzzKNY41fYfPSZbEwIzxLr37U21Lxc7HrUO8HeAuCAAm2CjhF7VvqqOwpT/tEn03zV+kMCXf9FZ8+D2fhCOyK0otylB54Kwm8A7J6SbwO4L+L3/CRbsrflAEw/m0D0OCf0/ZEGz4vpjtc0IrSivBwDGjXT6QB8SOMpUwbaSatDw41VKwpt3HkD5u+JcGWaH8sAniXw33tow6x0x2fZhg6fAeAHSHt8KloWo9jRK33D1mR1TgyZdzPj7CR3Km3hDe5dMY0SEAoeo9k6AYqfTlpjCWe0+jz35uGG/LMki4kDMEcMa1rdf2ClaxbSc3XyG7Yqg/8FVn+r9FQ1Lx5HsYz3RbDtcECdBeAkpD+x1TsuJyZ9mV1aHIC5Z8zMT3fsLuueA+DANKz/L+m4asjVwar6kHmk1piViSy/DPyHmO+B0zkzPHlINNNtGRWyvqPB32PGWanuk7aCpaAmt/ir3kmpx41g9CmATixYy4HoLdKJi0vBeQNsPkGkXexnxiQAR2PrnvL1DCxU4JdZOx4pxE1b0hPI3PYROp74LhRNhsa4rU4kjA1EWKiBf3ECjy87zrOq2GVTO6ujxuFKXMWMM1HgccyI2FeISVm8AWsSEc9N0+M2EeFa2vDJTS3T6nuy3ZYRoRXlLgy4CJp+m9qCTceG/e75WZF/bh2AnQS+mx3Om7JhgGw2qKJ1mukKAN9Hb7iPNLAKDsch2WpDWjZFIfN3YPw6jY9MAGhSmm5oaXTn5PbE6HlmVSyBn4FxPpI+Pbft/k1o52HLG3f5OIvz4sFE/GrSRj3RpIjP/S8IBY8RMp8G44Qki23sLiurzmWGyi0hDsC+bMjzwwE4IrSi3MUDZwM4No2PjRPo4Tjj2uUN7vdzsxdavbNOuC4B4+K0OlSI3tIxNWHZ1CHrxQGYW/YOfLhTjMrnEZByxmYGz93QGT8xV9e864PtkzX0TKTXaR1nxuMA3RFpcOfG7m9ihzGgvRGaLwDhqPRuhPFJIqEP7c0dYe8RdUEzXASZ8JiAR3soflm2v17n3Knw9JrBKHfWgKiaNDQj8anD6fy85Yshq0r663gTO4zK6DBi7MpwlJPSrgTUFy7AXPpm1apSODUKbL5iVbGx/89Z44pMfFnJBcT0y9YG902FNUMxeUPW25SWDMv8slb6rExc9U3egF4zzMWue2xnLmesrPC467LxdTxHDkAG476Y4stzdWrVG+wYSUj8NV2bHAJerapwTyiEwOC98Rv/lMbOnKsc+EXr5OqWfGhf70bvN9icHT1NCUT4bVXhONzulXRbToSgFbERy/LhsN9zGoSCpleH25DkzRZmPBJp8Jyab+0RB2Bf5tE8cAAykxGyHgSQLh1iED2pKf7bfLDNvtwfUj/XL8H8M6QpqRsBC3po/RQXD/wpxAGYE0bPM6ticcwHMDoNjwturNh4UjbD8Xyj3wJtYwnqhTTuTzWInmJWv4n4hyzPG1t08/7jegBpC1nBoDVxih1k1+/lZGQsvlF2fQLAD13sPN4IWX9V/el32TRec0lv4O5PAEhA7K8zjRJh4ENs/lOSeENmo+rCzQzsmcP8RWlHK+0utDobwfajQOlw/uGW8ELPz/PFgb3SN2wNmP11ofZzGPznpI1MwoiNluUDMKsIh+ASTXTuMr/71VxWotcImlQXiJ7Mim5ONaYhA4e0d1nXArgin4VfF7JOYeZ0fSj4CIrPjUypDuVTG3szwv3caG6/k5S+m4GJaTCn9tVd+jE08dTsfUTkhwFcm2ShE2tndZxXCrGgixkdd34flHwAdSJ6QKQn2F4fguYfmShdzr/3WPOZkUbPC3m4P7y8drZ5t1L4WzpOITEw0cUDH2PQywQWRcoyo2ZZ7licnwUwKg2Pa6pwu08NZ+ED/JaonW3uQYQAkCbnH+EFaFwY9ruX5lu/RRrdrwOY4A2ZjYp79+UpN5eHueCaVTurY4IdO0ghsxmEsk0FmC/TXbqlLhidBmaS6UIoNeqbrX3qgubzxJidjkkm3yBNOxRepfmiVPdJTPSLsN9zcd6dXiXiVr/7LiJ1CAA71+mnFd8o5IcqtD5wmS+3zr+v09pQ/UQiofcBI2UnFgOX1QfM4/J4c3dAb6ZtSrmpzHfquGNUOM+cf18n3Fi1otXnPoqZzgGQDoeY36hsvzVb9Y9R/H5svlqdlL3ncMZPkhW/0Bd0snOK8+NwZ9XzIjzBDkbQPJOJLk3Do+IA3bixYuOoSGP1C/na3mXHeVaF/e5jCPRTAOlI8HA8gEtEk7K8twu2exJOfh7pcf496q5wn7I4R84/79NrBjscCAFIR7bfzwBcHH7TfVS4wbM0n/sw4vM0f9EZGwWiG2zYPFuwUHk/ciaeqW9qSfoGiMLmJAjFxq4MetwIWf82QuaBMm0IJbE4zF29szdo3qIVL07PSZB8heOFVNu9Ax/uBCCl7HLMdG7E5/5TPrez1Vf1tnLExjGSi3PIoGHFo5rYQODvhf3V0xc31nTlW/WWN9asDfvdDbz59F4qaz9pwt9HzbLy7jSuMbejmglPI/V4Mp9B03fDDdWFccqMiCMN7nu0SowH8G4alPk8byh6QTaqvtI3bA0DL9potFwBLmibpX0EbCQkI+BBSQAj2NK5OdHxAP6a+nyLNmY6Iux3X5ar65PJrg+tfvfdgB4NordSbz4PE23Kot42t+2qWb8MoC4Ndurfwgvdp+YqjMvYReyiMsczaQo/N98RJ2/Y77mlUEJ7rZk2fGPY575caT4Y9g5N/O96eGRiwOCkb7soAJ8X8ZjZH4xXjaD5t9HzzCqZQoRiZOwidhkB82KdcL1HwM8AOIq6waQK6spXQvXzAXClYGj9OdLgvqcQ2toyefi6yEKPn8BXo48OJi4wh+42WMegSa3+6qZ83whE/J4/gOi7AFLZuAxJuHBDXrWtiR2USDyS6jVnMFocROPCje6ZhaaEy6YMXba+M3YggIdTVhWmm2rnWKOzo5bJX+lkYELtbHMPCAWJjiemw8Yp3bjWD4r0hGTxPr1msNb0JFL9OER4HcoxLmfJBVIg7K/5cP2GnkOZ8YhoRGFgBNt2Y6UWgDAi9afxXeFF7p/m0lm20bKuTjZu6BaXf6Ibwp3uKUunuq1C7NeWxuo3Y+QaA/DTqdtquCDZWzlOAB9h65lkiwEF4MxYHCfXBazfUdfaW3ORNbNYGdnctotS6kwCTdnWFyFmbISiRdB4ONzgflYkl6aFIWAd3WVZfwGl5Uh4YcC6oOI6MutJKdxEfLeHNlxZUP0zg3QrMMMIRBeC6GFsJ0sppWHxywM+Smg9KZWMXFnfCPjcz9SHTL9mPAO7oUCYpxvBtnvD/pqX8mI+rLSuSMPp5/nd5WUn51t20WRYM234RjBP9wbbVxBxKsH2y5XmR3ZfsGp8pk+5uBz8VCyO25LURVIKPwTwe7EGCm0dZ6KQdYqNKGJvFNI8K+TRZrDccTcDu6bodrg3RuvPWzl5r+6CXh+AU70h621ivrF3nyzkId5gx0iGfg5pOXFJfwz7Pb/KZXvqQ+aRmnFZio/5gpmmRfzueYXevyt9g78A80neUPv/Efgq2N8skib83ZjbsU948pBon+ZDgEslecQOTPxHXTG4pS4QPVmmlTRMTIHo6Q5Sqwi4HuDDGdhza39AqAfz6SCebwTNf8mJzBQ3us3texkhqwnE84EScv4BYIWWQqovgcbbLauZL17pK0xDM9xQHXQQjQPw720I54UKt+eeAlfJDq0SxxbiprTF53meNR8H+ycBCazuGLuIXbluS32ztQ+A36Y4WB+rcLv9hez8+29biCMN7msIdC5SizUzql9X/4yf9Hx3kqeTQE/Z6LPTJd5zAdowoehhtmIUS/IPwZa+WdMZ9N0Urc+7wn73mYVqk/0vEZ/7TwychnTEIhPSzsjmNi9RYkFarlsT3RD2u3Pq/Ns78OFOmnEfUnM4m9B6YqSh8J1/37DV/O6rmfnHAFK5ETUEOvFPzOA+yVcR1GslNaIII5ioqS4UnTsq0GbIFGMPb9D6ORHdbzN19zGxOF4Z2bx2qEgyOcbM/HTHumD0T1C6Bcyl6MhOcMz5VqFUdkTok0EMjLRZ/MVlDdULCrmzlvrc74U73YcCOAtA+Gv/1AXQjRv7b5ySqyDEaeJzBXXssilDlxXsJqCx+gVFfBrsxgQk1HdZ5tm5bEN9U0tZQvEDAMrsPoMZj4Q3uE8tcH38Fq1+910g+glSiPlIwIXegDUp03XVWttx7uxVF7L2F+ug0FB24jf28KZYk8hOSAYj2LYbmG9J5RlMfFPYX30uiIoq9W3E7/knQD+GOAHzilGBNsOh1PMphzMBwExXhX3uy3PdpjiV34fUTuCu0AkcHG6seasY+zzSUP0ANE0DYP8DA2NC3bj2n/dpBe6hWAAovVzezDQpQerdupB594hQdIhMN33HG7R+TuBUExLs5VDxBeIE7CMzWBkha3p3WXeEQT9HCjHlCnrcAi8WRED+Xpy6ey/Y/NpFRH8rik6bRomw3/P3sN9TB+jdGRhdofWQggmevQ1/BUAnt/ir3in0LmrxVT8J5hSumtNldrKQpW1eqNz5SgL2sV99eiLS5T69WBMLhH3uB8E4OwVbjxTxHbsvWNUvk/WMNHheJOD95NcFSQZSSPTqUdIZnJlpduTEYZ+IBIXkULdjO6FItjn5Mf8p4qv+ZbFKJ+x3P8TA9FL0BeQj9cH2MQlSLwGoTn3LhJ9HGtzX5LpNvTcvp9pvCK1hxccuO86zqpj7PtzonqkY05DCSUAmvsY7J7r7dmfFlb5hawh4rUTHmZMZZ7tAYSNknYsmdkDYJmly/n3JXg4VX1A7q6NGJLsNmYeiRxjjrcVgfgCAu5RloUBPFFJ9STmG2ywaK+suCxafoVnzYcTvWZKPGXJtGCTXhP3u+cXTN54bmTDbZvHhumJwTpwwo0LWdxhkO6YMAa/G8MVpxZ5VNNzg+QeBr7Gv79izX1f/SzI7YRKD2EbyEv7BiNCKcrEWCoOKrn7HwY5Dhliu/wpJ2s9mIwC/7XmP6cnWRbmNm5YNIn7PP8EphtAQUtfXQNtYTfpZALukaqIS46Kw3/OXXLdpWNPq/kx0YwqP6NA6cUxkSvUHpaADLQ2e2UBKtzb6k6Y/bH8/DYAZt5X0iGMMBvMdRqX1dn3IPFKmoK1MTOl1/n3JXsopTsAtMSK0ZpgRjD5ITAsAjBGJ4Isecv6zkCpMzDaPu/PSd07Y6TPp8rxdM56LLKy6tqjaRMQ6oc8A8LHNJ1yei49ocfCfYT+r40cqTt8tlphO26PV57kagO0rlMS4MtNrtYJ6EMmfRNnZqQf5i6KTZrCqD7ZPNoLWbUbADBoh81Fv0LqqmELW2DyxaXkq3HNl8RH6Sn1TSxkxUnGAvLmhq2d6LjOmZpOw330dwA+J5uSG2mDbOCLHfDAGp/ioBIHPaG3w/DUf2jVogPNyALvbLN4FrSeXWuKn3lO5v07hEdOMYNvh27a1AIS73E+ACyuwfobYWzOeM4Jm86iQ9R0Rx3/JkPPvy23FSHEC/pfR88xKI2he62Lncmw2lCXA+WZuXekb/EVBbXQI9pLdkFop3Z23dLGDzyzGTcHyxpq1DLrIns5ihLey/fhs1tcIWscQ47gUDMsTlk51WyWjuUSsKtQZAN612ccDlEtfl8kqLvW53wP4FRtNm174dpa5tzHeel1DzwH4fBB8YHyfwDMSpFqMYPRB79NrBhdyG3sTwNmJJ/nPFyZSHILQR3Tl4HMB2N3LfaygpvZmzC2Z9SFGG84C4XXRnuxSP6f9UAX1PMA7pfioBEA/bvVX35cX7Wpu25WZfmF7DwU+v1hj/m2PiM99A8j2rTcC1C3b+ii/OTbVNEqQ4l/KEPyKhgRzS13QvL5+QfuAUhdGZp1/X+mqOAGZqS5gnRqLYxmA3wDoL0PxK0wdd9xYeF2KgfYsV71WujxfjWS+upivIkT87qcABG3KZnoWBxcx+Pe2ixMuLkXDsmVi1QaG42QAnTblflpdqH3fzPatrUyvU0Y2t+1SqP1SFzQPIOAlAPtv3aCn06jM+WJ9sN1TqO2Mx/F92IhhrLRk/xX6zojQJ4NAtq+0MkA/bvFXmaUmt5W+vboTmk4FsF60KEt77FD0CJ3QcwCb+4X/0sNM08J+d96c4tQOx00AKmwW/0vEX31/6e41iHVMnYFvJlBMhjHeAdZPtrqmfvl/Wn3Vcxi4T4biV5QzcLnu0su9AevsUo0PmB3n31faXrJOQG+gbWxdyHqZiR8CIIlRvmWN0QWFlPzjvzs2tpUYgZWcdMhTwhVVuY+pknmrTV0CG0GIiTElW0m16oNWIwHj7c0nPDcyxf33UlXiiH/IchDZ/eirGDqjMbFiyvUEgGTjhJYpB32/EPtjbHNbBQOPoS9x8Qj1mvU/Cngtt/ORYElLo/s/svwIfcXJsfNsX6Vk3FJM8X2TZXmD+30iXCxalI29nzWJmOaAkOpho24CpkUa3E/nS9tGNrd5wfxde5snestd4f5VqevHsqlD1jPwPQA9tsTIuGLCAnZu0ZD7+n9s6IydD2CRDMlvUE3EdxuV7W/Uz2k/tKQmpqw6/75S15JyAtbO6qgxQtb9RGohA4fIcNuiTtzReyqp8GrO9hx5xKWd7CV/N6+4dvE4ihV7O8ONVSsAftRGUVeZzo4TRhPPsFm0wxlXPwJRSWc8DE+puovBc20OhJNqZ5t7ZKpuK32Dv2DGzOTrRQV5DbjL4bgUycRIIvi8AWtSobWzPhStA3isjaJyOEHoM8OaVvcn4CKbxVvXd8WuLHUZtvo89wJ4RrQpcxhzoj4ifgap3/bqAqix1e+ZlU/tU0r9Cv/jZ+ojPcz8Iwn5sJmI37OEmezedtmjvcs8cYv98/X/WDNt+EaHM3EigFUi8m9ZlmO11i95A+bDI5vXFv0Jrdw4/76yboveCbj7glX9vEHzCuVILAPz6ZA4f1vZZ/Jcd0XVRQXbAMIGe8UwTno/37oSkUinu6lU2utgvh42spAx4YeZrlvdHPMogGxdQyXC5SUV92/rgmCH5nOQ/Ek7AHCSE5nNCKzoQRtjdPzI5jZvIXXDhAXsBPM5NrrvwoJbz9lW8o+4gnoUgtBHBg4o+xEAm9fk9bklFfdvGyS08wLYDRUhbGePbTZA09Own8DsSzoVoTHfTqyObF47lIBTbBa/NuL3LBEt+S+eyqrrQGQrZA1jy7c9vuWZXTpp6Gql9QSAlonIt2BzEU5xqPgyI2j+ZljT6qKM0ZZb599Xoi5aJ6A3YJ1Y0dW/hYDr0nDsu5iH25xNFZtOKOSvQMyw5WhgYM/6Zmsf0YF8Ukf8EdMoUSrNXdpQE2ZCwEbR8WNmfrpjRiun7Z7uoMWtb7rvF2XeTEtjzUdEfJMtSTLOyGTMvcibVc8CWJ1sOUXqtELqg96v83Y+KvuM5va9CqahM1ixjQ0hAXNKMRabkJLhdZ69YvRk2F/zkghwM8sbd/mYQX8USaSXumB0GgFPAyhP8VGfsaZjWnye5/OtjQ6VuAiAnRBIK1TnJzeKlnyTFyZSnBO4YPP2MGnGbSkjsNqaUdhd5jqACbNF7FukEsC1Aytd4bpA9ORialh+OP++Mv2Kygk4srnN6w1G5xDxUwzsKcNoGz1PuKfCXTX1g4l7bCpoO5Rg+6RRgvAb0YR86UhsoP6qqfTanfwpLACOnrLuIzI2jwasPRnw2xuOfH4xZm9Ohf4JvgHARzaKViilzsxYxWaQJuARG2vH6YUUs5mhzre7TLIjcXbBbHoPsCYCGJ5sOQ1J/iEksYcJRY8AMMpG0R6Hk64QCX6TDZ09N9pcH4QtYATM7zPoEdhIhPQ/0/+nSvOkSKM77zI2b06emvypdgBgpstbptX3iKZ8m819zTNtyZXUpf/7d1u9m/3+MTt/HvF5poLodACSkXLL7MZETUbQfKE+2D6m4BfOvHL+fTXJFbwTcGRz2y5GIHqHQ6mlBJosw2abRKHpxFaf55xiiLXm0NRqW/OJTzICUb+oRF7waMvEqg2l1mhH59pmED5J3qmBiRmrE/SPYC+uzKxWv+cNUeVvsrixpotA19mao4CMxtzTcNyH5L94D60baE0oBNnXzY3WA3yY7TWC6cyxzW0VhdBWm9d/18Xpi4CMUqHvkwadZW+DzLe2TK5aKQL8JmumDd/I4KtEEqljBMwzQHgEgDOluRRo1woTWhqr38zLub6TjwcwyMYi8Uo+JTHJy+lN6SthL0Ffw/+Gr9uuER32uR8s7ynfC0Q3wGYWkhLgCA292AhGHxw1yyrI4P356fz7SnUL0gk4dhG7jKB5kUM5loPoXAAOGSpbJcbArU7urg83umcWS6OGDKhqQSoxVIj+7g12jBT1yPUUpB8uxWa3TKvvAdsKBH5UprwIRGQrroxSfJ0o8pbp7666F8CHdvY0RsAclal6RfxDlgN404aaFMQ1YJ2gC5Fa/N8du0j9IO9toea2CjCfaGPifWylb69uGaFCXxg9z6wkYKod+zOOxC0iwS1T6fY8AhvhGISv7bFD5lkg3AN7Hy+/jqkcfOSyKe5387WtduNAs5JbT9tj2ZShy8CwczNHOVT8pG/8RV9KvXPCTp+Ffe7LGY69AQSlC7YsXIBOSzh4ZV0wOmNEaEV5oVQ8v51/XxmCBeUErJtjHtVlWW8BuBngnWR4bGvWx3Ng7Bfxey5a0rDbp8XUtBcmUpxsbGC/hgfQz40MWHJlPHd8UeGufr10hyeeszMF7r5gVb9018UIRQ+zEz6BiOe1TKleKKq8ZRaPoxgx7NkACpnN+kw2roAyn7T5GlL+MmbmpzsScGrq8sEF+a5fGx2OEwAMTFq1tJbrv0KfiSfoeFtxtYn+udI3bI1IcOvrA4hvE0nY3A8GrZ8S426k7vz7SDnUYa2Tq1vyta0jQtEhAB9jo+iiiK/6RdGWPkxXTv4z7MUCnPZN0y0JIv4hy8N+TwOYjgGjRbphi8bYAAZd5eKBSwohPmBhOP++Em7eOwGN5va9jJDVxBrPwl4cklJiBTFPCzd4jg43eJYWayM1cUpH2gk8zEH8VrHFGy0c+NliuI5ulzInnrNhbKj+nf1HpL0nSJ1kawxq9RfR423jdOFeAF8kPT8xfgDmjGWxd+pNjwFINhZspe7iE/JZ3t2u7h9hczzpVBnjDVgH5/kqaONEJi/P1ytuQp6u1My21geVgKwP26G8u989YGwQSSRHXcD6BYPvRGonvQHgA53AhHy/pl6m6fuwccWZwJJspo/0OoDtfJg/yAi27fbVvGfn5eEG97MVHve+AC4G8Ll0xxbZi4majID5bCavyKRCYTn/vpomRiqnfj7fnID1C9oH1AWjM6D0EjCLo2bbdBL46hit37u1ofqJot9Yx9QTAFLNHrsDEz1uBK3bM55hVfifXYWthbZoeHeSp52AZUlvqhR70z77MxpsFPswsqhqvijydvu5k4FHkx8e2LM2FB2bqXotadjtUxA12xi4+XsNmJlA9NN0PU4Rn5+vTTXmdlQz09HJ6xXdJ6NS6CsjQivKwTjaRtEXWxrd/xEJbpt3TtjpM4AfEkkkMfcFopcxpcOxRcsS2nnosuM8q/LeXCZbNwJWV1V4JPZfcnaXnZAFxHB89yu7we7LF4+jWNjvucXlxEgw/gZAMuttUdw4CoS3jID5l3zauBem8+8r1a/NJyegNxj9UaJLv8egq5B6WvdiRgP4uyNO32n1V88oldg+S6e6LQBPpWU2AZ/XXda93AhEz6tvaikTlcrGXl29LcYGtyZfhtIau7L3Q9oeyfcf3SuZf/uGQ/E/7JRTREdmduWwdRX0qFHzPh6ej3L2BtuPBbg2jZuBk/P1ZgTF9SlIPv6xdjoTj8iIFPqKE4OOsHP9l5n+KdLrqwHKj4oU+mqvRC8D0R/S8KhWONTE5Y27fJzvbd5z/rodAByQvGLRP1+YSHHRmr7jqXDPhY0EvYT/HlBK9T463p3kaQ83eM4mUuMAekm6ZYu4QLi4u6w7YoSs43NvfBay8++rZTvnTsD6YLvHCJrPEOg+AqpEzbfJmyAcEvZ7zup1iJUWjGuRvo8kQ0B0u64cvLIuaP6sd9EVMtRzcYez5MNdMFMk2TKakdYrwEx0rK2CDv2gqHHf6I2TmHzmck1HZLJe7krPPABmksVUIqZ+mI9yzsCJPZdy6TPycu4gWycxn106aagkHRCSmYTsxB2LaU7IyaM+0rqo+lUAH4skto0RiF6TFucf0VsJrY8ITx4SLYR2l3d3HwobyS6ZWT72JMkLEynO9g6WjN878OFOQBocgF9NDL6qt8N+9xHEPA32ssmVAm4wz6wLmH9FE+ckI2xxOP++mjZy5gSsnWON1qQXw17GsVLiYxCdHva5Dwz7PP8uVSH0xjhM95fm4QzcUt7T87ERNP/mDbSNFXVLOx+t9A3+QsTAy5O3XbFjOmtA4MNtFHsnMqX6A+m/ZOSMWTYKHZpJm+aFiRQnO5sEotPzbnMYbNuNAV8GxuhPxy5iVz61tb7Z2gfA6KRbAkjyDyG5oc6U/PrAmL+8sWatSK+PbD5J3ySC2Jo+MRlB888g+m0anrZIqZ5jCko/Sdn5EPhuxO9ZIspjR934cRvFHAkqPxxIowPwS1obqp9Y3xkzAPwWQKd00RY6jXCBUWk9Naxpdf9svre4nH9fSTPrTsC6OeZRKsGvglEj2rxVupjpqvWdsb3CPveDIOJSF0hC60sYaM/AoysBnEmkFhlBc2FdwLywPtjuERVMgz0DSGZAAORAh43N1cC0VWBzkomkEx0Q8WzpveTQ2k68PQzyVkTHZLRiTtiJCWfUBtvG5ZeEHefDximJPoy3mk3tZl59kGSyk/wDX1Rq/YyMRKGvjJ5nVgLY18YCP1Okl6TIWIvMtmKjeEPWzQAuScPDXtZxx5Etk4evKzAhHGFDbrNEeeyxrMvzEoDPkhc5JgAZcAACwJppwzeG/Z7f6bhjJBHugcQH3BJTB1a6nsjWSUAjGP1ltpx/BLzPhNkAvwwgC3HeuFY5E8+OmmW5M/2m+lC0jjWeshNrpIQIsOL6SIP7mjXThm8UcWxmeWPNWtL0U9hL395XxjHhVg29pi5oPu8NWGd7n14zWKRvD034RKQAKDjsnIJMmwPQG1q7F4AhSa9FhID0XnJEFle9YetDBTkyeg14c+Y7TjoeJ0HlTTKQYU2r+4P4Jxmbr0D5kwxkBismshMQ/onFjTVdMhKFvhKL67EAkj/9qtWLIr3k6FGdbwIQu/4bW1AmI9T+VwJ+loYN9AuqwuFbNnXI+kISQf2C9gEA9ku+vfysKJBNplECwCs2DPoDNv9PBlk2dUhbq89zDms6FMCb0lvfwl9XYd6Q6ZcYwegvAbox85MgVpLC0a1+z3ciPs/UsL/6cO6ODyXGbVmQpZFw8oJMOgG9T68ZrJlCACTm2pZZpIkODfs9jXLtbsuEG90zGXR1Fl7lYGAiEd9N5c6oNxid4w1Gf/Rl7Aehz3OaOAABIM52jNG0OQAVx/exUaxzSD/P29J5STKDNIGTNioJvG/mK0dJXw0lwin5kjBpUKXz+2Bk7oMMY4I3aO6dFxvC8R3HAhia/H5Qy/VfIcm5R42xUcwMN1atEOklR2/yPtnPf0kTO+pC7fcCaYjryght7L9xSsvEqg2FJgbdFd8PgDNZG011fvpvUaJUVIYW2Cg0ZsICdjqzUcFIo/t1MB9YFzRPYqKbAOwq3dbbD0Q/94asf0V87n9l4vlZc/4B7yZYH7V8yjfjFUROHPYJgAuNoLkSwF8AUAbrYCSc/PyoWdaRmUg0QeWOPwPYTbT2W6wF8Ltwp/u23i8SwrbmQ1/VNUbI3BOg6Vl6pYtAkwFMjlN5zAiaCwj0tNPJM9+d5GmXHtk6iiWMBQAklNpISHpopy/EhcKoZM/NEvCmZJazvaN+A4wTkyy1V8btpe74w1TuvBFA3x16jMGoGDwZQM6vgzPovIx3HfO5AM7LfVttXf/9oNVf/YoMQCE5XYMdp7ckrbTPywCOKHkpNLHDqDTvY1DKp8wJaO5R60/+YOJe3YUpDDXSRqGPuGLnqXWBqIwom2jGABtelf7RTe11zqzVkohbgSfqF7TP4S59JW++J99Pug9EzHeNbW4ble5rD96g9XOAs+P80/qobQUrDfs9t9QFrU0MvhOZdQLWJZx40ZjbMTGdmZPq5phHscZ0Uddv0A3QLTqufldox9VzPeLDM/jHxnirB8CZWX67C8CxDD42FsftdUHzJSZ6wuXgp8QZuIXFVYFFCnmwwWOMslFMvizbF/i/bSzTGXcARk4c9okRNOcgyeRbic0btJw6AL3N1kEAZyEeIZ225/x1V7x/zM6f56qt9QvaB+hOfVyyKsSg+yVesJC0xgOGDaV5TSRnDwX1qi7xyF4TFrDT7LTuB+iUNCjwY1X93ae9MNFTwB8saS8b0Y0MJpKkMimpjr3l0qG1V2W7si0Tqza0+j1XOpyJkQA/JN0HANiji9TZaTU2s5fwY7vOvy9p9bvvZs54DDQAXIuEXmDM7ahOnycAV4uafoNnHaz3Dfvdl4nzzwYzSId97rMJ+EPmx8PW1wAGJoL5jlgcbUbAfNYIWeemddwIQnrMnD2TXwZYrv/aXe7iLjuy2zkr8Ua1nWvAfFzOY6ESZyc+H2FAv56enGY/TnQlTrIRJ5mdhIdl9AlJT/WEPZIvQ2GRnD3iCb2slNtf39RSZm20moiQsvOPGY+4+7tPK/zbCjxSRkYhzZmqVuXq5UsnDV0d9ldP18xHAnhX9jf4xYjQivJ0PMobsM7ON+ffl0Qa3Pcw8c+QFSdgYm5vdrCUMIJthzNwiEwZABgtYDom7Pccs7ShRgyolMY8cavfcwWDTgaQayeqA4SjwHwHEok1RshcIAlEhDwaLMmHXlCOlSI3e/R+1Ek6jIYqd47IdN3UxrVBbA47kQxl1M81LVfyHD3PrCLCSTaK2loXGHReb+bsXI1XG1fi6OWlPvd7MvqEZNh9wap+YHiSHiNxlvh/dteHt9wfIisJHvOPEaEV5YkBg58A44TUt1O4O7LIPb0oQpVw5m8ACOnsLx6pcl2HZQ3VC8IL3fuC6HRbmeeKh6GuxCBfqg8xgm27EfGtWahv0s6/L4n4qm8D+EJk/uTT6Hicr0nZlIXjxzJb0KcALnZXuseEG9yStSmNRPzupxiOcQwszJMqKTAmfJlAxAiazXUh65TeLF+CkGWD+5NBACedvGaTy/m+SC+VdQ/JO1CJMu4AbJlW38OER21YvDnLBhyL4SwASX/gZeIrAbJx2oZrjVD70blo68jmtUPJRnwwIpbkH0LSDNhYMRTJJ7TsWbbJ/ZFIzyYzSBOwqtSaPba5rcLFA5uJcVwaFtgXIj73uZhBhX+XegYrEL4jA6OgGK7yQ3lIh33uB/v1lNeC6AaU6JcFUnxS6k9RF9kxNJPEtvPvS8L+6tvBfAEy7ARk0LmbN5D2mLCAnQxuKOFJIk6Ee2Kka8N+zy0SVD8zRPxDlnsq3AcDuBjAZ3lUNReABmZ+WHdpywiaj9UFzanpOq0sCNtVwETCTmb3tbmMgVYMMDjp01jMesesVE7byBTLOKh2zse1WRdkEztAOMtGfTfEUfYgmO+y2YPn50JvlIpPB+BIstjGTa6yp2TUCUlrOemdbey2VknCulTXB5TUCfvR88zKLlKzARyTJgEeXheyjisG2YzYf90ASE6HQqNG5VNt3jlhp8/CPvflCa3HMHhuCU6ok9NwbSPTE0rKzr8vCTdU35EFJ2B/p47b/hJubbTGAdilRCeIZ8nBY1p9nnNW+qo7ZL7MLC9MpHjY77klRjwSjL8ByDcDtQLA9xh4xsWDonUh825voG2s9JyQURzazjV0UwSXKip5GTKycko40lCzGDZCx6iEOiXbUvRWth8PIPkr7EQPrvQN/qK7vOw+wFY28sba2eYe2W4vAT+0UewpcdgLtvZNbMc+15LwLPX9asnsCUbPMytjCQRAOCqdCywzHvYGzb0LXT4upStlRBTcAK5W+Viv5Y01kYi/egqYjgGjpYS6ZGcjFN3VdukmdgDYPYOm3bJ0Of++ZLMTED/PqEGqtO1rScQ0pgQnhpXEPC3s9xzTOrm6BUJWWemr7gg3eM7WCexFhHsA5OGpS96JGWcTqUVG0FrkDVhnpyPepiB8ezoiGye4+VORXKqC1+uS39LQwGxVj5iSTyJHNB0zOKt2r7J5Eo+x+eTf+8fs/DnDVnIMpZx0TjbbWhtsGwfYyNjNJNd/BZvTFO2Q/Niy5VAXvklJJP/bc/66HWJxPAvGhPQvYhhAwOwRoeiQgh6DCQyU4VB4qHyuXLjB/WyFx70vgy5Ffl2Ly9xAIjXabtl6tDqQ/NWLZCzuH6XT+ffffvbczMDzGVRz+9cVmetLakEnviym1o9qbah+QqbH3LLsOM+qVp/nHAeRl5j/BGBdftaUxxLx3bE41tQFzetGzbLc0ntCunBotnG1hOQ0UarLPankZZilE4AAoBJ4CMl/HNnNu795WLbqOCrQZjCS3zgSsCDi9yz5qq0O/ivs3JRgPmP3BauydjWLoOzEWfw43FW1QEacYG+e4v425rb1IrlUzT5sKPYm7h34cKfynp5/ATgwg6/Z3aXxdH1TS1nBjkEdk/jgBddpWK3yvY6Lx1Es4nf/WTli32HgVuTftbg0T6qcn1k3id4K+zz/zuAL7sjL7iCUQhZUBvghBTUy7Ku+caVvr5KMwZmvLPW532ttqP7F+s7YMAL/JI+ShfwvOzJwRcLJHxiB6B2j5n08XHpPSH0OTt4BSGCZw1I2RThmo1jWTgEvneq2wPhX0rrBlLVkIAlyXAAg6bAuGnT71/+79yT+SzaqsEu/zn7fy0ZbJyxgJwHfS36s4kGJxybYJ/kP/My8QeSWotRVcZ+iHBGKDolR+QIA+2dhf32orhh8Z+EqA8QBWHjMVYVS05bJw9dF/J6LHKz3JuJ5RTupMuXnUVrN72S24XpxPjabUNwTGwMLWdMhYX/19BZ/lcTNymPWTBu+sdVffV/E79mfWY8j8J8B5GMmu34gOjcRdyyrC5rX7zl/3Q7Se4LtpQfkTHpeI6VFcimuDcQJW2M/m+uzvcyxJ49tbqvIdN1qZ3UMBPhUG0ZHW6W7ava3/pr5dlsyUupn2egLc6M1BUDSp7/jWj8oo02wvT6QdiY/xOQDUepbQtpUrG0bNctyu5ieI2CfLG42f2IEoucVpN8CzgoZEQXFeh133KQKrdbaSYqZVLH2ClOeXssm9M/k4x2MvJxA2MbX+0KCCJ0OoEvmw8Ii0lCzuNVffWnY594dhIMA/AXA6jyrZn8GLi/v6VlRF7BOlV4TbK0NxD02dicSjzL1Nd/Gx6/snqzpqtg0G6Bk4z0O6lTq+Ixvipzx6QCSjl/Jmu5ePI6+dfqyv8fzDICPk+8S3q8uaB6QcXVh2Jnj31jeWBORwSbY3xSqHhva6hLBpbw5KsrDEfXBdk/Cwc8ByH5yDqJb6uaYRxWazBKU2CgDomDYRMTfWzZ1SFvBONL2Dny4kxGy/sAJegvpSsOdj3Mq82d5uhk4ojfJSGbarSlfJ73ijhXCmKAVv2UEow9K7LZC3KQTh32ef4f9np+Hfe7doPVYEP0fgDcA5MspqCFM/JARNAMjQmuGSacJSRmXdk4aEMmVlJTXhuRlyJTduFAfTNxjE6Aft9G407Igv3NtlIpxQv19S/+weBzFmOkee8u8vUQkfaX3lHejjXEqyT+E1EwghaTXB+bsnlQuTtMTRfeRrb65bVfN+mUQchX73ckaTfVz20cUlC4kWGJqFkRH4QWt6IBWX/UcAHDme30nLGCn1WWeEye6Om/j46UTRfkZ6J9R461oPyMC3JPuR4+eZ1bG4rgkT0fMOjuxtwtN6wA6LeHkRiNgXl3hcd++pRMIQt5bZBwG3sLmP9eOnmdW9cR4ChFNAehYgHfKcQ39Lna96w2Zp0d8nmbpMKEvOAhdOtkpmCQmTRo2eAOSXvpYbchBRR8A46fJqQcdO7J57dDljbt8nIkqGQHraJCtBGJPLps6pG1r/1jm4rticVwJIMm4ZzRt1Czrl0unuq1MtLcs1jMNSPqWSA9vijXJSBNS2powOpO9pqMIg0RyqQpeDwQVzwUpI9i2G0M9D2DPHFdlZ07o5j3nrzvw/WN2LohkZqxcGyj59AwWmP8iAynDfUMqpgiWAv691Od+7+v/ltcOwNpAdKLVZd0M0Oji98H0mmms37VbtuXkupgRsjYhQ3F4iPgv3lB0WcRX/WK6nlnf1FLWk8A/CdgjgxbCF/YbjZZS0T0AO4Lwly7LPNcbNC+N+D0BmT4Ll3cnedoBPADgATSxo35gx0GJhJ5CxFMAGoOcXG/nnYgxywia/xf2e34nvSRsV2OgPk36MCvzQJFcyhvrgUlPEJT9zJBhn+ffdUEzwoA3GR+AkxI/AHBThgw5WyfuNNHt25vT64LmUwz8MMlHl8ed/BMA12emuXxasssJM82OnDjsExlpQmrzlF5HSTqiGKgSyaW8ISyaNbZ2trkHgOc4DftQJr6JNt9a+I19mwfesp7ux9DEDYWQIInj2JBspGYGKNJQfYMMpNyRl1eAR4Ws7xhBc6Yieh7A6BLqj3VhX7X9oP5EDOA/GaxfBTEFjWDb4el4WH1TS5muHNxEjOMyOjlRKglM+O0SXNlHEtBsBMxg7ZyPa2WaLAKmUaJlStUrkQbPr8P+6v3gcAwlwhkMngsg26c9CcC13qB5VybDCgjFssGL2zkVPwwzWIn0UhqkuyVtUDI25KiyDyW/yeIfZaIq9c1tuwJosLHp+88yn/vV7f1OM91usz9/OmEBp/2jv3dOdHeADk2+QizXf4WUcbKysz7UiORSZngxNKJ2zse1yoGXkZZDKPTHiK/6l2Gf+/8APJ7Sk0CTjQHtvy8EGSZcyZ/8J2DIiNCKchlGuSOvDOTR88zKumB0RoJ5KYDjS7A/5vU68VLh0QzXsRKsgnWBtsNSMpJ7nX8Apma4vh9FNnhesVu4osq9GMC6kpwdCD6lHUu8QfOWMTM/3VGmy+IhPHlItNXnuTfir57C3fFqJpwNxnMAEtlTL5xjVFoPiaNG2KaR0vlp1IZe9q8fG5V4k6nASDoOEROsXFQ1nnA+kLSOEOrrQu37pl1sSv0UNm7XEHBbX34XaXC/BtBiG1Xb1drQ3ph24SfUdCR5/I+B9kq3e54MMiHlsa9Vh41i1ZlwhpfY/mCvwl/juFZpx4sAhqb+KFwX9rt/tVk2xC4nzkj5AAnzZYWQQG/lmztvAJKOxUmO+EBxxOfSts6TQUhGyJoei2Mlg64CSjRAK1HK8VAqtP4bgA8zPPEPYKiQXSdgFp1/YPBVqRyh3hwLj0v5KqyLgJ91l3W/ZwTNi+TEVvEROXHYJxGf52/hBs/RjjgNZeILGViYpdf/oG6cdYv0grA1WqbV9wAwky7oUCNEejaZwQqUfCwkBb08F9XtjeW3IHnTU6c1GciI0IpyDZxho+hnLmcSH2+Z77Rnu6U/GQhR0teRQcAjEmdYSAfL3t7FBNCdZDFnR3fH7iI9e4yeZ1aCUV0Ee+5DAaQh+SH9MdLg+fXX/+bdSZ5OHXc2wE7m9q9P9cR/M0LmgfltL5AG472k7QUXGzKackfOHYDegHWwEbLeBPMDADwl3BfRjf275qb6kMWNNV0a+iRkOnttrxOwfk57Ulc/suv8w30Rf/X9KTdV0YMyVWBnADcbldYibyh6hIijOFk61W1FfNW3Rfye/cnBowD6IwhtGR2nhAuMQPQ8kb6wDZL+qMVMe4nY7GGMjw5H8kkddGf/Te/nbC/HyWeUZeCUsYvYla46uDDoe2Qvvth9707ydPb1x+u7Yv8EIfn4eYSjjIA5Km32e7N1EMBJhwlRWrL/Cml0PgBJh05KaC3OB5skemgEchJDOh+hP3518u9/WDZ1SJuGPh7AxhRe0A+MmSNCa/L7RoNC0h//WNNo0Z9cdlmOqJ3VUWMEow8S8SsAxpV6RzDRnz6YuMemdDxrmb9mETNNBvBFRitNGKC1nuttjk7oy8/HLmKXrhz8OLLg/APwuKfCfXY6HtQ6xfMcCK/LdAEAGENMLxhBs7k3cK5QpLROrm4J+92/Cm9w7wpNJxLwaubmEvpT7RxLjAFhy+sjsCz5MnqMSM7u0q7syG51umwYO3zR1fMUgM+Tayequkzz2PQpqq0Tdsxw3JVMgTXThm8E0732+hbnpG/atnWC8p2WRvd/ZJQJ6Vsf+L3kC9F+Ijl7aAf2ESkAAN24Neff1/fjAKU653pccM0a29xWkceySNoBqIC9RYdyR9YdgMOaVvc3QtZvlTOxHKDTIF8RAOCjMgfflc4HRhrcrzHTFGTaCQhUkqLA9pyAYxexq8uympCd2I6Puyvcp74wkeJpGyisrhE1/QYNyoEWI2heO3qeWSniKGKmUSLc6J7Z6vccCsJBIHoC6Y8V2E9pfkCumAtbMS6X2ihzuMjN9pbajuxW5LLGm51ieCp5NaHp6Xi/0dy2H4D9bTgv5kX8Q2xcnU7cbmceZsLpI0KfDEq1vfVNLWVQNC151YKc/hPSuzpALUm+DA4QydldHvgwEQLdGPa7L+vLL8N+90MA3ZiizPfrJMcDYM5Pn4nmpNd/BkSPckhWHYDekNk4sNLVAuZrAIjToHcMKKhzkrn+0Ve+5gRcn+E2VJKi2VvLDjysaXX/Lst6Allx/vFD4U73Kel0/gFAi79qLjKfYKXQ6A/gN7EElnsD1tmSzKH4Cfs8/w773NO0StQDmJXmx4/xDrB+IlIWtrBZW2KjmDEiFB0i0rOxitpyntLy3CuKtuNcOi4tSa4cjp/ZrLStrL5hf82HAObYKDrQxT0pxz5MVOzSAMbgJIvFFanHZIQJaR32jHdtzHIHp/P6f4lJvMQdN313/n01Xy+suoIJs1N6K/FJ3pB1eT5KRDnUMhvFhhvN7RKqJVd9lo2X1IXa9zWC1ovEmI20pNouJkMbf+11LmWEXidg5q8DAwMB9aw3aN5SO8cajSZ27B34cKe6kHXKwErXYmTl2i8/FO70/DiVpB/bIkZ8EVIM6FqkSlxDxHcb+1uv1M+JjheBFD/LpgxdFvZ7jgf0ETYzUm5Nl35Xv6B9gEhY+Obcq9/ZvFwmZy87tZIvzElSO6tjIIAxNjbhOQ+TEfZVvwwkHYy83yZXz7RU3juyuW0XMH/PRtEPI53uOXbfq6But1eSzk/1JAkRJ+1EJGBOi7/KlFEmpNcE5XdsFNthg2keKtJLjlGzLDfAI0tXAsk7/wAAM0g7+qtTYO9j5tfn0N/VBc2p+SaVfvH4WwB6kh67xBNlVOWGjDoAvU+vGewNmrcw64U2r5QU+0Qyx1PhvjTTb4k0uF9jnRUnoIuAnynN/zEqrXicytcx88MAshFs93F3hecnmXL+AcBKX3UHkWoEY4Po7hatsIO0pjeMkNVU39y2qwik+An7a15yV1QdyMCVSD4T35aMmyrdqc8UyQr/O/cCiCSvUHysSC9Jo9CljwLgTF7UiZdyb1IRM+ihpNtMnNI1YAfRGQD6Jb9m8p2p2CwtviHzYO/qtVE/x7K98fI+vWYwAJ+N7pGEakL67ZBF7laAPk1aH1XyOlzqaAeOQcmG7rLp/Ptyvp5YtYEVH8dAeypLNDMe9gbNvIqft7ixpouAhcmPQZ4soypHtl4mHlrf1FLmDVmXUrnzPQJ+BkDiOv2v3Qee63Lyyem+qro1Io3u17PkBMwFaY/5tzVafVVvM+gkAJ2ixVuez8F8sibV4g2al48IrSgXkRQ3L0ykeMTvuZ5IHQQb2Vq3sEv8ad7GORFyuWi+kvxkhO/KNa9k5czft1FqVUtjzUd5UX+lH0CSp0UZOMQb7LB3qmUGK5CtIO/dLhfdl+JcyWDcYWsjby9hyebXljm+B6AsyWLrurGhWQaYkHZmkAY46SRlxCQOwGSXB7J10rkIdjZ0QyrOv6/24lOqP3Ao9V2k8sGcMICA2fkW4kQzXrRh1/nSEoJDSN5USvcDjUDUryt3XkLMNwHYQUS8Rf5R6fYcl4m4f9uceIrTCZg1599Xcmxwz1OKJ6b4FafIF0sMIOB6Fw9cYYSs6SKQ4qfVV/U2HI6DACxN7UlcWx/qkCxzwv9MKWTnhNkuG9vNo0V6faM3oVODjb55MV/aEJlS/QGApHVFIf5DO++rG281wkZoGwI9+u4kT8o2RHd52X32biXQVCPYtpvNzbCNGIL02ErfXt0yyoSMrA9saw6qMwLmKJFe39g78OFOAErvVD3RDWGfO22x91qmVL3C4J+m+JjdXRpP1ze1lOWNnJStMVi+qWzT8TK6ctBd6XqQN9gx0giaARAFABopot0inxHTaWG/58zF4yiWE+O4uJyAWXf+/XcCr17odCbGAfiXqPU2GQ7mB7xB87l8O7IupJ/w5CHRGPGRAMKpPEdz4kSRpvANneiJzYGdrKeM74v0+kZPHFNhI0Gbhn4xn9pB4KSTgTDodDsnjxmwdZKOlL4jHW19/5idPwfxwzaKOkDqrGQL9QZtTzqDqtJasv8KGYPBc23OFT8S6fWNOMpPRPInfwubNDv/vtqL+6vvB+PmFOt2qK4YfGe+iKrMwa8CiCU/BumHMrqyT8oOwL0DH+5kBM2bCYmlAPwi0q3Yx8A/XE7Utja4H851ZSKN7teZ9ZF2YmbkETlz/n3J0klDV4d97skAzgLhE1HzbU3wOJKAt4ygdXtv/CChSFnpq+6AVlMBfJaCYXOUSFL4xrp14rBPwJx8ogmmE+WKSZ/naTubYc1xZ159CKMKxxM2TsXtXheMJpUUoNcZZueE6ZstU6oXpqu9ivBXJJ8kB2CcvfuCVcnFLlR6OpKOAcbLWxqr35QRJmSKcINnKWyEIGGiUyVMRF8nVj69tNqbGeffVzrb5f4FgGCKi/ZPjED0vHwQ17uTPJ1g2LmpcfTI5javDLDsYt8BOIOVEbKmx6g8AuAiADKBbsXQA+GQsN9zZjque6RtM9VQs5g5cUyBOgFz7vz72gLBYb/n7+Xd5SNAdANsZEEqIZwAn0flzpVGIHpZXh1dF9Jr2DRWrSCmC1N4xL4TFrBTJCn8j8WSfAwxwoDu8k1ni/C2TX2ztQ9sOLMIeHHZ1CFt+dSWlolVG0A8M2lnAFRSV1tZ6QtgJyA+0e1pba+vuhWwtfEaUtFZcVLfG8xEwA+Tl2uKsQ4FoS96Rphto5h7o2keL9Lb3voQ3R+gw0qmwRl2/gEAplEiRq4fgtGSYl1vqZtjHpUfYuNH7BRzKLpIRllq7L5gVT9vs3WQN2h9t35O+6H1c1fvvG1z2gbe5ugE73jrLTA/QECViH2LfAyi08M+94Fhn+ff+VjBAnUC5o/z72u8c8JOn4V97ssZjr2R6hed4mdHEP1BV+68xAhE5dRwkdLqr3oEwBs2i/dv7zZrRYrC/zggHsfmE/XJ2pcXyQeHbZMg/iVsOLM04dG83L8pSv7KKeF7Y5vbKvq0IV7QPoAAOydi1m7s39WU9vYy23IqMvU9GYgRih7GwJ7JqojTmXhERpiQcTQ9Zm8M0JWSeGw7onWoX5RMY7Ph/OtlpW/wF1qjEcDaFB7jZI2m+rntI3Ituk1l5U8D2GRD6NPldpg9RoRWlBuB6DX9u/q3k+LXCPyk1vplnXBZ3oD1xMjmtUO3VC4pB+CoeR8PN4LRB0nRAgIkSPuW6QLRDapCecM+94Mg4nyubIE5AfPS+fcNefqHLA/7PQ1gOgZAqwyHbU74I0EUMILm/PpQtE7kUXRGFBP4z3aLs1Z7iRCFrxP213wIsnHSiVGjB+wisQC3YdsRYZqNojFsij+dj21qfcO9AECymYkHdZE6rk8b4o18GmwkuiPg7x9M3GNTuttbVemZyaA1NooeWBtsG9e3nyobyT/w7NJJQ1fLKBMyb39XvQ5glY2iY4xQuySL2greOdHdwXxCKbSVQTOy5fz7kmXHeVYB+rtI7QbZzpzQzXvOX5fT5KubY9KSnWzvFarc+QsZbckxep5Z6eKBz4PotwAG/s8/O4n4JKUS/x4ZsL714a5PDsCxzW0VdcHojETcsRywk/2rZAiw4vqwz315y8SqDYVS6YJwAhIey3fn3zc2qg3uZ1XnJ/sC/CsUV9blTHC0ZnrbG4r+cUTok0EijuKhv+YAbH0NBMB6qEhQ+PZSgIdslWO+akRoRblI8Nsk4o6rYC+My7zIicPyM/7tDNLMsBNzuW82LvO5Np6tEwnck4nmvjCR4kT2nk1Q240h1Rsr8KRkn82AJP8QsrQ4EBPxQ/YK69+KALe2dqoZAIo+JAuDZkT87qtzsmf017wE8M9Tqz+8ZT3dj6GJHTkW5T9t1v+iEaE1w2TE9Z1YHHcBOHjb6zsPcxDP/N9Yp9t1AHqD1ne7HGoFg64C0E/EvUXxLtZEh4b9nsbIlOoPCrEFee0EJDzm7u8+rVCcf1/SMq2+J+yv/qMjTiMB/AO2rq6VDGXE9Asnx1u8QbNBxFEcLG6s6QLwli1jgJVcBxC+hdOBx+2sUwzsWaYHXSgS/Cb1wfYxAH5sp6wizmvnDrG6H8kmxyAcWx9s92zTLm6OTgBgJ6t98+bTHhnaDEDfBaA7eRMLPxwRig7Z1m/6b+w/FcCOST76i0qtn5FRJmSLRMx5N2xkIgXosPpQ9CSR4DepC7XvC+aiP/iTS+ffl4T91beDOaWsvgSabAxo/30u26E2rA0BiNoo2t/Jzmtk1PUNY07UB+DUPv58dKfZ/g07b6sOwPoF7QOMoPkYgZ8Eo0ZEvUVMIpwRXli1/zKf+9VCb0xeOgEL1Pn3dZZOdVthv+dMIjUO4Jdl2Gyru3kYAc11IfNuycxWNLxv07nQX0Qn/C/vTvJ0Avi7LSOf+P+259wpNTT0H2EjHjQB77ds8MzM57aFG6tWgJBsDGZnArztRBekzrdXo/Qm//hfVvqqOwh4ykbRctf2nMAMO06AJ3o/AglCVuhNSGQrDrdmujHprNhFDjPfjFQShhZCG/PA+fcl7krPz8B4LsVOu6wuZP4kV21omVbfA+Zb7O0BMb0uaB4gI2/b1M7qGAhNdyW5p5r+jf/e0o9GNq8dqrv06wC+J2LeIt0A3RgjV22rz3MvZlDRnOzKKydgETj/vk6rr+rtsM9zBBg/ACAxcba5fuHsjZb1lFzZKwboC5tKIA5gYSskbgdgZ10YqKF/J/LbTF0gejJsZP7t3Rj+CdMokfezDyefDITAP96G4V1DxFNt7DJXhhdWPZfp9mq26WRkOm9rV8dGzzOrABybvOy1XP8VcoD+i82Ce/TfWPFLkV/v+hCMTgP48KLea+SR8w/YHMpBOWPTAKxIcQ91uxEyD8xVO2Kq7E4An9so6mDgXtn7bUdIrsRNAIYnp+vY9+vJjr7lABwRWjPMqeIvARglIt4is5RDjQr73Zet9A0uythu/3UCYl3urPbicv79t13E4QbPYxVaexk0A4B8Hd/6ZNVYxgOfyIN4FkJqPWkr+6omtV5kJ2yJsL/mQwCP2Sz+E8k+DhhzO6qZ6A6bxTvWd8XvK4R2bipzPQZgY5LFRtU3W1tMdKcc8Z/CTrxEwm3Z+FgcaXC/BmCRjaK7eQdYvi1u5uL4gY02f9Dqr35FZishB+vDS2C2p3vM/+cNtI0tdRmOnmdWadBfi7yZz+ST8+9LWiYPX+dgPRX2HGhf0g/AU1vLAJtpVvoGf0GA3evMdS4MlJicWxNO0JzKjLNtFO2PJ/7r9/uGA7B+QfsAFztmM7CniPhb3ogWgI4N+z3Ht0yuWlnszY001CyG1rlxAhar8+9rLG6s6Yr43Vc7nAkvCI8h2ThFJTPs0GhUWn8USRQwBFux/Ij5cxGesDWUQ10Ne6cACUT3lfRVYGZCIvE3ALvYLH7bmmnDNxZCU98/ZufPAcxOuo2kv3Xltb6ppQxEZ9moRpeTux/M2pRL9jZeCryVq83JJ/9j0P0gErtGyBV/sFnOSaTurW9qKStZyTFTT5wfIKCqyFv6Sb5WbGlDTZiZvmfTxvlyEq5xOBKzxza3VeTG9Fe3wHYSQFxWF2g7TKaxb2IE23Zj4F6bxc2v39r4hgMw0aVvBWhfEfE3VPhTMF+uuj7ZL+x3zy+llocba97KuhOwBJx/35jkJw1dHfZ5fqA0HwgkHauoVLhETuwUsjEJr71NrDgAha3TMrlqJRh2nSpDGPqer1+HKCXqgtYFAOzOqesczp7bCsqKs5GshIlOnbCAv5H5MlE5+CQASTuOGXhoScNuWQur8sWG2KOg5De3zHRs7ZyPa7/+d/WhaB3AyZ6IYifZysAsCOnZv/g9IYAW2yw+WlcMvqFUZeedY55PoMmiRbkl0uCex6DLUrO/eb9OcjyQC1unxV9lwv4pQCeTetyY21EtmrCZzY5cmglgZ5vK8OzX/+srB6AxJ+ojm5ngipQ4MW5Tjp4R4YbqG1qm1feU5CKaTSdgiTn/vjFRNla/GV7oPgSMMwFYMvy+tYO7e/Q8s1IEUViMmfnpjgBq7ZTVZC95iFA6OFyJGbAZRoGBRm+wveSumRjBtsOZcJPt/QTxVS2Th68rpDa3bvD8i0Frkizmbt9oHvNNEwW2kn+wsn3V2hZrpg3fCCY7pwRIJRw//cY8DDXdxmNeXupzvyczlJBDm5GZ9KUp7EcurgtYp5aa2OrntB9KTDeJAuUHEb/7z0S4J8WhcJI3ZF2ei/p3l5VdncKethqJ+OOSEBLADFZdDsf9KRzS09B889f/YrMDsIkdSNCNMtS+2hg8z8B+rQ2eCwvN0M0EWXEClrDz778DnHS4wfOPGLlGAvRHAD0yGr9iaE+MLhUxFBax8k1Hw2YGOYeKLxEJCtti6aShq0Fk96oXiHhGKW3yamebewDqSQB2r7e1VlZ57i64hk+jBAGPJm8L0lfOr/pg+xgAB9uwKF9eNsX9bvYbnbgdQPJJWgg//upj2wxW4O1kRN7yuJLkH0LOifiqX2RK/vr/VyOX+J5Sigc4MmDtqbV+GoAkYMgj+le5LwDhhdS22PhdXdCcmu26v3/Mzp8T+IoUan5Yl2X+vVRva3xJ3TjrFjCfbP8JfE+4seatr/+NAgCjwjoZhPqSH2WMlcQ8LeL3HBXxe2Tz+TUy6gQU5983WOkb/EXY7/6Vcqh6ED0hEvlyU4GL5RRgYaGZTrE3FdMa+fgi9IUYvrgR9jPmERP/zRuwDi52Oe0d+HAn5aA5AIbYNpGYfr54HMUKsf2K9P02JqLje08xQ0NfYHPhuj0X7Q37az4kIGSj6A7xOJ0KAHUHWBORZKZBABs3ucqekplJyAsbRNMlsBuHDOhPpILeYMfIYpfTnvPX7eAgbk5lfRAyw+JxFONN8ZMApHKqWjHjYW/Q3Dvb9W9d6HkAwBsp7P6mGyHrT6Xa/0bI+i0TLrAtPeB9HXf+6lsK0WvlnF/i4+sLEF8WU+tHtTZUi8NlawZlJpyA4vzbKi2Tq1aGfe5pTDQJQKtIhHeKxfB9kUNhsDl2FI6zNy3oN0WCQl9Y6durm5kuhP1ESv2IEKhvju5frDLaO/DhTjEqnwdwrd1nMGF2pME9r2DXU191K5LPjtuvu6z7pL0DH+4E4Ac2XhutqHI/nTPnB9tzPjLzhWAm5uSTfwB4qjfxiiDknOUN7vcJnEo8PzchMb++uW3XYpXRnvPX7VAe65kDoE40Jj+JnDjsE0V8HFLJDEwYQMDsEaFodp28M0grxRcC0Ck85RJv0Lqq1PrdGzSvAPM1KTwirjWdumzqkPX/+w9qZPPaoSA6pFQ9CgA/pKBqw77qG1f69uqWaWbbpNUJKM6/vk38Pve/3BXufZjpHAAdJS0MwjTRiMJAM90Im9d/me1f2xFKcI5scM8D4+8pmAI7aaLnvM3RCcUmm/q5q3eOUfk8AsanMPF+6nQkLih0WbCtq6l0WgL9zgCQdCZFAt+TyxOTEX/VvwBaZmOdra+bY04G84k2hCzXf4W8or/b83sk7/z/OrtqpZ71zonuXozrQ3lPz7NgHCSakt+0+KpbifgHsBPa4b/s7tJ4OttZrlumVC8EcF1q2z+eYQTNP5fKdWBvwPw9pSoz4usije7Xt/RvSlHCD6Dk7lYT8CqzHh/2V0/vzVQj9JFwY81bSvMUpOIEJHogvMF9qjj/+sYLEykeaXDfw91xA6A7UlwACpmJuUppnyq1cz6uNQLRy+oC5l+9IfOsUfM+Hl6snWSErOmwn2U0EVe2rq4JJUxMuX4B4KMUjIIBRNRcG4hOLJpxOLejWsddL6Xm/AOYcebSSUNXF7xANiUeRdKxdfkwJrYTfzYW166/5dbQJQbYVhZGzXQ/gIFJSQq0Jryo6nmZjYR8YvE4ijlYTwewMYXH7EVMr+biCmWmGD3PrEokXM8DGCdaUhi0+qrnMJBa8jKiQ3XF4DuzXXd3hftqAK+l+JhLjDnt901YwM5i7eMJC9jpDZp3EeHKlLoZeLWqv+farf27ItKldvrvYxCd3upzHxZpqFks04k9Whqr39QJjANoTpJFO8B8fnhK1Y8xjRIiyeSInDjsk7DffX5C61E2ZF8MuDY5nfsVWqXrAuaFSjveAdEfmHABMe5JxB0fGCGrqdjiy9QH28eA2X7WS8LLK33VHTLahWRY6Rv8BRNPRyofRwgDFNFcI2SdW+jyqAuaByCRWJiG+M7/iDTk7hprutdPgAPJ29Hw2NhkPbO8cZePc91mHXfcC2C9jc1DVbJlFPghzCANQcgzljbUhAFckdJDGDUEvFQfMo8sdHl4A21jY3EsJGAf0Y4CW8f8nusBPJzSQwg/MQLR87JZ7xcmUpwVnwLgs9TGIZ9udVnPjppluYutb71PrxlsdVpzCTgnxf5tY4fj5G0dslIAjS6RMdNF4KsrtB4Z9rkf3PxlVEiFZcd5VoX9bp+DdR2DLgXodiLcs8U/wPXQdOL6zthu4YbqO0T+qbG8sSYS9rt9TDgOqQWGLThYc0ElLDKC1mlMuBVAv2/vl/hkQmKpEbRuy3pcjkwsXsGOkZp0EIDtZC3MdJuMcMGWYeyrfhHAjBQfUwbmO4yg+dCwptX9C1EOdQHrVAYWABia4qPe03HHJcWkIypLV1QZ+vZ8aO/m2D/8SDbeFdf6QZmFhHwl7HPfykxPpviYHTXjX3XB6AzMYFWIcvAGzR8QqZcA7CpaUZhsrNh4FoB/p/QQolvq5phHZdVGm1L9AYHPScOjjki4+K1iSuBWG2wbR+XOhSCk2ifdxDgxPHlIdFs/coIwHMXtimEATUrrX7U01nwk00b66f2yFhZJ5GLD62keEVrxLycP/DkxrgRhQPG3mncrlJqObW6r6AL/eTs/cwF8vovpNG/QvH5DZ+yWNdOGbyy0XvE2RycQEk+BsXMKj1kV6ax6Rka2YHuTt9B9nTHOOggEX4qPOnVApau2bm70x62Tq1sKoe1jZn6646ay7j8z+MdpsJw2KFInhbcQPLqQGVLpDlldlgUgk6cHWiNTPC/lS5sV4a+acQ4yG+7njeWNNRGZgYS8hYjjoU/OcHF871QSIgFwMOgqY7w11jXPPOPdSZ72gnAwzOoYSM7EH1M+XSTknA8m7rGpPth+gt6cMM9uOCEnazTVz20/oGVy1cps1b3VX91UF4juz0SXpvQgRg0Rv2AEon+IqQ2/L9Q8DhMWsNPssn5JwFUAylOe5sDntvqrt5t1WYGxUxFP9m8R6yPCfs/3xfknFCsrfXt1R/ye6+F0jCTCPUgt01Lew6BBhVLXTqWOBLBLH38+iIDrB1SWLfcGoz8qpK/LRtA8kxTNA1Jy/oGAmyU0gJASM0jHlOsHAJambkhhPCfobSNk/SHbQbOTHoOBqH9TWc8SAn6chscliHBqi7/qnWJTjxcmUhyMRzNqeoL+mk+3HFp81a0gvJhhe1uSfwgFYC8P/kKRPhGpZFP9Lw2xBFqNoHVavre7LhSdopyJpWly/nUAdLtoU47ndX+VSaSmAuhM4TE7c0I37zl/3Q7ZrHvrIs+vQPREGh7lAtFvXXrg4rqgeUCh9aERMEeZXdWMnP8AACuwSURBVNZrvck+Unf+EV/T6q++ry+/VbCZpTHPscA4M/xm1fjWhpqXZZoQSoHw5CHRVp/nHKX5IKR6NDyPYRRO8FdiTvqKBYGHEeg+Y7z1tjdoNuSzI9AItu3mDZmzAPwNQIoOElpGnZ/cJSNZSMcmTydwHIBoWgxM5ssSlYPfzMfYT6NC1neMkNUEogCBh6Vplr2o1e+ZVaz6oUhl0lm1voec/8y7NoMzuWHv4U2xJpl5hEKgxVfdqggnIumEQFs0SAcD/KARNOflY4IQI9i2mxE0H2KmENJz5Xe9hvYBvEI0Kfe0+qreZqbpgP27nAx4y3q6H0MTO7JW8Rmk1Ya1pzKQnqRRhHoGXjNCVtPIgLVnvvfb6HlmZV0wOgOExakmaftvR/Kdrb7qq/puE9gIDpzHxBi4tbusrDbc4PmHBCMWStK4aax+M+xzH0zM0wB8WGztI9DnhVJXBVqTyhpBQLMx3gx7Q9ELamd1DMyXdu05f90OdUHzekBFiHFcmh57Ycu0+h4ZwUI6WHacZ5WC8qXLxiFgH814zhs0n/M2Wwflun0jm9cO9QbNuxLMYTCfnLYHM24O+6uL+nRHi7/qHQb+k4lnM3DfSt/gL/KtzUP6e57h1Najbew7aPbmBCuCUCBzgM/zPBH9BEhbEKxjCXjHCJoP1c4298h1+4y5HdV1AfOvgFoO4NQ0PbYHTCcu89csEg3KHyIN7qcJfE2K+6rJxoD232d1DE6r73E4YicjfSHEFJhPdhC3GkHzz7WzOmryra/GNrdVeEPWpbE4VjHoKqR8cOKrDnwsvMhzQTJFnABHARpY6AOACbMpoX4Raawqqa8SY2Z+umO3MzYEDj1Ya+7vVLC6UbYmHw3QXCyAKhYfrkkNAgBNic8Qd7UtmzqkregbT8StwBOj55mhWAJXgHEpvp2EolDHenuh1NXhwnM6js8BpHC8nkYS46/kTPzOCJj3OaDv6Y27mROng1PFz+eennMZ2DGNj24K+93zxZQT0mpg+qveqQ1ZU5TmuemKj0rAkVD8mjcYnatAd1VVuIPbyrSWbryBtrEgdRYhfnra53SiB8ILqy4tDe2gBwH+U7qXJ631nfnY2hcmUtwIWfeAcU36Rcly/VcoOFp97keMQHQHEN2G9MTHVABOVQ58zwiaM4n1bdm+hVYXat+Xmc9EIvEjJlSk8dGawKe1NnieFc3JR132XG3MsWrB+L791YsvqwuZy1t9nnuzZqNNHr5u1LyPJ+m4418MeNP02HIAlyhn4gIjaD5JwC2tfs8bueyfEaHoEJems7sIFxJzuuMPP15R5Z6e7KE3J4hawBhZwEbcMij988iU6lApDPKRzW27OJRjCgFHMvjIbnRvPtLNgCKCZsCFGIyg+QXA/yHQq5qpOeKver3YM++OmvfxcB13nMCgyQAORCKxk1aELz/wKSjAmYARND8D8CYT/cuRSDxRzPEh353k6QTwmxGhNXe52HEdQKcis4HAM46DqaWQ5F8XMm9kRjq+rO0AwsUJqIuNoLkEQBORCra+OeQ/mTztXDurY6DDoadq0qcQ4scwkO5rAquc3P1TMeGETLDM5361fk77FK11M9LotCbQZAYmW11W1Bsw71NO/memkoWMmmW5Ey6cCOBMMO+XEUEx3xle6L6gVG5OlDn54VgcfwDgSuNjn8vnRBgx6LtcoF8jDbGGvlIboL3S7Z4nM41QiIQbqu8wglEC6K9ptI1dAKYxqWneoPkfIv6nA+qppT73e5low+h5ZlU8TicycCazHpuBVyQIfFarv1qu+eetK4R4fdPqnwyodH0nlSulzLjdCJmtYZ8na2Gklk4aunr0PPOIWJznArRvGh/tAvADBn5gBM0lIHrCoRNPZusAxYQF7GzfaB7DjB+A6WRQ+g/hEOj+1s6qMzEu+djpTmYsJOCEAlT3dcSYUVVZdWc2v77nipHNbV6HoisBmgZweR88eYMAOoyBw4j4ciNkvYuQ9Se1Ye1jxXbNzhuwDibiXyXiaASg+nCif0cAxxLzsVqpG42AOZdBv480uF8rVv1Z6Ru2BsB0b3P0Xii6mYB9CrQp7HDqtwpqXd7wyU1cObgRwIFpfOzeAPZm1tca460ODlgvEvErgH5bORJLWyYPX2f3wXvOX7dDeU9sf4APAHA4kDicgXLKjN+4m1mfvKRht0/FghMyRcuUqlfqm60JWvE8pD/7azURruQEXWkEzdUA5iniefGY8zW7p833nL9uh7JN3fsqRZMYPCkBHgPO3IcbYv5Tq9/zSzQU90fCr/PuJE+7ETTnAWhI4yYsr69Or/RVd3gD5pNEOCVdz1TghxePo5jMMkKhEvZX314XtOK8OU5mWj9wErAPmPZJgG8wguY7AM1XzK90K359pa+6w84zR4Q+GeRM9OynFE1iomNjcd4X4EytDz2K+JQWX/WToin5zZppwzfWzuo4npyJNwEMtfmYfmDMHBFaM75335i19XjP+esmlnd3B0B0aAZesTeY906QusYImmGAXyRSryhH/KWlk4auTtdLRoTWDCvTrglMPMnqsiYDtEvmpEa3t/qqLrR7uMupSM1l1tcVkI5rgB+JES5d6a/uaC3yAT16nlkVi+F3IPwkxYVpNJgfSFTu8ntvyDwv4vM0F7psRoTWDHPBeSuYU3FgKxB8BPbVBc1mDccvIv4hy4tVnyKN1S9gBu9n7N9+KphvzMBmOLMQvf3uJHd7IVW5ZVp9T+2sju8qp34e4NoMvGIIEZ8E4CRAQScUjKBpAlgG8EdMsABlQmO9Iv0ZGMxAlwI5NFAB4sEgNZw1vkPE9ejpqUV2kkMxgc8NN9QsFtNNyPg4bHT/p35u+6E6oecD2D1DrxkO4EzNdKb672nzVjBaQPgIwHoCf6GhvnAwxxg0iKEHMdEgAjwADAAGenqGQ1Hvp6zMHtgm8NWtDdUzSlEnFPEDmildDsCP3P2rAuF8bzTT7SBOmwOQtHpQZheh0Gn1u+82QpYF5n8C6J+h14wBeIwm/NLFBCNofgDGe6TwnmasAtM6EG8gTRtJsWbQILAeCGAgE9XQ5iuSBjj23/WBM/rN5jMwndzil2u/hcKyqUPavIG2qUTqJcD2FXCPC65ZY5vbDlvcWNOVrbq/f8zOn49tbpvURepJgKdk8FUGQAYz/zQRd8AImusArACwgkErCfwZUa+tptVnW9m87EDMLoB3A6ldAR7BwBhiVHHmv6MmiOny1gb3Tak8xNnqq3rbCJqtAOryfu8PLEgounjZFM+7xT6Ixy5iV5dlnReL42oQdkifDHkYGLONkPWEU286p1BP3tSHoidppr8hjVe6GGgkJCbVBaJ/3VRefu37x+z8eVEq1wzSYeDBMTM/nd1d3nM5mC9GGq8EZXTvwlyQXyGXTR3SVh9sn5AAz83S6UvP5j+EzWsRA4TNh4h6/Qn66zMrMyj7F8Mv6Wu6ekFIBy2Tq1bWzuo4RLkST4KRjUQeOwI4GISD/7vOEAgMTb3jEpSrmAydDJwV9lc/WrIKsWHdbFQOXgsg5a/0DNxVCLdRIo3u142guQjAuDQ87p2WRvd/ZGYRioGwz/2MN2AdTcRPIzsfx3cHYXdmHEUA8KXjQHHvxx/Gl4ZZttcIAt5XrBtyFW9aSGGOb6hZXBeI/oiJHretOsz7dZLjATBPy2b4sMWNNV1g9htB81cgug7ZOYyw8/+3d+9xclR13se/v+qZhAQEAyTdMyTKLcl0BhUIF7kTEJN0d8iiSx7WB4K66+1ZBVdZZEUl6K7K+ugCrq6rKALusxrWFc3MBAgSVuSyEC5CZqonhGvCzHRCIJDM5DLd9ds/grrrA5LLzHRVzef9esE/SbrO+Z1fV536dZ1Tko6XdPxvf3Z1/+39kr/e9+O//c9H7jvq2mym87tK2Z/v6Uf9NrDXxTyfn5TZOV3F3Bndc7OpL/61tPeVBip9KyVdLQ1d8e8PvtznVm3sPflb1zclLz6VKyK3xRralxD81hg3+/SY7dtX5dv7/kKLPEhrnj16zoSNYSF7WS2KjpRsaQKaPGiZzA8TW3woTuob06CT3G3UL6Vw6bNhMXcNUzWMtO75E3uy47KnyuyqURyGJ6PATiwXc/86mnNhx3YoNhT7Wm1vqNoPktJvMw3Ni0pcvPwDqVIuZe+tRQ0zJd0/isNw+3bzd1L8S66uUtPNJn11z64T/qctHZXL6nCB8rDUdJVL8yVje6DfX3BXSTqhq5j7+VB8WiBJjQ36rqRKDHvbb/Irt4zfckRYyN6S9qFtaV8/Ld/e12bSEslG4sUsedVq97Qs7T04KTHKd/T9rckXaZiL7SZNkvS9/LF9K/LtPaemOe9WzWsuh8VsQW5nyRXfF2y4fhjOmdib5Fg/NjvXXy5OWmCyj0naNAqvYFXJP14u5r7CxRz1ctcsq4aF7GVmdr6kgdHVe1va4NuOHQ0/pu7UJDiKhqKItXjl/GwlKX1+ZfPgv8q0YU/P5YEFPyaDkL458YHPD9qm0831j9qJTcVTZJvLPh0WsnN2d39CxEfXg9nPSdqjYpFJX5reUTmpHu0vF3NtQVQ7UtIDjKbfFIzPzAxLuZVDNvf57U2pmz4fo55GLl0fKDi8q9i06JlZh2xN87C+re3ZCfn2vqtNtZWSiiN8+EOsZssOXfbifnGPU0tH78flunyEb5aOkoL/yLf3LZn+i75D0pyHYSl7x/hc9iiXfVrSxpg1byDw6G/Tcf9t3lXMfkeZzHTJbxpFV7BNLp0TFpu+JSAOE+RC9l8yHh0j032j4ftnrovCByeVeOnO73XOa3pA0p5Nqk2JOqetXTBli9y+v4c3hks7i5P6yCCk0erC1G1dpdwnJJst6fnRcDk0C04oF7PfGMklnxhGiywKxgfnS9qTH/sygfxr9bs+Nz83Pps9We6XSdo6CkfxFXO7ICw2LeycNWnzUH7w75Y3ludmr3P5rfXuqUsPemQnl4u5D6Z+crHIg3xHZeGgjS1Lulg7Xlldh4KEDh87OPi9OIcq39H3TnP7Rh2bUAoy6pzR0XvlzCU949Oakg8dY4PlYvYbQWbwMJeulVSLRcNcl3fOa34uTbEO50zsDYtNC910tqSnU32uc3Vaxk8oF3NtzMoQJytLzWH4QPZkd/uIXJtT+v3rCKLoiK5S7ptaZBGj/ofx8R/twT9+JCzkErhcsPbtPbm+RzKW/yL1wmJ2mW+rvkNmNyidTwNuN+krW8ZvmdlVmPQII54unbMmbfbA57u0+y9PdJ0wbUlPSz3vS8NS01VBJnibpNH0Qpq2IIre1lXK/mg4Pvz3+5uZedVqH5Kppz7zU1vr0v8uF7LHl+dlU/9r/PS23ln5YyuPyP2GV5eb1nsCfG5LW++FcYxV6+LOMYp0nepVIP29ce72hYEgWJXvqCyUu6U1PzvnTHmxXMxdHCg4RtJ/1LMtZn5bOJD9ZlpjXS7klgzaprykTw3Bsqy4qZr01cFg08yuOU2dAuJokUXlUva7QUNwlFwdKepZRa4/C0u5Ytp+QBlKUa3hJu1mMcykRF6bwmLzs6bdzvUXq/YKP+ZgVCi/Z/KGsJB9v3l0mvb0aeEYcenOwPyormLus2lfaTeq83du0zOZIHivpO27+xmZTOa4+t+XTlodFrLvNtOfS3ohxUP2XOCaHxZz84Zz3vY/XnCwujB5rSLN1sgu/9sis6u8GswoF3P/L+2PHh9x2/NT8u29NwZmd0p6e5zaZoF9vXX5un1iNznf+4CPydQaoyYdJPcbZnRU7p7e3nNMmvO1szjp0bCYO93cF0h6dsRzUipnou1/pgVWS3OcVxembguLuX/Y1jjmMHe7IhWFQPdfu0fv7Crm/mZ1Yeo2pmHJZRrc9fFzJe472zln0uqwlCt6ZCeadE+Ch+xFk1+5bcyY6WEpxz5tb6B7/sQeM9+NJwvspXGR/ySp/Y7cdnPpsv2Yc/qQznOS+1Su2W4UjjyRudNVar47Oz57lLt9REleFuzqVGTvKRdzZ3YWmrp2L2d3fdzNo2ErMpr7rrfHlOr7iv8xt5k76dcm/+ju50z0ppicb7yrkPtBVM0c6tJnU/bQxMtyfa6xQTM6S7lfDPfB/r83nIal3EqPrCBpuDcAdUmLgyhqCQvZy7rnT0z1hvgzl/SMn9Heu6hWzayS7IKYXhQOiAaiD8Uqbiu8UdKn4hkunRQoeCDf3ntja/u6XJrzt6vUdPOm/sG8zL4gqX+EDvtErZo5czTtV/XUWfu/XC5lvxiMCw52s0tUh6LrEHgyMD83LDWdUi41PxSXRgVWa9jlf+P+IrenUnZ80/OSdu2mzfRMUvtbnpe9r6uQPUWm87Rn++eM+ATSZYsGrfGQrmLToqfO2v9lsnfnRL5bS1qve2hec2JfIlMuTrpdsu5dPi8OzYtTUuktDRP6JQ3u0lzSbGOCu7zr53m3xC41vWuWVcul7Hc39Q9OfXWOlqRC4OPmviBckX17OC/7sz07X+76uLsN61Y3uzxXjuSPj6ZzU1ex6XqT795WWhbEKs+750/cVC7mvtKY0VslfVLxfJHtztpupu82NmhaWMr93WOzcyNyjx283uQ3yAQnSuoalqOaPWwenRYWc/8r9ctS3C3fXrlgIBM84bIrJO0V6/aaLjm844mxcWnOlkrf+ZLeEuuIyS6IFK3Kd/ReGqfYDbW1C6ZsCQvZL0XVzDQzfVfD+au16b5M1U7pnj+xR6NQ56xJm8uF7NfD/uxh7vbeHW8G3/3H90fICpnOy47PtnQWmv4tbo0b53po138ttKXc0u646THzu3YtdL4s0Z0287CQ+0lYzL0jMJ3ppl8opk/qmFSW/NIG33ZIuZi9cnXhgFfI2l2zuX/wFu3a6peqB9G3k57jkv/TLv6rB159cQpe51wp6eFdq0RE/5nYFJJ2dSn4wN5euzsN8+FyIfv1oH/DoZItlDyuRc3IzG8z6U/CQvYdXaWmm4diH9jNA9t/JWlXrjORB2oftjxs2OU8dHnD7aPt/NTVn7t0N+a1W4Ng+6/i2J/HZuf6w2LumqiamWqyjylZbwx+3t2uCBS8tauQ+8hjs3PrRvLgf3QPs5krvHGgr+9TMvuShmL/NdMGub4U9mf/Me1L+iRpenvPMRkFV7t0UqIabnZOWMjeEoem5Nv67pDpzMTEzrXa5J/tKjXdnPb8bllSOUGBX2PSsUP4sVWTvmb9GxZ1LmjdLvzOkT976c3bx2w9J5IWmOxM1X9PTGnHI+s/NUU/7Co1x35SP6Otconbzr7RzO8Oi02nknk7tHb0nRG5frmz1/ogGJzWOWdKqp6gbL113eFRLbpQ8gWSTavztWazm252s+93F7L3kKFDcH5o71306g+1OzMAN4bFpguT3ufDOzbs26jBUK7mnel0ZHYK+fYGedTR90F37exblj1QcHRncdKjiezsIg/yx/atkOyonbu90OVdhdyX0zju+SU9R3smeL9J75PrgPrex6nHI/3QI13XfXZuWJ68y3dUPi/3L+7c5UrXl4u5Dw5r/Nt7fyrZe3by+vmDsJT789F4fjp02Yv7jd2+/V5JM3byFPWdsNj0scScf2/tbVVVH3Cz8yVlY9a8mlx3BYF/Z+K43C2v/mBUp1PETpj+i75DMg26zF0flNSwG8d5weTf2jpm7D+MhiUp03++vjloqH5VsvN3NsaxYnZDWMi+v+43W8vX7RMNRC9IStxTdS7d6YH9Vffc7GOpTvZFHuSPW3e+uV/h0qF7+GnLAgWXJnYiPIJa/n3tAcGYzBkuzZLZ6ZLyI3j4Xpndbh51vNJfXbJ2wZQtiQncYs/M2Kev3d1mv8HffDaIolN5ccIf5F1H79fM7ZI3muCY+byuQlOqn56c0bHuKHm0wF3zZJoxQtf6p820zOTLqoMNt6V965QRn3Ms7hwT7b3/HZKd8gYT53K0rXpy+T2TU7H/UMuS3tMtsKV6oxUqrr8KS7mryZQ3vs607F253aQz3nCuaPpmuZC7KMndzS9ZN1WZ6L43Knq5/NZM/4vz0/7j7o6HZ9ad5oGfba6zJb11hA79uLuWBKZfdD2YfXC43/g+c4U3DlQqHZLe9UbtGrTGk4f7yfRpS3oOzFhwn0yHv8E97sNBsP2stP1AuSuO6KgcVnO/X9KBb3Cte8oyg8cmMVYzV3hj/7q+ExXZu2U6y6SjJWXq0JSqSXe72c2ZQf37yvnZWCxX3qUJ6/Sfr2/ONNT+1OV/Ktkxksb9kQLIOjPdqZot3rLPwNLR8IahHZPHAz4m6YuS9k1wV54Oi7lD692IGe198126JcFxrJrrO9YweEXaLzQzV3hjf6VybiD9hUun6XW2F3gNL8vslsCib3XObXqQO4fdPPe0r8tFFp1mriNdOkJSq6SDh6AoMSj5SskektnD7v7rcjGX6H1TDl7+9F57DYz7tkkfeJ2/siJjdt7KQvZJMusPL+xuLR2Vz5i0SK/9w0yvu32gXMreNprCMm1Jz4EZZU5R4KdJOkFSyxDMAfpl1u2Rhya/V55ZFs6b9ARJOLwmL14z7k17j1kk+SWvfR2zpYMWXbi60LQ+Tf1uXdJ7XBTYjyRNfY0/HpB0cVjMXUeG7Jwjf/bSm7eN2fYTSe/+I3/t++Oz2Y89dIwNJj5/djwd/S+SXuttodskfTs7PntpPZ94qWuxRTpJ7qdIPlOyvPZ8O6htMj2sSP+pQPdnMrV7V84+aE2d5lNXm/Sh1zpfutu/7TU45kOPnjNh40i05+239U0arNoPJZ/7Gn8cmfTjWjXzUX48+905/2a93jZbZg+rZuelZd7Reuua/b3acKabnSRphsvyJp88DIfaZDv2jr5b5r+qDTb8Oo75tts3h6cv94b1m9e11jL+FkW+vxSMlfkmmW1oyFTDepyI6qmlvfJek39N0iFp6M/Y7WMnjNQJ+/Vj2vc3JqVgqYC9JPmV2fHZb42Gyc+rv8K9ywOfaZHNcNPEQDrApX6TXnHpOTOtNOl+bd7wa5b6DtPFbvm6fbS5NsMDa5KsKXJNMtMkySea+X7uVpXZgNwjlzaa2UZF0Usu9SnQM+b+THZ80/Npzdl8R987Jfuo3A/aMVPV04HU1lnMLkn72+j31G9/DIzcTjHzN7u0RtIdm/sHf5aoJ0KHOUbKVKebgqmScgr8QHMdKLMG9+hNJmtwt40WyE3+kkvrFemFwIJyLaiVy3Nyz5KH9R2/oKFWkHymyQ5y15Muu7lcyt6b1j7PXOGNWyp950RuZ5spK9MLLltRVXRj2gqeI8LdWjvWz66pdrHJjpO0v6Qtku4JTF/pLOTuTFt/W9rXvVuBF811iEyDkj0SDQbfH637Ob+mxZ5p3Xf9IVG1Nt0Da5Zbs0mT3H0/C2yMXPvI3RVYv9xfkWyrWbRBsmdrkT9tGT2d2yu3Nk5zsyPaevJVyywwU6vkDeYqRx79tF4vgmtpq5xopvmST5eUMenxahTduGpec5kE/L3Ji9eM23f8mPe6+Wna8aRqv6Rn3W1pecWkZcP9FGm9Hbrsxf322r69JXJvURAcaFG0n5vtZ2b7yX0/Sfv8kRPeK6bgFTdVLPLno8C6M7VaOSkrh4z038NJ4tLK2zORX+3SrHRdx6Nj6v0Gz3x73/ck/UV6omrdCqJPhXObOvjmAAAAjJL7hZ+vf1P3Iwf2p/2mGgAQbw2EYPe03rpm/1qt8QqL/C+9PmvKh5VZZv96t8Hlky1VNWqfrsja8+19t2TMLmGJIQAAQPqx7BAAEAcBIdg1M1d4Y7697+KoNma1SRcphcU/SZJp77o3wVP7K+mf1NzDlva+aw7v2LAv3yoAAAAAADCcKADughlL+84cqFQelnS15BPS3FePYpAbpjTvDddo0kWNPvhkvr3vYi32DN8wAAAAAAAwHCgA7oT8knVT8x2VxR7pDu14wyZGgiX/zWg74UBJV+f3rtzf0lY5kUEHAAAAAABDjT0A/4jW5ev28YHaJa7oMrnGEpER5j6a3oB4jJnfk2/va5Oij4fF5mdJAAAAAAAAMBR4AvC1LPIg31FZGA1Eq112hUTxDyOmJAVd+Y7KV1uXr9uHcAAAAAAAgD1FAfAPzGjvOz5/bOVeud8gKUtEUAfj5f6Z2oCH+Y7KQrkbIQEAAAAAALuLAuCrDu9YOznf3nujS/dJOp6IoN5MPlnuN+Q7KvfNaO8jJwEAAAAAwG4Z9XsAzlzSM37A7BOK7HMyseQScXS8S/fm23v/JVMN/nrl/GyFkAAAAAAAgJ01qp8AbOnomzcQBJ0y+yrFP8T/u2oX1DK+ekZ776LDO55gX0oAAAAAALBTRmUBML+k5+h8W+/d5vqFpINJAySGaR+XXdHob3p8RlvvuQQEAAAAAAC8kVG1BHjakp4DgyD4vKS/lJRh+JFgU91scb6t75eSPhmWcisJCQAAAAAAeC2j4gnAmSu8Md/ed3EmCJ406SJR/ENamM6U6ZEZHX3/PG1Jz4EEBAAAAAAA/KHUFwDzbZV3DVQqv5F0taR9GXKkUIO7PpwJgu58e9/FWuwUuAEAAAAAwO+ktgA4fenz0/Ntfe0yXyYpz1BjFNhf0tX5vSuPt7RVZhMOAAAAAAAgpXAPwLe1PTuhGuz1GUX+VzKNYYgxCuXN/NZ8e19bze3iVaXsU4QEAAAAAIDRKzVPAJ6+3Bta2iofrtrYbrl/RqL4h1GvlDEPW9r7rjm8YwPL3wEAAAAAGKVSUQBs7eg7ozJQecjM/1nSRIYV+J0xJl3UqMGwpa3yYS3ygJAAAAAAADC6JLoYcERH5bB8R2Vx5PqlpLcznMDrcDWb+T/nj638Z0tb5UQCAgAAAADA6JHIPQDfflvf3tWq/3Vtx1LfvRhGYKcdY+a/zndU/i2o1S7pnNf8HCEBAAAAACDdkvUEoLvlOyoLB6ta7bIrRPEP2B0m93OjIAhntPcuOnj503yPAAAAAABIscQUAFuX9h6bX1q5R+43SMoxdMAeG++yK8YNjFuV76gsJBwAAAAAAKRT7JcAv63t2QmDNvbrUaT3SzKGDBhyU+R+w4yO3vdFpo+W5zY9Q0gAAAAAAEiPWD8B2NJWObEajF1p0gdE8Q8YVu4222r2+Iz23gVEAwAAAACA9IhtAbClve99Zr5crmaGCRghpn1c9uOWtsoXCAYAAAAAAOkQywLgjLbK+SbdKGkMQwSMODPzK/NtvV8kFAAAAAAAJF/sCoCtS9ed7ObXScowPEAdmX2+pa3yYQIBAAAAAECyxaoAOG1Jz4FRFC2WNJahAerPzK9tae97G5EAAAAAACC5YlUAzATBtZKaGBYgNsaa7Hot8oBQAAAAAACQTLG5qW9d0nucpPMYEiBufGbLsX0LiQMAAAAAAMkUmwJgFASLJBlDAsTxRGGf12JnX04AAAAAABJ5Xx8DLe3rp0k+h+EA4smlQ1vHV4pEAgAAAACA5InHE4AenSee/gNiLTK9jygAAAAAAJA88SgAmpdG8RisIQ0TJRrFfS+cvtwbSAEAAAAAAJKl7gXAmUt6xpt01CiM/YDJr/Rt1aNIw0RZau4LJD03Cvv+pvUD648gBQAAAAAASJa6FwC3yo6QNJqeKnLJb4yqmaldxaZFY/Zu2EoaJodJUVep6eZgfNBq0lclbRtN/a957R1kAQAAAAAAyVL3AqAHOngUxXuFu50cFpsu7J4/sYf0S67OWZM2dxVzf5NpqE2V/KZR03ELDmb0AQAAAABIlhjsARjsn/oom3rc7SPhg9njy6XsvaRdeqycfdCasNi0MHI/w6XfpL/Hvj+jDgAAAABAstS/AOjemOL4bpXp7xozmlYuZb+rRRaRcunUXWpaXu7PzpTZ/5FpQ1r7aen+vgIAAAAAkEpBDFrQn9LYttXcWsNC7nOPzc71k2qjwAKrhYXsP43dNvZwmV0laXvq+mjBZgYaAAAAAIBkqXsBMJLWpymgLv3GI58VFnPzVpWyT5Fio8+j50zYGBayl2U8OtLMb0tV5zzawAgDAAAAAJAs9X8JiNVWpSSWL0r6ZLk/O7M8r+kuUgsrS81hV6FpjtzOkqszHScMCxlZAAAAAACSdj9fZ92bmldL2pTgGA5K+oex28ceFhZz12iB1Ugr/HdhKXtHMLDhaHP7a0kvJ7kv1lh7hBEFAAAAACBZ6r8H4I6C2Z0Jjd8dlvGjwmLuU4+eM2Ej6YTX07mgdXtXKft/fVv1MJeulZTAQrF1r5x90BpGEwAAAACAZAni0AiX35KkoJlUNvNCWMyd1TWnqZM0ws4qv2fyhnIxd7Gi6DjJ71ayEv8WRhAAAAAAgOSJRQFwc3/1J5I2JiBeG+V+2XbbdGRXoWkp6YPdFc5rfjgsNp3qprMlPZ2AJrt78ANGDgAAAACA5IlFAXDtgilbTPpOjOMUSX5TY4Omh6Wmq1YXpm4jdTAUyoXckk39g61yv0zx3gvz5+XixFWMGAAAAAAAyRPEpSGWGfyaZC/FLkKmu4LIjg6LTQsfm51bR8pgqK1dMGVLWGq6KtNQa5X0r5I8Zk2sBZEtYqQAAAAAAEim2BQAO+dMeVHyS2MUmzUyuzCcmz2jc172N6QKhtvK2QetCYu59wWBHy/TfXFpl7lfzXcAAAAAAIDkCuLUmLCQ/b6ktro2wrXZTJdvGb9lWljI3igzJ00wkjrnNj0YPpA92eQflNRX5+Y8Ps79C4wKAAAAAADJFasCoMx87PaxF0jWXYeju+Q3RbXM9K5C7svPzDpkK+mBullkUVex6fqompkm2d9LGvl9J00bMmbnPDSveYABAQAAAAAguYK4NejRcyZsHLTBd5n01AgedkVkdkpYbFrYPX9iD2mBuOieP3FTWMx+JmPWKrObR/DQLwfmc1cWsk8yCgAAAAAAJFsQx0atLkxeu92qp8ns4WE9kKlHsoVhIXtcdyF7D+mAuFpZyD4ZFrIL5HaWXJ3DfLjnosBO7Zzb9CCRBwAAAAAg+YK4Nmx1YfLaxoyfKum6Yfj4re76cjAumB4Wszexzx+SIixl78junT3SzT8h6cUhP4CrI1O147rnZh8j2gAAAAAApEMQ58Y9NjvXHxZzH3Kz2ZJWDsFHRjL9OKppRrmUu7xz1qTNpACS5q5ZVi0Xmv4xyAxOdelaDc3+gGvM7YKwlCuunJ+tEGUAAAAAANIjSEIjy4Xs7WF/9kiZzjNpd5bq9rt0vUtHhoXcn3WfnXuaoUfSdc6Z8mK5mLs401CbavJvSHphNz7mMXf7yKb+weldpeyPiCoAAAAAAOnTkJiWLrBaKP1E0k/y7T1vNQ/OdtMJkt4h6RBJ4/7b335R0irJHlakO6IouKN7/sRNDDfSaOXsg9ZI+vThHU98tkH7nhZE0btldrRLMyRN1O8L/Vsle1aKOiXdn3FvW1lqDokgAAAAAADp1pDERofF5mclffPV/yRJkxevGTdhfLTXAXu/ZdNds6zK0GK0WV2Yuk3S7a/+9ztH/uylNw8O9gx0LmjdTpQAAAAAABh9GtLSkbULpmxZK21hSIH/6dFzJmwkCgAAAAAAjF4BIQAAAAAAAADSiwIgAAAAAAAAkGIUAAEAAAAAAIAUowAIAAAAAAAApBgFQAAAAAAAACDFKAACAAAAAAAAKUYBEAAAAAAAAEgxCoAAAAAAAABAilEABAAAAAAAAFKMAiAAAAAAAACQYhQAAQAAAAAAgBSjAAgAAAAAAACkGAVAAAAAAAAAIMUoAAIAAAAAAAApRgEQAAAAAAAASDEKgAAAAAAAAECKUQCss1fGbKnFMjHM698uUxS3uLhUI2sBAAAAAECSUACss2dmHbJVUjVu7aq5v1L3Rrg2x2/EfBNZCwAAAAAAkoQCYDy8ELcGmVnd22QxjItkL5CuAAAAAAAgSSgAxoI/EbMGRZv7B1fHIC6r4jZSJusmXwEAAAAAQJJQAIwDt4fi1R6FaxdM2VLvZlgUPBy3obIgepiEBQAAAAAASUIBMB6DsDxO7XHTL+PQjs6HJj2ueC0D3ti5KUcBEAAAAAAAJAoFwBh4eWBwmaSNcWmPKfppLBqyyCK5fhafuNgtWmC8BRgAAAAAACQKBcAYWLtgyha5bo5DW0x6Kiw03R2X2Ljb9XFpSxRFN5CtAAAAAAAgaSgAxmUgGoK/lxSDp8vsazLzuMSlPC97n+RxKEg+UJ7XdBeZCgAAAAAAkoYCYEx0zpm02qUb69oI1+rt9sr18YuOf05SfYuSbpeTpQAAAAAAIIkoAMZI1fwzMm2o0+HdZR9fXZi6LW5xCYvNv5L8pro1wPTjsJS9gwwFAAAAAABJRAEwRlYXmtYr8gtVn6fdri2XsrfFNTZRteHjkq+qw6HX+Nbqx8lOAAAAAACQVBQAYyYsNbWb/IsjeUyTlgf9Gy6Nc1y650/cFAXBuZJeHsHDbnKPzim/Z/IGMhMAAAAAACSVEYJ4aunou9ZcnxiBQz0waI1nrS4c8EoS4pJv7zlVHrTLtM8wH2pAbvNZ+gsAAAAAAJKOJwBjqlzIXSSzL2g4lwO7OoLxwZlJKf5JO/YDjCyaJalvGA+zXqYzKf4BAAAAAIA0oAAYY2Eh+yUFXpK0fog/elDS58MV2XmdsyZtTlpcuovNKwIFR8n1y2H4+P+oRQ1HhYXc/WQgAAAAAABIA5YAJ0DrrWv2r9Uav2zSByU17slnuXSnuS4OS7mViQ+Mu+WXrrtA8q/I1byHn9Znpsu75mavl5mTdQAAAAAAIC0oACZIy9Legy2yT0p6n6SJu/BPt5m8Te7XdJWa705bXA7veGLsGN/3/S59SPKZu/JvXfqNyb+3qb/6g7ULpmwhywAAAAAAQNpQAEygmSu8ceu6yimRdIbcjpZ8mmT7Sz5Brs0ybZK0SrJO8+iujLbf8XjprS+Nhti0tK+fZqqeJdlJMpsu+Vvl2keSybRJrjWSuk26N/Bo2cpSc0hGAQAAAACANPsv5vKmfpQ1YccAAAAldEVYdGRhdGU6Y3JlYXRlADIwMjEtMDMtMzBUMDc6Mzc6MjMrMDA6MDCe+LnfAAAAJXRFWHRkYXRlOm1vZGlmeQAyMDIxLTAzLTMwVDA3OjM3OjIzKzAwOjAw76UBYwAAAABJRU5ErkJggg==;" vertex="1" parent="1">
                    <mxGeometry x="770" y="-123.64000000000001" width="185.61" height="44.37" as="geometry"/>
                </mxCell>
                <mxCell id="37" value="" style="strokeColor=#dddddd;shadow=1;strokeWidth=1;rounded=1;absoluteArcSize=1;arcSize=2;" vertex="1" parent="1">
                    <mxGeometry x="840" y="210" width="150" height="60" as="geometry"/>
                </mxCell>
                <mxCell id="38" value="" style="outlineConnect=0;fontColor=#ffffff;strokeColor=#001DBC;dashed=0;verticalLabelPosition=bottom;verticalAlign=top;align=center;html=1;fontSize=12;fontStyle=0;aspect=fixed;pointerEvents=1;shape=mxgraph.aws4.data_lake_resource_icon;fillColor=#4284F3;" vertex="1" parent="1">
                    <mxGeometry x="850" y="221" width="38" height="38" as="geometry"/>
                </mxCell>
                <mxCell id="39" value="&lt;font color=&quot;#999999&quot; face=&quot;helvetica&quot;&gt;Table&lt;/font&gt;" style="text;whiteSpace=wrap;html=1;" vertex="1" parent="1">
                    <mxGeometry x="891" y="232.5" width="110" height="30" as="geometry"/>
                </mxCell>
                <mxCell id="40" value="&lt;font color=&quot;#000000&quot; style=&quot;font-family: &amp;#34;helvetica&amp;#34; ; font-size: 12px ; font-style: normal ; font-weight: 400 ; letter-spacing: normal ; text-align: left ; text-indent: 0px ; text-transform: none ; word-spacing: 0px&quot;&gt;Data Lake&lt;/font&gt;" style="text;whiteSpace=wrap;html=1;" vertex="1" parent="1">
                    <mxGeometry x="891" y="217.5" width="90" height="15" as="geometry"/>
                </mxCell>
                <mxCell id="41" value="" style="edgeStyle=orthogonalEdgeStyle;fontSize=12;html=1;endArrow=blockThin;endFill=1;rounded=0;strokeWidth=2;endSize=4;startSize=4;dashed=1;dashPattern=1 3;strokeColor=#4284F3;entryX=0;entryY=0.5;entryDx=0;entryDy=0;exitX=1;exitY=0.5;exitDx=0;exitDy=0;" edge="1" parent="1" source="16" target="37">
                    <mxGeometry width="100" relative="1" as="geometry">
                        <mxPoint x="645" y="210" as="sourcePoint"/>
                        <mxPoint x="645" y="110" as="targetPoint"/>
                    </mxGeometry>
                </mxCell>
            </root>
        </mxGraphModel>
    </diagram>
</mxfile>